<svg width="27" height="26" viewBox="0 0 27 26" fill="none" xmlns="http://www.w3.org/2000/svg">
<path d="M21.9444 0H4.72222C2.11111 0 0 2.11111 0 4.72222V21.2778C0 23.8889 2.11111 26 4.72222 26H21.9444C24.5556 26 26.6667 23.8889 26.6667 21.2778V4.72222C26.6667 2.11111 24.5556 0 21.9444 0ZM25.5444 20.8444C25.5469 21.3744 25.4447 21.8996 25.2438 22.39C25.0428 22.8804 24.747 23.3262 24.3733 23.702C23.9996 24.0777 23.5553 24.376 23.0661 24.5797C22.5768 24.7834 22.0522 24.8885 21.5222 24.8889H5.14444C2.92222 24.8889 1.11111 23.0778 1.11111 20.8556V5.14444C1.11111 2.92222 2.92222 1.11111 5.14444 1.11111H21.5111C22.5808 1.11111 23.6067 1.53605 24.3631 2.29245C25.1195 3.04884 25.5444 4.07474 25.5444 5.14444V20.8444ZM10.5444 12.1667L13.6556 18.1444C13.7111 18.2333 13.6778 18.3222 13.5889 18.3222H11.6556C11.5333 18.3222 11.4778 18.2889 11.4222 18.1778C10.7111 16.7111 9.98889 15.2444 9.24444 13.6667H9.22222C8.55555 15.1556 7.82222 16.7222 7.11111 18.1889C7.05555 18.2778 7 18.3111 6.91111 18.3111H5.07778C4.96667 18.3111 4.95555 18.2222 5.01111 18.1556L8.05555 12.3556L5.11111 6.48889C5.04444 6.4 5.11111 6.33333 5.17778 6.33333H7.08889C7.2 6.33333 7.24444 6.35555 7.28889 6.45555C7.98889 7.92222 8.7 9.43333 9.36667 10.9111H9.38889C10.0333 9.44444 10.7444 7.92222 11.4333 6.46667C11.4889 6.37778 11.5222 6.32222 11.6333 6.32222H13.4222C13.5111 6.32222 13.5444 6.38889 13.4889 6.47778L10.5444 12.1667ZM14.2 13.9778C14.2 11.3889 15.9222 9.36666 18.6556 9.36666C18.8889 9.36666 19.0111 9.36666 19.2333 9.38889V6.44444C19.2333 6.37778 19.2889 6.33333 19.3444 6.33333H21.1C21.1889 6.33333 21.2111 6.36667 21.2111 6.42222V16.6222C21.2111 16.9222 21.2111 17.3 21.2667 17.7111C21.2667 17.7778 21.2444 17.8 21.1778 17.8333C20.2444 18.2778 19.2667 18.4778 18.3333 18.4778C15.9222 18.4889 14.2 17 14.2 13.9778ZM19.2333 11.1333C19.0778 11.0667 18.8556 11.0222 18.5889 11.0222C17.1889 11.0222 16.2111 12.1 16.2111 13.8889C16.2111 15.9333 17.2111 16.7556 18.4667 16.7556C18.7333 16.7556 19.0222 16.7222 19.2333 16.6333V11.1333Z" fill="black"/>
</svg>
