<svg width="19" height="27" viewBox="0 0 19 27" fill="none" xmlns="http://www.w3.org/2000/svg">
<path d="M14.2508 8.86546C15.5105 8.86546 16.7185 8.39844 17.6091 7.56714C18.4998 6.73585 19.0002 5.60836 19.0002 4.43273C19.0002 3.2571 18.4998 2.12961 17.6091 1.29832C16.7185 0.467019 15.5105 0 14.2508 0L4.75214 0C3.49327 0 2.28596 0.466745 1.3958 1.29756C0.50565 2.12837 0.00556586 3.25519 0.00556586 4.43013C0.00556586 5.60508 0.50565 6.7319 1.3958 7.56271C2.28596 8.39352 3.49327 8.86027 4.75214 8.86027C3.49253 8.86027 2.28451 9.32729 1.39384 10.1586C0.503161 10.9899 0.00278362 12.1174 0.00278362 13.293C0.00278362 14.4686 0.503161 15.5961 1.39384 16.4274C2.28451 17.2587 3.49253 17.7257 4.75214 17.7257C3.8128 17.7252 2.8944 17.9847 2.11307 18.4713C1.33174 18.958 0.722566 19.6499 0.362591 20.4597C0.00261494 21.2695 -0.0919975 22.1607 0.0907177 23.0207C0.273433 23.8807 0.725269 24.6707 1.38909 25.291C2.05291 25.9113 2.8989 26.334 3.82007 26.5055C4.74125 26.677 5.69624 26.5898 6.56428 26.2548C7.43233 25.9197 8.17443 25.352 8.69675 24.6233C9.21908 23.8946 9.49816 23.0378 9.49871 22.1611V8.86546H14.2508ZM14.2508 8.86546C13.3121 8.86546 12.3944 9.12528 11.6138 9.61207C10.8332 10.0989 10.2248 10.7908 9.86559 11.6003C9.50633 12.4098 9.41233 13.3005 9.59548 14.1599C9.77863 15.0192 10.2307 15.8086 10.8945 16.4282C11.5583 17.0477 12.4041 17.4697 13.3248 17.6406C14.2456 17.8115 15.2 17.7238 16.0673 17.3885C16.9346 17.0532 17.6759 16.4854 18.1975 15.7568C18.719 15.0283 18.9974 14.1718 18.9974 13.2956C18.9973 12.1207 18.4971 10.9939 17.607 10.1632C16.7169 9.33239 15.5097 8.8656 14.2508 8.86546Z" fill="black"/>
</svg>
