<svg width="54" height="53" viewBox="0 0 54 53" fill="none" xmlns="http://www.w3.org/2000/svg">
<g filter="url(#filter0_d_549_822)">
<rect x="4.5" width="45" height="45" rx="22.5" fill="#CBE1FF" fill-opacity="0.69" shape-rendering="crispEdges"/>
<rect x="6" y="1.5" width="42" height="42" rx="21" stroke="#FF8F7E" stroke-width="3" shape-rendering="crispEdges"/>
<path d="M22.7299 12.5C23.4614 12.5 24.1262 12.58 24.7306 12.7507C25.3319 12.9241 25.8456 13.1908 26.2781 13.5641C26.7054 13.9375 27.0419 14.4309 27.2785 15.0577C27.513 15.6844 27.6328 16.4579 27.6328 17.3646C27.6328 18.3514 27.4556 19.1782 27.1045 19.845C26.7522 20.5117 26.2323 21.0451 25.5393 21.4719C26.4834 21.8186 27.1816 22.432 27.6463 23.2988C28.1132 24.1789 28.3393 25.2324 28.3393 26.4459C28.3393 27.446 28.2038 28.2994 27.9121 29.0195C27.6203 29.753 27.2139 30.353 26.7033 30.8198C26.2031 31.2838 25.6091 31.6199 24.963 31.8426C24.3141 32.0673 23.6449 32.1812 22.9727 32.1813H15.5V12.5093H22.7299V12.5ZM33.1526 28.7182C33.6111 29.2889 34.2708 29.5756 35.1263 29.5756C35.7411 29.5756 36.2726 29.3783 36.7207 28.9795C37.1625 28.5928 37.4293 28.1661 37.5335 27.726H40.2303C39.8104 29.4329 39.1383 30.6598 38.2504 31.3932C37.3647 32.14 36.2872 32.5 35.0408 32.5C34.1686 32.5 33.3902 32.3266 32.6733 31.9666C31.999 31.6267 31.3882 31.1087 30.8809 30.4464C30.3846 29.7662 30.0026 28.9628 29.7586 28.0861C29.495 27.166 29.3699 26.1525 29.3699 25.059C29.3699 23.9882 29.5106 23.0054 29.7899 22.0853C30.0712 21.1518 30.461 20.3784 30.957 19.6983C31.4728 19.0182 32.0647 18.5048 32.766 18.1061C33.4673 17.7074 34.2249 17.5287 35.0794 17.5287C36.0277 17.5287 36.8405 17.7474 37.5595 18.2261C38.24 18.6711 38.8318 19.3098 39.2894 20.093C39.7479 20.8744 40.0709 21.7732 40.2689 22.7867C40.4669 23.7868 40.5294 24.8403 40.4877 25.9605H32.4742C32.4742 27.0806 32.766 28.1368 33.2141 28.7142L33.1307 28.7542L33.1526 28.7182ZM22.4819 28.7848C22.8122 28.7848 23.1279 28.7448 23.426 28.6608C23.7282 28.5808 23.997 28.4408 24.2211 28.2608C24.4399 28.0807 24.6275 27.8234 24.7629 27.4833C24.8984 27.1633 24.9609 26.7232 24.9609 26.2032C24.9609 25.203 24.7317 24.4829 24.294 24.0429C23.8459 23.6161 23.2624 23.4028 22.5329 23.4028H18.8763V28.8035H22.4819V28.7635V28.7848ZM36.6613 21.2505C36.2945 20.7371 35.6817 20.4611 34.9346 20.4611C34.4469 20.4611 34.0436 20.5597 33.7195 20.7784C33.4048 20.9785 33.1464 21.2452 32.9484 21.5652C32.7504 21.8853 32.618 22.2053 32.5399 22.5653C32.4617 22.9121 32.4148 23.2321 32.3992 23.5121H37.3615C37.2886 22.512 37.0176 21.7786 36.6529 21.2585V21.2718L36.6613 21.2505ZM22.2943 20.4304C22.8924 20.4304 23.3885 20.2517 23.7792 19.881C24.169 19.5209 24.3565 18.9209 24.3565 18.0967C24.3565 17.638 24.2836 17.2633 24.169 16.9686C24.0335 16.6752 23.8563 16.4485 23.6479 16.2858C23.4291 16.1205 23.179 16.0058 22.8976 15.9431C22.609 15.8747 22.3159 15.8416 22.0223 15.8444H18.8659V20.4317H22.2943V20.4304ZM31.775 13.8188H37.9941V15.7578H31.775V13.8028V13.8162V13.8188Z" fill="#050112"/>
</g>
<defs>
<filter id="filter0_d_549_822" x="0.5" y="0" width="53" height="53" filterUnits="userSpaceOnUse" color-interpolation-filters="sRGB">
<feFlood flood-opacity="0" result="BackgroundImageFix"/>
<feColorMatrix in="SourceAlpha" type="matrix" values="0 0 0 0 0 0 0 0 0 0 0 0 0 0 0 0 0 0 127 0" result="hardAlpha"/>
<feOffset dy="4"/>
<feGaussianBlur stdDeviation="2"/>
<feComposite in2="hardAlpha" operator="out"/>
<feColorMatrix type="matrix" values="0 0 0 0 0 0 0 0 0 0 0 0 0 0 0 0 0 0 0.25 0"/>
<feBlend mode="normal" in2="BackgroundImageFix" result="effect1_dropShadow_549_822"/>
<feBlend mode="normal" in="SourceGraphic" in2="effect1_dropShadow_549_822" result="shape"/>
</filter>
</defs>
</svg>
