<svg width="33" height="19" viewBox="0 0 33 19" fill="none" xmlns="http://www.w3.org/2000/svg">
<path d="M4.4 0.799999C5.49333 2.58667 6.7 4.36667 8.02 6.14C9.34 7.91333 10.6133 9.58667 11.84 11.16L11.58 14.18H11.32C10.48 13.02 9.71333 11.9667 9.02 11.02C8.32667 10.0733 7.66 9.17333 7.02 8.32C6.39333 7.46667 5.76 6.62 5.12 5.78C4.49333 4.92667 3.82667 4.02 3.12 3.06C3.18667 2.56667 3.27333 2.18667 3.38 1.92C3.5 1.64 3.64 1.42 3.8 1.26C3.97333 1.1 4.17333 0.946666 4.4 0.799999ZM4.4 0.799999L3.62 2.1C3.62 2.64667 3.61333 3.24 3.6 3.88C3.6 4.52 3.6 5.17333 3.6 5.84C3.6 6.6 3.60667 7.34 3.62 8.06C3.63333 8.76667 3.65333 9.51333 3.68 10.3C3.70667 11.0867 3.74667 11.96 3.8 12.92L5.58 13.34L5.34 14C4.94 13.9733 4.51333 13.96 4.06 13.96C3.62 13.9467 3.2 13.94 2.8 13.94C2.44 13.94 2.08667 13.9467 1.74 13.96C1.39333 13.9733 1.03333 13.9867 0.66 14L0.44 13.34L2.2 12.92C2.26667 11.6667 2.31333 10.4667 2.34 9.32C2.36667 8.16 2.38 7.05333 2.38 6C2.38 5.29333 2.37333 4.6 2.36 3.92C2.34667 3.24 2.31333 2.58 2.26 1.94L0.46 1.48L0.66 0.799999C1.07333 0.813333 1.44 0.826666 1.76 0.839999C2.09333 0.853333 2.46 0.86 2.86 0.86C3.39333 0.86 3.90667 0.84 4.4 0.799999ZM14.16 0.799999L14.38 1.48L12.7 1.9C12.6333 3.58 12.5867 5.13333 12.56 6.56C12.5333 7.98667 12.52 9.44 12.52 10.92C12.52 11.9467 12.5267 13.0333 12.54 14.18H11.5L11.32 13.34C11.3333 12.9 11.34 12.4867 11.34 12.1C11.3533 11.7 11.36 11.28 11.36 10.84C11.3467 9.26667 11.3133 7.72 11.26 6.2C11.22 4.68 11.16 3.24667 11.08 1.9L9.38 1.48L9.56 0.799999C9.97333 0.813333 10.36 0.833333 10.72 0.86C11.08 0.873333 11.4667 0.88 11.88 0.88C12.2667 0.88 12.6533 0.873333 13.04 0.86C13.4267 0.846666 13.8 0.826666 14.16 0.799999ZM28.0447 14.58L28.6447 14.98C28.0447 16.1667 27.4314 17 26.8047 17.48C26.1914 17.9733 25.5847 18.22 24.9847 18.22C24.4647 18.22 23.938 18.0867 23.4047 17.82C22.8847 17.5533 22.3714 17.24 21.8647 16.88C21.3714 16.5333 20.8914 16.2267 20.4247 15.96C19.958 15.6933 19.518 15.56 19.1047 15.56C18.7447 15.56 18.3914 15.6067 18.0447 15.7C17.698 15.8067 17.3114 15.98 16.8847 16.22L16.4647 15.62C17.0114 15.2333 17.558 14.92 18.1047 14.68C18.6647 14.4533 19.178 14.34 19.6447 14.34C20.1514 14.34 20.678 14.4333 21.2247 14.62C21.7714 14.8067 22.3247 15.02 22.8847 15.26C23.4447 15.5133 23.998 15.7333 24.5447 15.92C25.1047 16.1067 25.6447 16.2 26.1647 16.2C26.5514 15.9867 26.8647 15.76 27.1047 15.52C27.358 15.2933 27.6714 14.98 28.0447 14.58ZM22.0047 0.659999C22.9914 0.659999 23.8514 0.846666 24.5847 1.22C25.3314 1.58 25.9514 2.07333 26.4447 2.7C26.9514 3.32667 27.3247 4.03333 27.5647 4.82C27.818 5.59333 27.9447 6.4 27.9447 7.24C27.9447 8.10667 27.818 8.95333 27.5647 9.78C27.3114 10.6067 26.9314 11.3467 26.4247 12C25.918 12.6533 25.278 13.1733 24.5047 13.56C23.7314 13.9467 22.8314 14.14 21.8047 14.14C20.8047 14.14 19.9314 13.9533 19.1847 13.58C18.438 13.1933 17.8114 12.68 17.3047 12.04C16.8114 11.3867 16.438 10.6533 16.1847 9.84C15.9314 9.02667 15.8047 8.18667 15.8047 7.32C15.8047 6.46667 15.9314 5.64 16.1847 4.84C16.438 4.04 16.818 3.32667 17.3247 2.7C17.8314 2.07333 18.4714 1.58 19.2447 1.22C20.0314 0.846666 20.9514 0.659999 22.0047 0.659999ZM21.5447 1.72C20.718 1.72 20.0447 1.96667 19.5247 2.46C19.0047 2.94 18.6247 3.56667 18.3847 4.34C18.1447 5.11333 18.0247 5.93333 18.0247 6.8C18.0247 7.57333 18.1114 8.33333 18.2847 9.08C18.4714 9.82667 18.7447 10.5 19.1047 11.1C19.4647 11.7 19.9047 12.18 20.4247 12.54C20.958 12.8867 21.5647 13.06 22.2447 13.06C23.0714 13.06 23.738 12.8133 24.2447 12.32C24.7647 11.8267 25.1447 11.1933 25.3847 10.42C25.6247 9.63333 25.7447 8.80667 25.7447 7.94C25.7447 7.15333 25.6514 6.39333 25.4647 5.66C25.2914 4.92667 25.0247 4.26667 24.6647 3.68C24.318 3.08 23.878 2.60667 23.3447 2.26C22.8247 1.9 22.2247 1.72 21.5447 1.72ZM31.61 11.68C31.77 11.68 31.9367 11.7 32.11 11.74C32.2967 11.7667 32.4833 11.8067 32.67 11.86C32.7767 12.22 32.83 12.5733 32.83 12.92C32.83 13.2533 32.7767 13.6133 32.67 14C32.4833 14.0533 32.2967 14.0933 32.11 14.12C31.9367 14.16 31.77 14.18 31.61 14.18C31.4233 14.18 31.2433 14.16 31.07 14.12C30.8967 14.0933 30.7167 14.0533 30.53 14C30.4233 13.6133 30.37 13.2533 30.37 12.92C30.37 12.5733 30.4233 12.22 30.53 11.86C30.7167 11.8067 30.8967 11.7667 31.07 11.74C31.2433 11.7 31.4233 11.68 31.61 11.68Z" fill="#0E0E43"/>
</svg>
