<svg width="29" height="24" viewBox="0 0 29 24" fill="none" xmlns="http://www.w3.org/2000/svg">
<path d="M23.6871 7.65637C23.3813 7.56145 23.0754 7.4718 22.7695 7.38743C22.8205 7.19231 22.8658 6.99719 22.9111 6.80207C23.6078 3.65911 23.149 1.13313 21.6027 0.299926C20.1131 -0.496363 17.6832 0.331567 15.225 2.32493C14.9814 2.52004 14.7436 2.72571 14.517 2.93137C14.3641 2.79426 14.2055 2.65715 14.0469 2.52532C11.4697 0.394848 8.88691 -0.501636 7.34063 0.336841C5.85664 1.1384 5.41484 3.51672 6.03789 6.49094C6.1002 6.78625 6.16816 7.07629 6.24746 7.37161C5.88496 7.46653 5.52812 7.572 5.19394 7.68274C2.16934 8.65832 0 10.1982 0 11.7907C0 13.4361 2.31094 15.0866 5.45449 16.0886C5.70938 16.1677 5.96426 16.2468 6.2248 16.3154C6.13984 16.6318 6.06621 16.9429 5.99824 17.2646C5.40352 20.1913 5.86797 22.5116 7.35195 23.3079C8.88125 24.1306 11.4527 23.2868 13.9562 21.246C14.1545 21.0825 14.3527 20.9138 14.551 20.7345C14.8002 20.9613 15.0607 21.1775 15.3213 21.3884C17.7455 23.329 20.1414 24.1148 21.6197 23.3185C23.149 22.4958 23.6475 20.0015 23.0018 16.964C22.9508 16.732 22.8941 16.4947 22.8318 16.2521C23.0131 16.2046 23.1887 16.1519 23.3643 16.0991C26.6324 15.0919 29 13.4624 29 11.7907C29 10.1929 26.7684 8.6425 23.6871 7.65637ZM16.0236 3.17922C18.1307 1.47063 20.0961 0.800903 20.991 1.28079C21.9482 1.79231 22.3164 3.8595 21.716 6.57532C21.6764 6.75461 21.6367 6.92864 21.5857 7.10266C20.3283 6.83899 19.0539 6.64915 17.7738 6.54368C17.0375 5.56282 16.2332 4.62415 15.3609 3.74348C15.5818 3.54836 15.7971 3.36379 16.0236 3.17922ZM9.47031 14.5277C9.75918 14.9864 10.0537 15.4452 10.3652 15.8935C9.48164 15.8038 8.60371 15.672 7.73711 15.498C7.98633 14.7386 8.29785 13.9529 8.66035 13.1513C8.9209 13.6154 9.18711 14.0741 9.47031 14.5277ZM7.7541 8.18371C8.56973 8.01496 9.43633 7.87785 10.3369 7.77239C10.0367 8.21008 9.74219 8.65832 9.46465 9.11184C9.18711 9.56008 8.91523 10.0189 8.66035 10.4829C8.30352 9.69719 8.00332 8.92727 7.7541 8.18371ZM9.30606 11.8171C9.67988 11.0894 10.0877 10.3775 10.5182 9.6761C10.9486 8.97473 11.4131 8.29446 11.9002 7.62473C12.7498 7.56672 13.6164 7.53508 14.5 7.53508C15.3836 7.53508 16.2559 7.56672 17.0998 7.62473C17.5812 8.28918 18.04 8.96946 18.4762 9.66555C18.9123 10.3616 19.3201 11.0736 19.7053 11.796C19.3258 12.5238 18.918 13.2409 18.4818 13.9476C18.0514 14.6489 17.5926 15.3292 17.1111 16.0042C16.2672 16.0622 15.3893 16.0886 14.5 16.0886C13.6107 16.0886 12.7498 16.0622 11.9172 16.0148C11.4244 15.345 10.96 14.6595 10.5238 13.9581C10.0877 13.2568 9.68555 12.5448 9.30606 11.8171ZM19.5354 14.5171C19.8242 14.053 20.0961 13.5837 20.3623 13.1091C20.7248 13.8738 21.042 14.6489 21.3195 15.4452C20.4416 15.6298 19.5523 15.7722 18.6574 15.8671C18.9633 15.4241 19.2521 14.9706 19.5354 14.5171ZM20.351 10.4829C20.0848 10.0189 19.8129 9.55481 19.5297 9.10129C19.2521 8.65305 18.9633 8.21008 18.6631 7.77239C19.575 7.87785 20.4473 8.02024 21.2629 8.19426C21.0023 8.97473 20.6965 9.73411 20.351 10.4829ZM14.5113 4.55032C15.1061 5.15149 15.6668 5.7843 16.1879 6.43821C15.0664 6.39075 13.9393 6.39075 12.8178 6.43821C13.3729 5.75793 13.9449 5.12512 14.5113 4.55032ZM7.94102 1.3177C8.89258 0.800903 11.0053 1.53918 13.2313 3.37434C13.3729 3.49036 13.5145 3.61692 13.6617 3.74348C12.7838 4.62415 11.9738 5.56282 11.2318 6.54368C9.95176 6.64915 8.68301 6.83371 7.42559 7.09211C7.35195 6.82317 7.28965 6.54895 7.22734 6.27473C6.69492 3.72239 7.04609 1.79758 7.94102 1.3177ZM6.55332 15.2185C6.31543 15.1552 6.0832 15.0866 5.85098 15.0128C4.64453 14.6595 3.27383 14.1005 2.28262 13.3675C1.71055 12.9984 1.32539 12.4288 1.21777 11.7907C1.21777 10.8257 3.00762 9.59172 5.59043 8.75325C5.91328 8.64778 6.2418 8.55286 6.57031 8.46321C6.95547 9.60754 7.41992 10.7308 7.95801 11.8171C7.41426 12.9193 6.94414 14.0583 6.55332 15.2185ZM13.1576 20.3864C12.223 21.1827 11.1412 21.8155 9.96309 22.248C9.33437 22.5275 8.60938 22.5538 7.96367 22.3165C7.06309 21.8314 6.68926 19.9698 7.19902 17.465C7.26133 17.1697 7.3293 16.8743 7.40859 16.5843C8.67734 16.8374 9.95742 17.0114 11.2545 17.1011C12.0021 18.0872 12.8234 19.0312 13.7014 19.9171C13.5201 20.0806 13.3389 20.2388 13.1576 20.3864ZM14.5453 19.105C13.9676 18.5249 13.3898 17.8816 12.8291 17.1907C13.3729 17.2118 13.9336 17.2224 14.5 17.2224C15.0834 17.2224 15.6555 17.2118 16.2219 17.1855C15.7008 17.8552 15.14 18.4933 14.5453 19.105ZM21.9482 20.687C21.8973 21.3304 21.5574 21.9316 21.0137 22.3376C20.1131 22.8228 18.193 22.19 16.1199 20.5341C15.882 20.3443 15.6441 20.1386 15.4006 19.9277C16.2672 19.0364 17.0658 18.0925 17.7908 17.1011C19.0879 17.0009 20.3793 16.8163 21.6537 16.5474C21.7104 16.7636 21.7613 16.9798 21.8066 17.1907C22.0842 18.3298 22.1295 19.5163 21.9482 20.687ZM22.9791 15.0181C22.8205 15.0655 22.6619 15.113 22.4977 15.1552C22.1012 14.0056 21.6141 12.8823 21.0533 11.7907C21.5971 10.715 22.0559 9.60754 22.441 8.47375C22.7355 8.55286 23.0188 8.63723 23.2906 8.72161C25.9301 9.56535 27.7822 10.8204 27.7822 11.7802C27.7822 12.8138 25.8055 14.148 22.9791 15.0181ZM14.5 14.2271C15.933 14.2271 17.0941 13.146 17.0941 11.8118C17.0941 10.4777 15.933 9.3966 14.5 9.3966C13.067 9.3966 11.9059 10.4777 11.9059 11.8118C11.9059 13.146 13.067 14.2271 14.5 14.2271Z" fill="black"/>
</svg>
