<svg width="306" height="277" viewBox="0 0 306 277" fill="none" xmlns="http://www.w3.org/2000/svg">
<rect x="0.5" y="0.5" width="305" height="276" rx="4.5" stroke="#F8FDFE"/>
<path d="M88.56 68.24C87.64 68.24 86.8733 68.0733 86.26 67.74C85.66 67.3933 85.2067 66.8933 84.9 66.24C84.5933 65.5733 84.44 64.7533 84.44 63.78V54.14H86.64V63.64C86.64 64.56 86.7933 65.24 87.1 65.68C87.4067 66.1067 87.8933 66.32 88.56 66.32C89.2267 66.32 89.7067 66.1067 90 65.68C90.3067 65.24 90.46 64.56 90.46 63.64V54.14H92.66V63.78C92.66 64.7533 92.5067 65.5733 92.2 66.24C91.8933 66.8933 91.4333 67.3933 90.82 67.74C90.22 68.0733 89.4667 68.24 88.56 68.24ZM94.3138 68C94.5404 67.3333 94.7938 66.6467 95.0738 65.94C95.3538 65.2333 95.6738 64.4667 96.0338 63.64C96.4071 62.8 96.8471 61.8533 97.3538 60.8L94.5138 54.14H96.8338L98.7938 59.3L100.734 54.14H102.994L100.174 60.72C100.654 61.7333 101.074 62.66 101.434 63.5C101.794 64.34 102.114 65.12 102.394 65.84C102.687 66.56 102.954 67.28 103.194 68H100.934C100.72 67.36 100.507 66.7533 100.294 66.18C100.08 65.6067 99.8471 65.02 99.5938 64.42C99.3404 63.82 99.0471 63.16 98.7138 62.44C98.4738 63 98.2404 63.5267 98.0138 64.02C97.8004 64.5 97.6071 64.96 97.4338 65.4C97.2604 65.8267 97.0938 66.26 96.9338 66.7C96.7871 67.1267 96.6471 67.56 96.5138 68H94.3138Z" fill="black"/>
<path d="M87.05 95.105C86.63 95.105 86.17 95.085 85.67 95.045C85.18 95.005 84.72 94.935 84.29 94.835V84.785C84.72 84.685 85.19 84.615 85.7 84.575C86.21 84.525 86.675 84.5 87.095 84.5C88.245 84.5 89.25 84.69 90.11 85.07C90.98 85.45 91.66 86.03 92.15 86.81C92.64 87.59 92.885 88.585 92.885 89.795C92.885 90.985 92.64 91.975 92.15 92.765C91.67 93.545 90.99 94.13 90.11 94.52C89.24 94.91 88.22 95.105 87.05 95.105ZM87.17 93.77C88.54 93.77 89.565 93.42 90.245 92.72C90.925 92.01 91.265 91.035 91.265 89.795C91.265 88.545 90.93 87.575 90.26 86.885C89.59 86.185 88.575 85.835 87.215 85.835C86.825 85.835 86.52 85.845 86.3 85.865C86.09 85.885 85.935 85.905 85.835 85.925V93.695C85.925 93.705 86.07 93.72 86.27 93.74C86.47 93.76 86.77 93.77 87.17 93.77ZM98.4623 95.18C97.5423 95.18 96.7873 95.005 96.1973 94.655C95.6173 94.295 95.1873 93.81 94.9073 93.2C94.6373 92.59 94.5023 91.895 94.5023 91.115C94.5023 90.195 94.6723 89.435 95.0123 88.835C95.3523 88.225 95.7923 87.77 96.3323 87.47C96.8823 87.16 97.4573 87.005 98.0573 87.005C98.7373 87.005 99.3223 87.15 99.8123 87.44C100.312 87.72 100.697 88.15 100.967 88.73C101.237 89.3 101.372 90.025 101.372 90.905C101.372 90.995 101.367 91.095 101.357 91.205C101.357 91.315 101.352 91.42 101.342 91.52H96.0323C96.0823 92.26 96.3123 92.84 96.7223 93.26C97.1423 93.67 97.7673 93.875 98.5973 93.875C99.0773 93.875 99.4873 93.83 99.8273 93.74C100.177 93.65 100.442 93.565 100.622 93.485L100.847 94.715C100.677 94.805 100.367 94.905 99.9173 95.015C99.4773 95.125 98.9923 95.18 98.4623 95.18ZM96.0623 90.395H99.9023C99.8923 89.975 99.8173 89.605 99.6773 89.285C99.5373 88.965 99.3323 88.715 99.0623 88.535C98.8023 88.355 98.4723 88.265 98.0723 88.265C97.6623 88.265 97.3123 88.365 97.0223 88.565C96.7323 88.765 96.5073 89.03 96.3473 89.36C96.1873 89.68 96.0923 90.025 96.0623 90.395ZM105.205 95.195C104.525 95.195 103.98 95.135 103.57 95.015C103.17 94.895 102.9 94.805 102.76 94.745L103.06 93.485C103.26 93.555 103.54 93.65 103.9 93.77C104.26 93.88 104.695 93.935 105.205 93.935C105.715 93.935 106.11 93.865 106.39 93.725C106.68 93.585 106.825 93.335 106.825 92.975C106.825 92.755 106.765 92.575 106.645 92.435C106.535 92.295 106.36 92.165 106.12 92.045C105.88 91.915 105.555 91.77 105.145 91.61C104.735 91.44 104.36 91.265 104.02 91.085C103.68 90.895 103.41 90.655 103.21 90.365C103.01 90.075 102.91 89.695 102.91 89.225C102.91 88.775 103.025 88.385 103.255 88.055C103.485 87.725 103.81 87.47 104.23 87.29C104.66 87.1 105.165 87.005 105.745 87.005C106.255 87.005 106.7 87.05 107.08 87.14C107.47 87.22 107.76 87.3 107.95 87.38L107.65 88.61C107.48 88.53 107.245 88.45 106.945 88.37C106.655 88.28 106.27 88.235 105.79 88.235C105.39 88.235 105.055 88.31 104.785 88.46C104.525 88.61 104.395 88.845 104.395 89.165C104.395 89.385 104.445 89.565 104.545 89.705C104.655 89.845 104.825 89.975 105.055 90.095C105.285 90.215 105.585 90.345 105.955 90.485C106.455 90.675 106.88 90.87 107.23 91.07C107.58 91.27 107.845 91.52 108.025 91.82C108.215 92.11 108.31 92.49 108.31 92.96C108.31 93.45 108.185 93.86 107.935 94.19C107.695 94.52 107.34 94.77 106.87 94.94C106.41 95.11 105.855 95.195 105.205 95.195ZM110.113 95V87.185H111.613V95H110.113ZM110.863 85.52C110.593 85.52 110.363 85.435 110.173 85.265C109.983 85.085 109.888 84.845 109.888 84.545C109.888 84.245 109.983 84.01 110.173 83.84C110.363 83.66 110.593 83.57 110.863 83.57C111.133 83.57 111.363 83.66 111.553 83.84C111.743 84.01 111.838 84.245 111.838 84.545C111.838 84.845 111.743 85.085 111.553 85.265C111.363 85.435 111.133 85.52 110.863 85.52ZM116.545 97.82C116.055 97.82 115.59 97.78 115.15 97.7C114.71 97.62 114.325 97.52 113.995 97.4L114.265 96.125C114.555 96.235 114.9 96.33 115.3 96.41C115.7 96.5 116.125 96.545 116.575 96.545C117.115 96.545 117.55 96.475 117.88 96.335C118.22 96.195 118.465 95.975 118.615 95.675C118.775 95.375 118.855 94.995 118.855 94.535V94.115C118.685 94.215 118.44 94.325 118.12 94.445C117.81 94.555 117.43 94.61 116.98 94.61C116.33 94.61 115.745 94.48 115.225 94.22C114.705 93.95 114.295 93.54 113.995 92.99C113.705 92.44 113.56 91.74 113.56 90.89C113.56 90.14 113.71 89.475 114.01 88.895C114.32 88.315 114.76 87.86 115.33 87.53C115.9 87.2 116.58 87.035 117.37 87.035C118.01 87.035 118.58 87.08 119.08 87.17C119.58 87.26 119.995 87.355 120.325 87.455V94.37C120.325 95.58 120.01 96.455 119.38 96.995C118.76 97.545 117.815 97.82 116.545 97.82ZM117.145 93.365C117.495 93.365 117.82 93.315 118.12 93.215C118.43 93.115 118.67 92.995 118.84 92.855V88.445C118.7 88.405 118.515 88.37 118.285 88.34C118.065 88.3 117.765 88.28 117.385 88.28C116.895 88.28 116.48 88.39 116.14 88.61C115.8 88.83 115.54 89.14 115.36 89.54C115.18 89.93 115.09 90.385 115.09 90.905C115.09 91.335 115.145 91.705 115.255 92.015C115.365 92.325 115.515 92.58 115.705 92.78C115.895 92.98 116.11 93.13 116.35 93.23C116.6 93.32 116.865 93.365 117.145 93.365ZM122.696 95V87.455C123.036 87.365 123.471 87.275 124.001 87.185C124.531 87.085 125.141 87.035 125.831 87.035C126.671 87.035 127.321 87.185 127.781 87.485C128.251 87.785 128.581 88.205 128.771 88.745C128.961 89.275 129.056 89.9 129.056 90.62V95H127.571V90.92C127.571 90.28 127.511 89.775 127.391 89.405C127.281 89.025 127.091 88.75 126.821 88.58C126.551 88.41 126.171 88.325 125.681 88.325C125.351 88.325 125.046 88.345 124.766 88.385C124.496 88.415 124.306 88.445 124.196 88.475V95H122.696ZM134.959 95V84.785C135.379 84.685 135.849 84.615 136.369 84.575C136.889 84.525 137.364 84.5 137.794 84.5C139.284 84.5 140.409 84.78 141.169 85.34C141.939 85.9 142.324 86.735 142.324 87.845C142.324 88.645 142.139 89.295 141.769 89.795C141.409 90.285 140.879 90.64 140.179 90.86C139.479 91.08 138.634 91.19 137.644 91.19H136.504V95H134.959ZM136.504 89.87H137.584C138.234 89.87 138.794 89.815 139.264 89.705C139.734 89.585 140.094 89.38 140.344 89.09C140.594 88.79 140.719 88.37 140.719 87.83C140.719 87.3 140.589 86.895 140.329 86.615C140.069 86.325 139.719 86.125 139.279 86.015C138.849 85.895 138.379 85.835 137.869 85.835C137.579 85.835 137.319 85.845 137.089 85.865C136.859 85.885 136.664 85.905 136.504 85.925V89.87ZM144.053 95V87.575C144.363 87.455 144.758 87.335 145.238 87.215C145.728 87.095 146.298 87.035 146.948 87.035C147.138 87.035 147.338 87.05 147.548 87.08C147.768 87.1 147.973 87.13 148.163 87.17C148.353 87.2 148.498 87.24 148.598 87.29L148.328 88.535C148.198 88.495 148.003 88.45 147.743 88.4C147.493 88.35 147.188 88.325 146.828 88.325C146.528 88.325 146.258 88.35 146.018 88.4C145.788 88.44 145.633 88.48 145.553 88.52V95H144.053ZM153.138 95.195C152.418 95.195 151.778 95.025 151.218 94.685C150.668 94.345 150.238 93.87 149.928 93.26C149.618 92.64 149.463 91.915 149.463 91.085C149.463 90.265 149.618 89.55 149.928 88.94C150.248 88.33 150.683 87.855 151.233 87.515C151.793 87.175 152.428 87.005 153.138 87.005C153.858 87.005 154.493 87.175 155.043 87.515C155.593 87.855 156.023 88.33 156.333 88.94C156.653 89.55 156.813 90.265 156.813 91.085C156.813 91.915 156.658 92.64 156.348 93.26C156.038 93.87 155.608 94.345 155.058 94.685C154.518 95.025 153.878 95.195 153.138 95.195ZM153.138 93.89C153.588 93.89 153.968 93.775 154.278 93.545C154.598 93.315 154.843 92.99 155.013 92.57C155.193 92.15 155.283 91.655 155.283 91.085C155.283 90.525 155.193 90.035 155.013 89.615C154.843 89.195 154.598 88.875 154.278 88.655C153.968 88.425 153.588 88.31 153.138 88.31C152.698 88.31 152.318 88.425 151.998 88.655C151.678 88.875 151.428 89.195 151.248 89.615C151.078 90.035 150.993 90.525 150.993 91.085C150.993 91.655 151.078 92.15 151.248 92.57C151.428 92.99 151.678 93.315 151.998 93.545C152.318 93.775 152.698 93.89 153.138 93.89ZM162.195 95.18C161.325 95.18 160.605 95.01 160.035 94.67C159.465 94.32 159.04 93.84 158.76 93.23C158.48 92.61 158.34 91.9 158.34 91.1C158.34 90.31 158.49 89.61 158.79 89C159.09 88.38 159.52 87.895 160.08 87.545C160.65 87.185 161.33 87.005 162.12 87.005C162.53 87.005 162.915 87.04 163.275 87.11C163.645 87.18 163.95 87.275 164.19 87.395L163.86 88.61C163.65 88.53 163.42 88.46 163.17 88.4C162.92 88.34 162.605 88.31 162.225 88.31C161.455 88.31 160.87 88.56 160.47 89.06C160.07 89.55 159.87 90.23 159.87 91.1C159.87 91.66 159.95 92.15 160.11 92.57C160.28 92.98 160.55 93.3 160.92 93.53C161.29 93.76 161.78 93.875 162.39 93.875C162.74 93.875 163.065 93.84 163.365 93.77C163.665 93.69 163.9 93.605 164.07 93.515L164.325 94.76C164.115 94.87 163.815 94.965 163.425 95.045C163.035 95.135 162.625 95.18 162.195 95.18ZM169.288 95.18C168.368 95.18 167.613 95.005 167.023 94.655C166.443 94.295 166.013 93.81 165.733 93.2C165.463 92.59 165.328 91.895 165.328 91.115C165.328 90.195 165.498 89.435 165.838 88.835C166.178 88.225 166.618 87.77 167.158 87.47C167.708 87.16 168.283 87.005 168.883 87.005C169.563 87.005 170.148 87.15 170.638 87.44C171.138 87.72 171.523 88.15 171.793 88.73C172.063 89.3 172.198 90.025 172.198 90.905C172.198 90.995 172.193 91.095 172.183 91.205C172.183 91.315 172.178 91.42 172.168 91.52H166.858C166.908 92.26 167.138 92.84 167.548 93.26C167.968 93.67 168.593 93.875 169.423 93.875C169.903 93.875 170.313 93.83 170.653 93.74C171.003 93.65 171.268 93.565 171.448 93.485L171.673 94.715C171.503 94.805 171.193 94.905 170.743 95.015C170.303 95.125 169.818 95.18 169.288 95.18ZM166.888 90.395H170.728C170.718 89.975 170.643 89.605 170.503 89.285C170.363 88.965 170.158 88.715 169.888 88.535C169.628 88.355 169.298 88.265 168.898 88.265C168.488 88.265 168.138 88.365 167.848 88.565C167.558 88.765 167.333 89.03 167.173 89.36C167.013 89.68 166.918 90.025 166.888 90.395ZM176.03 95.195C175.35 95.195 174.805 95.135 174.395 95.015C173.995 94.895 173.725 94.805 173.585 94.745L173.885 93.485C174.085 93.555 174.365 93.65 174.725 93.77C175.085 93.88 175.52 93.935 176.03 93.935C176.54 93.935 176.935 93.865 177.215 93.725C177.505 93.585 177.65 93.335 177.65 92.975C177.65 92.755 177.59 92.575 177.47 92.435C177.36 92.295 177.185 92.165 176.945 92.045C176.705 91.915 176.38 91.77 175.97 91.61C175.56 91.44 175.185 91.265 174.845 91.085C174.505 90.895 174.235 90.655 174.035 90.365C173.835 90.075 173.735 89.695 173.735 89.225C173.735 88.775 173.85 88.385 174.08 88.055C174.31 87.725 174.635 87.47 175.055 87.29C175.485 87.1 175.99 87.005 176.57 87.005C177.08 87.005 177.525 87.05 177.905 87.14C178.295 87.22 178.585 87.3 178.775 87.38L178.475 88.61C178.305 88.53 178.07 88.45 177.77 88.37C177.48 88.28 177.095 88.235 176.615 88.235C176.215 88.235 175.88 88.31 175.61 88.46C175.35 88.61 175.22 88.845 175.22 89.165C175.22 89.385 175.27 89.565 175.37 89.705C175.48 89.845 175.65 89.975 175.88 90.095C176.11 90.215 176.41 90.345 176.78 90.485C177.28 90.675 177.705 90.87 178.055 91.07C178.405 91.27 178.67 91.52 178.85 91.82C179.04 92.11 179.135 92.49 179.135 92.96C179.135 93.45 179.01 93.86 178.76 94.19C178.52 94.52 178.165 94.77 177.695 94.94C177.235 95.11 176.68 95.195 176.03 95.195ZM182.798 95.195C182.118 95.195 181.573 95.135 181.163 95.015C180.763 94.895 180.493 94.805 180.353 94.745L180.653 93.485C180.853 93.555 181.133 93.65 181.493 93.77C181.853 93.88 182.288 93.935 182.798 93.935C183.308 93.935 183.703 93.865 183.983 93.725C184.273 93.585 184.418 93.335 184.418 92.975C184.418 92.755 184.358 92.575 184.238 92.435C184.128 92.295 183.953 92.165 183.713 92.045C183.473 91.915 183.148 91.77 182.738 91.61C182.328 91.44 181.953 91.265 181.613 91.085C181.273 90.895 181.003 90.655 180.803 90.365C180.603 90.075 180.503 89.695 180.503 89.225C180.503 88.775 180.618 88.385 180.848 88.055C181.078 87.725 181.403 87.47 181.823 87.29C182.253 87.1 182.758 87.005 183.338 87.005C183.848 87.005 184.293 87.05 184.673 87.14C185.063 87.22 185.353 87.3 185.543 87.38L185.243 88.61C185.073 88.53 184.838 88.45 184.538 88.37C184.248 88.28 183.863 88.235 183.383 88.235C182.983 88.235 182.648 88.31 182.378 88.46C182.118 88.61 181.988 88.845 181.988 89.165C181.988 89.385 182.038 89.565 182.138 89.705C182.248 89.845 182.418 89.975 182.648 90.095C182.878 90.215 183.178 90.345 183.548 90.485C184.048 90.675 184.473 90.87 184.823 91.07C185.173 91.27 185.438 91.52 185.618 91.82C185.808 92.11 185.903 92.49 185.903 92.96C185.903 93.45 185.778 93.86 185.528 94.19C185.288 94.52 184.933 94.77 184.463 94.94C184.003 95.11 183.448 95.195 182.798 95.195ZM88.16 128.225C87.22 128.225 86.46 128.045 85.88 127.685C85.3 127.325 84.875 126.835 84.605 126.215C84.335 125.595 84.2 124.895 84.2 124.115V117.605H85.745V123.95C85.745 124.98 85.97 125.725 86.42 126.185C86.87 126.635 87.455 126.86 88.175 126.86C88.895 126.86 89.48 126.63 89.93 126.17C90.38 125.71 90.605 124.97 90.605 123.95V117.605H92.165V124.115C92.165 124.895 92.025 125.595 91.745 126.215C91.475 126.835 91.05 127.325 90.47 127.685C89.89 128.045 89.12 128.225 88.16 128.225ZM96.4161 128.195C95.7361 128.195 95.1911 128.135 94.7811 128.015C94.3811 127.895 94.1111 127.805 93.9711 127.745L94.2711 126.485C94.4711 126.555 94.7511 126.65 95.1111 126.77C95.4711 126.88 95.9061 126.935 96.4161 126.935C96.9261 126.935 97.3211 126.865 97.6011 126.725C97.8911 126.585 98.0361 126.335 98.0361 125.975C98.0361 125.755 97.9761 125.575 97.8561 125.435C97.7461 125.295 97.5711 125.165 97.3311 125.045C97.0911 124.915 96.7661 124.77 96.3561 124.61C95.9461 124.44 95.5711 124.265 95.2311 124.085C94.8911 123.895 94.6211 123.655 94.4211 123.365C94.2211 123.075 94.1211 122.695 94.1211 122.225C94.1211 121.775 94.2361 121.385 94.4661 121.055C94.6961 120.725 95.0211 120.47 95.4411 120.29C95.8711 120.1 96.3761 120.005 96.9561 120.005C97.4661 120.005 97.9111 120.05 98.2911 120.14C98.6811 120.22 98.9711 120.3 99.1611 120.38L98.8611 121.61C98.6911 121.53 98.4561 121.45 98.1561 121.37C97.8661 121.28 97.4811 121.235 97.0011 121.235C96.6011 121.235 96.2661 121.31 95.9961 121.46C95.7361 121.61 95.6061 121.845 95.6061 122.165C95.6061 122.385 95.6561 122.565 95.7561 122.705C95.8661 122.845 96.0361 122.975 96.2661 123.095C96.4961 123.215 96.7961 123.345 97.1661 123.485C97.6661 123.675 98.0911 123.87 98.4411 124.07C98.7911 124.27 99.0561 124.52 99.2361 124.82C99.4261 125.11 99.5211 125.49 99.5211 125.96C99.5211 126.45 99.3961 126.86 99.1461 127.19C98.9061 127.52 98.5511 127.77 98.0811 127.94C97.6211 128.11 97.0661 128.195 96.4161 128.195ZM104.864 128.18C103.944 128.18 103.189 128.005 102.599 127.655C102.019 127.295 101.589 126.81 101.309 126.2C101.039 125.59 100.904 124.895 100.904 124.115C100.904 123.195 101.074 122.435 101.414 121.835C101.754 121.225 102.194 120.77 102.734 120.47C103.284 120.16 103.859 120.005 104.459 120.005C105.139 120.005 105.724 120.15 106.214 120.44C106.714 120.72 107.099 121.15 107.369 121.73C107.639 122.3 107.774 123.025 107.774 123.905C107.774 123.995 107.769 124.095 107.759 124.205C107.759 124.315 107.754 124.42 107.744 124.52H102.434C102.484 125.26 102.714 125.84 103.124 126.26C103.544 126.67 104.169 126.875 104.999 126.875C105.479 126.875 105.889 126.83 106.229 126.74C106.579 126.65 106.844 126.565 107.024 126.485L107.249 127.715C107.079 127.805 106.769 127.905 106.319 128.015C105.879 128.125 105.394 128.18 104.864 128.18ZM102.464 123.395H106.304C106.294 122.975 106.219 122.605 106.079 122.285C105.939 121.965 105.734 121.715 105.464 121.535C105.204 121.355 104.874 121.265 104.474 121.265C104.064 121.265 103.714 121.365 103.424 121.565C103.134 121.765 102.909 122.03 102.749 122.36C102.589 122.68 102.494 123.025 102.464 123.395ZM109.747 128V120.575C110.057 120.455 110.452 120.335 110.932 120.215C111.422 120.095 111.992 120.035 112.642 120.035C112.832 120.035 113.032 120.05 113.242 120.08C113.462 120.1 113.667 120.13 113.857 120.17C114.047 120.2 114.192 120.24 114.292 120.29L114.022 121.535C113.892 121.495 113.697 121.45 113.437 121.4C113.187 121.35 112.882 121.325 112.522 121.325C112.222 121.325 111.952 121.35 111.712 121.4C111.482 121.44 111.327 121.48 111.247 121.52V128H109.747ZM119.241 128V117.785C119.661 117.685 120.126 117.615 120.636 117.575C121.146 117.525 121.611 117.5 122.031 117.5C123.501 117.5 124.621 117.775 125.391 118.325C126.161 118.875 126.546 119.7 126.546 120.8C126.546 121.55 126.356 122.155 125.976 122.615C125.606 123.075 125.091 123.415 124.431 123.635C124.611 123.865 124.821 124.145 125.061 124.475C125.301 124.805 125.546 125.17 125.796 125.57C126.056 125.96 126.306 126.365 126.546 126.785C126.786 127.205 126.996 127.61 127.176 128H125.466C125.206 127.5 124.916 127 124.596 126.5C124.286 125.99 123.976 125.515 123.666 125.075C123.366 124.625 123.091 124.245 122.841 123.935C122.741 123.935 122.641 123.94 122.541 123.95C122.451 123.96 122.356 123.965 122.256 123.965H120.786V128H119.241ZM120.786 122.705H121.896C122.516 122.705 123.051 122.66 123.501 122.57C123.961 122.47 124.316 122.28 124.566 122C124.816 121.72 124.941 121.315 124.941 120.785C124.941 120.275 124.816 119.88 124.566 119.6C124.326 119.32 123.991 119.125 123.561 119.015C123.141 118.895 122.671 118.835 122.151 118.835C121.861 118.835 121.601 118.845 121.371 118.865C121.141 118.885 120.946 118.905 120.786 118.925V122.705ZM132.095 128.18C131.175 128.18 130.42 128.005 129.83 127.655C129.25 127.295 128.82 126.81 128.54 126.2C128.27 125.59 128.135 124.895 128.135 124.115C128.135 123.195 128.305 122.435 128.645 121.835C128.985 121.225 129.425 120.77 129.965 120.47C130.515 120.16 131.09 120.005 131.69 120.005C132.37 120.005 132.955 120.15 133.445 120.44C133.945 120.72 134.33 121.15 134.6 121.73C134.87 122.3 135.005 123.025 135.005 123.905C135.005 123.995 135 124.095 134.99 124.205C134.99 124.315 134.985 124.42 134.975 124.52H129.665C129.715 125.26 129.945 125.84 130.355 126.26C130.775 126.67 131.4 126.875 132.23 126.875C132.71 126.875 133.12 126.83 133.46 126.74C133.81 126.65 134.075 126.565 134.255 126.485L134.48 127.715C134.31 127.805 134 127.905 133.55 128.015C133.11 128.125 132.625 128.18 132.095 128.18ZM129.695 123.395H133.535C133.525 122.975 133.45 122.605 133.31 122.285C133.17 121.965 132.965 121.715 132.695 121.535C132.435 121.355 132.105 121.265 131.705 121.265C131.295 121.265 130.945 121.365 130.655 121.565C130.365 121.765 130.14 122.03 129.98 122.36C129.82 122.68 129.725 123.025 129.695 123.395ZM138.838 128.195C138.158 128.195 137.613 128.135 137.203 128.015C136.803 127.895 136.533 127.805 136.393 127.745L136.693 126.485C136.893 126.555 137.173 126.65 137.533 126.77C137.893 126.88 138.328 126.935 138.838 126.935C139.348 126.935 139.743 126.865 140.023 126.725C140.313 126.585 140.458 126.335 140.458 125.975C140.458 125.755 140.398 125.575 140.278 125.435C140.168 125.295 139.993 125.165 139.753 125.045C139.513 124.915 139.188 124.77 138.778 124.61C138.368 124.44 137.993 124.265 137.653 124.085C137.313 123.895 137.043 123.655 136.843 123.365C136.643 123.075 136.543 122.695 136.543 122.225C136.543 121.775 136.658 121.385 136.888 121.055C137.118 120.725 137.443 120.47 137.863 120.29C138.293 120.1 138.798 120.005 139.378 120.005C139.888 120.005 140.333 120.05 140.713 120.14C141.103 120.22 141.393 120.3 141.583 120.38L141.283 121.61C141.113 121.53 140.878 121.45 140.578 121.37C140.288 121.28 139.903 121.235 139.423 121.235C139.023 121.235 138.688 121.31 138.418 121.46C138.158 121.61 138.028 121.845 138.028 122.165C138.028 122.385 138.078 122.565 138.178 122.705C138.288 122.845 138.458 122.975 138.688 123.095C138.918 123.215 139.218 123.345 139.588 123.485C140.088 123.675 140.513 123.87 140.863 124.07C141.213 124.27 141.478 124.52 141.658 124.82C141.848 125.11 141.943 125.49 141.943 125.96C141.943 126.45 141.818 126.86 141.568 127.19C141.328 127.52 140.973 127.77 140.503 127.94C140.043 128.11 139.488 128.195 138.838 128.195ZM147.286 128.18C146.366 128.18 145.611 128.005 145.021 127.655C144.441 127.295 144.011 126.81 143.731 126.2C143.461 125.59 143.326 124.895 143.326 124.115C143.326 123.195 143.496 122.435 143.836 121.835C144.176 121.225 144.616 120.77 145.156 120.47C145.706 120.16 146.281 120.005 146.881 120.005C147.561 120.005 148.146 120.15 148.636 120.44C149.136 120.72 149.521 121.15 149.791 121.73C150.061 122.3 150.196 123.025 150.196 123.905C150.196 123.995 150.191 124.095 150.181 124.205C150.181 124.315 150.176 124.42 150.166 124.52H144.856C144.906 125.26 145.136 125.84 145.546 126.26C145.966 126.67 146.591 126.875 147.421 126.875C147.901 126.875 148.311 126.83 148.651 126.74C149.001 126.65 149.266 126.565 149.446 126.485L149.671 127.715C149.501 127.805 149.191 127.905 148.741 128.015C148.301 128.125 147.816 128.18 147.286 128.18ZM144.886 123.395H148.726C148.716 122.975 148.641 122.605 148.501 122.285C148.361 121.965 148.156 121.715 147.886 121.535C147.626 121.355 147.296 121.265 146.896 121.265C146.486 121.265 146.136 121.365 145.846 121.565C145.556 121.765 145.331 122.03 145.171 122.36C145.011 122.68 144.916 123.025 144.886 123.395ZM154.703 128.165C154.103 128.165 153.568 128.085 153.098 127.925C152.638 127.765 152.278 127.5 152.018 127.13C151.758 126.76 151.628 126.275 151.628 125.675C151.628 125.085 151.773 124.615 152.063 124.265C152.353 123.905 152.748 123.645 153.248 123.485C153.748 123.325 154.303 123.245 154.913 123.245C155.193 123.245 155.473 123.265 155.753 123.305C156.043 123.345 156.233 123.385 156.323 123.425V123.065C156.323 122.745 156.278 122.45 156.188 122.18C156.098 121.91 155.928 121.69 155.678 121.52C155.438 121.35 155.078 121.265 154.598 121.265C154.098 121.265 153.688 121.3 153.368 121.37C153.058 121.44 152.813 121.51 152.633 121.58L152.438 120.35C152.638 120.27 152.943 120.195 153.353 120.125C153.763 120.045 154.223 120.005 154.733 120.005C155.493 120.005 156.093 120.13 156.533 120.38C156.983 120.63 157.303 120.985 157.493 121.445C157.683 121.895 157.778 122.415 157.778 123.005V127.805C157.528 127.865 157.128 127.94 156.578 128.03C156.028 128.12 155.403 128.165 154.703 128.165ZM154.853 126.95C155.163 126.95 155.443 126.94 155.693 126.92C155.953 126.9 156.163 126.875 156.323 126.845V124.535C156.233 124.495 156.078 124.455 155.858 124.415C155.638 124.375 155.373 124.355 155.063 124.355C154.753 124.355 154.448 124.39 154.148 124.46C153.858 124.52 153.613 124.64 153.413 124.82C153.223 125 153.128 125.275 153.128 125.645C153.128 126.135 153.283 126.475 153.593 126.665C153.903 126.855 154.323 126.95 154.853 126.95ZM160.079 128V120.575C160.389 120.455 160.784 120.335 161.264 120.215C161.754 120.095 162.324 120.035 162.974 120.035C163.164 120.035 163.364 120.05 163.574 120.08C163.794 120.1 163.999 120.13 164.189 120.17C164.379 120.2 164.524 120.24 164.624 120.29L164.354 121.535C164.224 121.495 164.029 121.45 163.769 121.4C163.519 121.35 163.214 121.325 162.854 121.325C162.554 121.325 162.284 121.35 162.044 121.4C161.814 121.44 161.659 121.48 161.579 121.52V128H160.079ZM169.344 128.18C168.474 128.18 167.754 128.01 167.184 127.67C166.614 127.32 166.189 126.84 165.909 126.23C165.629 125.61 165.489 124.9 165.489 124.1C165.489 123.31 165.639 122.61 165.939 122C166.239 121.38 166.669 120.895 167.229 120.545C167.799 120.185 168.479 120.005 169.269 120.005C169.679 120.005 170.064 120.04 170.424 120.11C170.794 120.18 171.099 120.275 171.339 120.395L171.009 121.61C170.799 121.53 170.569 121.46 170.319 121.4C170.069 121.34 169.754 121.31 169.374 121.31C168.604 121.31 168.019 121.56 167.619 122.06C167.219 122.55 167.019 123.23 167.019 124.1C167.019 124.66 167.099 125.15 167.259 125.57C167.429 125.98 167.699 126.3 168.069 126.53C168.439 126.76 168.929 126.875 169.539 126.875C169.889 126.875 170.214 126.84 170.514 126.77C170.814 126.69 171.049 126.605 171.219 126.515L171.474 127.76C171.264 127.87 170.964 127.965 170.574 128.045C170.184 128.135 169.774 128.18 169.344 128.18ZM173.042 128V116.615L174.542 116.36V120.335C174.782 120.245 175.047 120.175 175.337 120.125C175.637 120.065 175.927 120.035 176.207 120.035C177.037 120.035 177.682 120.185 178.142 120.485C178.602 120.785 178.927 121.205 179.117 121.745C179.307 122.275 179.402 122.9 179.402 123.62V128H177.917V123.92C177.917 123.28 177.857 122.775 177.737 122.405C177.627 122.025 177.437 121.75 177.167 121.58C176.897 121.41 176.517 121.325 176.027 121.325C175.847 121.325 175.652 121.345 175.442 121.385C175.242 121.415 175.057 121.45 174.887 121.49C174.727 121.53 174.612 121.565 174.542 121.595V128H173.042ZM88.775 161.21C87.815 161.21 86.965 161 86.225 160.58C85.485 160.15 84.905 159.535 84.485 158.735C84.065 157.925 83.855 156.945 83.855 155.795C83.855 154.635 84.08 153.655 84.53 152.855C84.99 152.045 85.6 151.43 86.36 151.01C87.12 150.59 87.96 150.38 88.88 150.38C89.45 150.38 89.945 150.425 90.365 150.515C90.795 150.595 91.15 150.695 91.43 150.815C91.72 150.925 91.925 151.025 92.045 151.115L91.58 152.39C91.29 152.2 90.915 152.045 90.455 151.925C89.995 151.795 89.5 151.73 88.97 151.73C88.27 151.73 87.655 151.89 87.125 152.21C86.605 152.52 86.2 152.975 85.91 153.575C85.62 154.175 85.475 154.915 85.475 155.795C85.475 156.615 85.605 157.33 85.865 157.94C86.125 158.55 86.51 159.025 87.02 159.365C87.54 159.705 88.18 159.875 88.94 159.875C89.35 159.875 89.695 159.855 89.975 159.815C90.255 159.765 90.455 159.725 90.575 159.695V155.855H92.135V160.7C91.915 160.79 91.51 160.895 90.92 161.015C90.34 161.145 89.625 161.21 88.775 161.21ZM96.8567 161.165C96.2567 161.165 95.7217 161.085 95.2517 160.925C94.7917 160.765 94.4317 160.5 94.1717 160.13C93.9117 159.76 93.7817 159.275 93.7817 158.675C93.7817 158.085 93.9267 157.615 94.2167 157.265C94.5067 156.905 94.9017 156.645 95.4017 156.485C95.9017 156.325 96.4567 156.245 97.0667 156.245C97.3467 156.245 97.6267 156.265 97.9067 156.305C98.1967 156.345 98.3867 156.385 98.4767 156.425V156.065C98.4767 155.745 98.4317 155.45 98.3417 155.18C98.2517 154.91 98.0817 154.69 97.8317 154.52C97.5917 154.35 97.2317 154.265 96.7517 154.265C96.2517 154.265 95.8417 154.3 95.5217 154.37C95.2117 154.44 94.9667 154.51 94.7867 154.58L94.5917 153.35C94.7917 153.27 95.0967 153.195 95.5067 153.125C95.9167 153.045 96.3767 153.005 96.8867 153.005C97.6467 153.005 98.2467 153.13 98.6867 153.38C99.1367 153.63 99.4567 153.985 99.6467 154.445C99.8367 154.895 99.9317 155.415 99.9317 156.005V160.805C99.6817 160.865 99.2817 160.94 98.7317 161.03C98.1817 161.12 97.5567 161.165 96.8567 161.165ZM97.0067 159.95C97.3167 159.95 97.5967 159.94 97.8467 159.92C98.1067 159.9 98.3167 159.875 98.4767 159.845V157.535C98.3867 157.495 98.2317 157.455 98.0117 157.415C97.7917 157.375 97.5267 157.355 97.2167 157.355C96.9067 157.355 96.6017 157.39 96.3017 157.46C96.0117 157.52 95.7667 157.64 95.5667 157.82C95.3767 158 95.2817 158.275 95.2817 158.645C95.2817 159.135 95.4367 159.475 95.7467 159.665C96.0567 159.855 96.4767 159.95 97.0067 159.95ZM102.232 161V153.455C102.572 153.365 103.002 153.275 103.522 153.185C104.042 153.085 104.632 153.035 105.292 153.035C105.822 153.035 106.262 153.105 106.612 153.245C106.972 153.385 107.262 153.58 107.482 153.83C107.612 153.74 107.797 153.63 108.037 153.5C108.277 153.37 108.557 153.26 108.877 153.17C109.207 153.08 109.562 153.035 109.942 153.035C110.752 153.035 111.367 153.19 111.787 153.5C112.217 153.8 112.507 154.22 112.657 154.76C112.807 155.29 112.882 155.91 112.882 156.62V161H111.397V156.92C111.397 156.32 111.352 155.83 111.262 155.45C111.172 155.06 111.012 154.775 110.782 154.595C110.552 154.415 110.217 154.325 109.777 154.325C109.497 154.325 109.242 154.36 109.012 154.43C108.792 154.49 108.602 154.565 108.442 154.655C108.282 154.745 108.157 154.82 108.067 154.88C108.147 155.12 108.207 155.39 108.247 155.69C108.287 155.99 108.307 156.305 108.307 156.635V161H106.822V156.92C106.822 156.32 106.777 155.83 106.687 155.45C106.597 155.06 106.432 154.775 106.192 154.595C105.962 154.415 105.617 154.325 105.157 154.325C104.937 154.325 104.732 154.335 104.542 154.355C104.352 154.365 104.187 154.385 104.047 154.415C103.907 154.435 103.802 154.455 103.732 154.475V161H102.232ZM115.181 161V153.185H116.681V161H115.181ZM115.931 151.52C115.661 151.52 115.431 151.435 115.241 151.265C115.051 151.085 114.956 150.845 114.956 150.545C114.956 150.245 115.051 150.01 115.241 149.84C115.431 149.66 115.661 149.57 115.931 149.57C116.201 149.57 116.431 149.66 116.621 149.84C116.811 150.01 116.906 150.245 116.906 150.545C116.906 150.845 116.811 151.085 116.621 151.265C116.431 151.435 116.201 151.52 115.931 151.52ZM119.048 161V152.525C119.048 151.505 119.303 150.725 119.813 150.185C120.333 149.635 121.108 149.36 122.138 149.36C122.558 149.36 122.898 149.395 123.158 149.465C123.428 149.525 123.628 149.585 123.758 149.645L123.488 150.86C123.368 150.8 123.203 150.75 122.993 150.71C122.783 150.67 122.538 150.65 122.258 150.65C121.628 150.65 121.183 150.81 120.923 151.13C120.673 151.45 120.548 151.925 120.548 152.555V153.185H123.518V154.43H120.548V161H119.048ZM124.958 161V153.185H126.443V161H124.958ZM125.693 151.52C125.423 151.52 125.193 151.435 125.003 151.265C124.813 151.085 124.718 150.845 124.718 150.545C124.718 150.245 124.813 150.01 125.003 149.84C125.193 149.66 125.423 149.57 125.693 149.57C125.953 149.57 126.178 149.66 126.368 149.84C126.568 150.01 126.668 150.245 126.668 150.545C126.668 150.845 126.568 151.085 126.368 151.265C126.178 151.435 125.953 151.52 125.693 151.52ZM132.254 161.18C131.384 161.18 130.664 161.01 130.094 160.67C129.524 160.32 129.099 159.84 128.819 159.23C128.539 158.61 128.399 157.9 128.399 157.1C128.399 156.31 128.549 155.61 128.849 155C129.149 154.38 129.579 153.895 130.139 153.545C130.709 153.185 131.389 153.005 132.179 153.005C132.589 153.005 132.974 153.04 133.334 153.11C133.704 153.18 134.009 153.275 134.249 153.395L133.919 154.61C133.709 154.53 133.479 154.46 133.229 154.4C132.979 154.34 132.664 154.31 132.284 154.31C131.514 154.31 130.929 154.56 130.529 155.06C130.129 155.55 129.929 156.23 129.929 157.1C129.929 157.66 130.009 158.15 130.169 158.57C130.339 158.98 130.609 159.3 130.979 159.53C131.349 159.76 131.839 159.875 132.449 159.875C132.799 159.875 133.124 159.84 133.424 159.77C133.724 159.69 133.959 159.605 134.129 159.515L134.384 160.76C134.174 160.87 133.874 160.965 133.484 161.045C133.094 161.135 132.684 161.18 132.254 161.18ZM138.341 161.165C137.741 161.165 137.206 161.085 136.736 160.925C136.276 160.765 135.916 160.5 135.656 160.13C135.396 159.76 135.266 159.275 135.266 158.675C135.266 158.085 135.411 157.615 135.701 157.265C135.991 156.905 136.386 156.645 136.886 156.485C137.386 156.325 137.941 156.245 138.551 156.245C138.831 156.245 139.111 156.265 139.391 156.305C139.681 156.345 139.871 156.385 139.961 156.425V156.065C139.961 155.745 139.916 155.45 139.826 155.18C139.736 154.91 139.566 154.69 139.316 154.52C139.076 154.35 138.716 154.265 138.236 154.265C137.736 154.265 137.326 154.3 137.006 154.37C136.696 154.44 136.451 154.51 136.271 154.58L136.076 153.35C136.276 153.27 136.581 153.195 136.991 153.125C137.401 153.045 137.861 153.005 138.371 153.005C139.131 153.005 139.731 153.13 140.171 153.38C140.621 153.63 140.941 153.985 141.131 154.445C141.321 154.895 141.416 155.415 141.416 156.005V160.805C141.166 160.865 140.766 160.94 140.216 161.03C139.666 161.12 139.041 161.165 138.341 161.165ZM138.491 159.95C138.801 159.95 139.081 159.94 139.331 159.92C139.591 159.9 139.801 159.875 139.961 159.845V157.535C139.871 157.495 139.716 157.455 139.496 157.415C139.276 157.375 139.011 157.355 138.701 157.355C138.391 157.355 138.086 157.39 137.786 157.46C137.496 157.52 137.251 157.64 137.051 157.82C136.861 158 136.766 158.275 136.766 158.645C136.766 159.135 136.921 159.475 137.231 159.665C137.541 159.855 137.961 159.95 138.491 159.95ZM146.431 161.165C145.721 161.165 145.161 161.045 144.751 160.805C144.351 160.555 144.066 160.19 143.896 159.71C143.736 159.23 143.656 158.65 143.656 157.97V151.04L145.141 150.785V153.185H148.066V154.43H145.141V158.015C145.141 158.485 145.196 158.86 145.306 159.14C145.416 159.41 145.576 159.6 145.786 159.71C146.006 159.82 146.276 159.875 146.596 159.875C146.936 159.875 147.231 159.84 147.481 159.77C147.741 159.69 147.956 159.615 148.126 159.545L148.381 160.73C148.191 160.82 147.926 160.915 147.586 161.015C147.246 161.115 146.861 161.165 146.431 161.165ZM149.869 161V153.185H151.369V161H149.869ZM150.619 151.52C150.349 151.52 150.119 151.435 149.929 151.265C149.739 151.085 149.644 150.845 149.644 150.545C149.644 150.245 149.739 150.01 149.929 149.84C150.119 149.66 150.349 149.57 150.619 149.57C150.889 149.57 151.119 149.66 151.309 149.84C151.499 150.01 151.594 150.245 151.594 150.545C151.594 150.845 151.499 151.085 151.309 151.265C151.119 151.435 150.889 151.52 150.619 151.52ZM156.991 161.195C156.271 161.195 155.631 161.025 155.071 160.685C154.521 160.345 154.091 159.87 153.781 159.26C153.471 158.64 153.316 157.915 153.316 157.085C153.316 156.265 153.471 155.55 153.781 154.94C154.101 154.33 154.536 153.855 155.086 153.515C155.646 153.175 156.281 153.005 156.991 153.005C157.711 153.005 158.346 153.175 158.896 153.515C159.446 153.855 159.876 154.33 160.186 154.94C160.506 155.55 160.666 156.265 160.666 157.085C160.666 157.915 160.511 158.64 160.201 159.26C159.891 159.87 159.461 160.345 158.911 160.685C158.371 161.025 157.731 161.195 156.991 161.195ZM156.991 159.89C157.441 159.89 157.821 159.775 158.131 159.545C158.451 159.315 158.696 158.99 158.866 158.57C159.046 158.15 159.136 157.655 159.136 157.085C159.136 156.525 159.046 156.035 158.866 155.615C158.696 155.195 158.451 154.875 158.131 154.655C157.821 154.425 157.441 154.31 156.991 154.31C156.551 154.31 156.171 154.425 155.851 154.655C155.531 154.875 155.281 155.195 155.101 155.615C154.931 156.035 154.846 156.525 154.846 157.085C154.846 157.655 154.931 158.15 155.101 158.57C155.281 158.99 155.531 159.315 155.851 159.545C156.171 159.775 156.551 159.89 156.991 159.89ZM162.613 161V153.455C162.953 153.365 163.388 153.275 163.918 153.185C164.448 153.085 165.058 153.035 165.748 153.035C166.588 153.035 167.238 153.185 167.698 153.485C168.168 153.785 168.498 154.205 168.688 154.745C168.878 155.275 168.973 155.9 168.973 156.62V161H167.488V156.92C167.488 156.28 167.428 155.775 167.308 155.405C167.198 155.025 167.008 154.75 166.738 154.58C166.468 154.41 166.088 154.325 165.598 154.325C165.268 154.325 164.963 154.345 164.683 154.385C164.413 154.415 164.223 154.445 164.113 154.475V161H162.613ZM83.15 194C83.68 192.54 84.17 191.21 84.62 190.01C85.08 188.81 85.525 187.69 85.955 186.65C86.395 185.61 86.855 184.595 87.335 183.605H88.76C89.12 184.355 89.465 185.115 89.795 185.885C90.125 186.655 90.455 187.455 90.785 188.285C91.115 189.115 91.455 190 91.805 190.94C92.165 191.88 92.545 192.9 92.945 194H91.265C91.115 193.55 90.96 193.11 90.8 192.68C90.64 192.24 90.49 191.81 90.35 191.39H85.685C85.535 191.81 85.38 192.24 85.22 192.68C85.06 193.11 84.905 193.55 84.755 194H83.15ZM86.09 190.13H89.93C89.75 189.64 89.575 189.17 89.405 188.72C89.235 188.27 89.07 187.845 88.91 187.445C88.75 187.035 88.59 186.65 88.43 186.29C88.28 185.92 88.135 185.575 87.995 185.255C87.865 185.575 87.725 185.92 87.575 186.29C87.425 186.65 87.27 187.035 87.11 187.445C86.95 187.845 86.785 188.27 86.615 188.72C86.445 189.17 86.27 189.64 86.09 190.13ZM97.6542 194.18C96.7842 194.18 96.0642 194.01 95.4942 193.67C94.9242 193.32 94.4992 192.84 94.2192 192.23C93.9392 191.61 93.7992 190.9 93.7992 190.1C93.7992 189.31 93.9492 188.61 94.2492 188C94.5492 187.38 94.9792 186.895 95.5392 186.545C96.1092 186.185 96.7892 186.005 97.5792 186.005C97.9892 186.005 98.3742 186.04 98.7342 186.11C99.1042 186.18 99.4092 186.275 99.6492 186.395L99.3192 187.61C99.1092 187.53 98.8792 187.46 98.6292 187.4C98.3792 187.34 98.0642 187.31 97.6842 187.31C96.9142 187.31 96.3292 187.56 95.9292 188.06C95.5292 188.55 95.3292 189.23 95.3292 190.1C95.3292 190.66 95.4092 191.15 95.5692 191.57C95.7392 191.98 96.0092 192.3 96.3792 192.53C96.7492 192.76 97.2392 192.875 97.8492 192.875C98.1992 192.875 98.5242 192.84 98.8242 192.77C99.1242 192.69 99.3592 192.605 99.5292 192.515L99.7842 193.76C99.5742 193.87 99.2742 193.965 98.8842 194.045C98.4942 194.135 98.0842 194.18 97.6542 194.18ZM104.641 194.18C103.771 194.18 103.051 194.01 102.481 193.67C101.911 193.32 101.486 192.84 101.206 192.23C100.926 191.61 100.786 190.9 100.786 190.1C100.786 189.31 100.936 188.61 101.236 188C101.536 187.38 101.966 186.895 102.526 186.545C103.096 186.185 103.776 186.005 104.566 186.005C104.976 186.005 105.361 186.04 105.721 186.11C106.091 186.18 106.396 186.275 106.636 186.395L106.306 187.61C106.096 187.53 105.866 187.46 105.616 187.4C105.366 187.34 105.051 187.31 104.671 187.31C103.901 187.31 103.316 187.56 102.916 188.06C102.516 188.55 102.316 189.23 102.316 190.1C102.316 190.66 102.396 191.15 102.556 191.57C102.726 191.98 102.996 192.3 103.366 192.53C103.736 192.76 104.226 192.875 104.836 192.875C105.186 192.875 105.511 192.84 105.811 192.77C106.111 192.69 106.346 192.605 106.516 192.515L106.771 193.76C106.561 193.87 106.261 193.965 105.871 194.045C105.481 194.135 105.071 194.18 104.641 194.18ZM111.734 194.18C110.814 194.18 110.059 194.005 109.469 193.655C108.889 193.295 108.459 192.81 108.179 192.2C107.909 191.59 107.774 190.895 107.774 190.115C107.774 189.195 107.944 188.435 108.284 187.835C108.624 187.225 109.064 186.77 109.604 186.47C110.154 186.16 110.729 186.005 111.329 186.005C112.009 186.005 112.594 186.15 113.084 186.44C113.584 186.72 113.969 187.15 114.239 187.73C114.509 188.3 114.644 189.025 114.644 189.905C114.644 189.995 114.639 190.095 114.629 190.205C114.629 190.315 114.624 190.42 114.614 190.52H109.304C109.354 191.26 109.584 191.84 109.994 192.26C110.414 192.67 111.039 192.875 111.869 192.875C112.349 192.875 112.759 192.83 113.099 192.74C113.449 192.65 113.714 192.565 113.894 192.485L114.119 193.715C113.949 193.805 113.639 193.905 113.189 194.015C112.749 194.125 112.264 194.18 111.734 194.18ZM109.334 189.395H113.174C113.164 188.975 113.089 188.605 112.949 188.285C112.809 187.965 112.604 187.715 112.334 187.535C112.074 187.355 111.744 187.265 111.344 187.265C110.934 187.265 110.584 187.365 110.294 187.565C110.004 187.765 109.779 188.03 109.619 188.36C109.459 188.68 109.364 189.025 109.334 189.395ZM118.477 194.195C117.797 194.195 117.252 194.135 116.842 194.015C116.442 193.895 116.172 193.805 116.032 193.745L116.332 192.485C116.532 192.555 116.812 192.65 117.172 192.77C117.532 192.88 117.967 192.935 118.477 192.935C118.987 192.935 119.382 192.865 119.662 192.725C119.952 192.585 120.097 192.335 120.097 191.975C120.097 191.755 120.037 191.575 119.917 191.435C119.807 191.295 119.632 191.165 119.392 191.045C119.152 190.915 118.827 190.77 118.417 190.61C118.007 190.44 117.632 190.265 117.292 190.085C116.952 189.895 116.682 189.655 116.482 189.365C116.282 189.075 116.182 188.695 116.182 188.225C116.182 187.775 116.297 187.385 116.527 187.055C116.757 186.725 117.082 186.47 117.502 186.29C117.932 186.1 118.437 186.005 119.017 186.005C119.527 186.005 119.972 186.05 120.352 186.14C120.742 186.22 121.032 186.3 121.222 186.38L120.922 187.61C120.752 187.53 120.517 187.45 120.217 187.37C119.927 187.28 119.542 187.235 119.062 187.235C118.662 187.235 118.327 187.31 118.057 187.46C117.797 187.61 117.667 187.845 117.667 188.165C117.667 188.385 117.717 188.565 117.817 188.705C117.927 188.845 118.097 188.975 118.327 189.095C118.557 189.215 118.857 189.345 119.227 189.485C119.727 189.675 120.152 189.87 120.502 190.07C120.852 190.27 121.117 190.52 121.297 190.82C121.487 191.11 121.582 191.49 121.582 191.96C121.582 192.45 121.457 192.86 121.207 193.19C120.967 193.52 120.612 193.77 120.142 193.94C119.682 194.11 119.127 194.195 118.477 194.195ZM125.244 194.195C124.564 194.195 124.019 194.135 123.609 194.015C123.209 193.895 122.939 193.805 122.799 193.745L123.099 192.485C123.299 192.555 123.579 192.65 123.939 192.77C124.299 192.88 124.734 192.935 125.244 192.935C125.754 192.935 126.149 192.865 126.429 192.725C126.719 192.585 126.864 192.335 126.864 191.975C126.864 191.755 126.804 191.575 126.684 191.435C126.574 191.295 126.399 191.165 126.159 191.045C125.919 190.915 125.594 190.77 125.184 190.61C124.774 190.44 124.399 190.265 124.059 190.085C123.719 189.895 123.449 189.655 123.249 189.365C123.049 189.075 122.949 188.695 122.949 188.225C122.949 187.775 123.064 187.385 123.294 187.055C123.524 186.725 123.849 186.47 124.269 186.29C124.699 186.1 125.204 186.005 125.784 186.005C126.294 186.005 126.739 186.05 127.119 186.14C127.509 186.22 127.799 186.3 127.989 186.38L127.689 187.61C127.519 187.53 127.284 187.45 126.984 187.37C126.694 187.28 126.309 187.235 125.829 187.235C125.429 187.235 125.094 187.31 124.824 187.46C124.564 187.61 124.434 187.845 124.434 188.165C124.434 188.385 124.484 188.565 124.584 188.705C124.694 188.845 124.864 188.975 125.094 189.095C125.324 189.215 125.624 189.345 125.994 189.485C126.494 189.675 126.919 189.87 127.269 190.07C127.619 190.27 127.884 190.52 128.064 190.82C128.254 191.11 128.349 191.49 128.349 191.96C128.349 192.45 128.224 192.86 127.974 193.19C127.734 193.52 127.379 193.77 126.909 193.94C126.449 194.11 125.894 194.195 125.244 194.195ZM130.152 194V186.185H131.652V194H130.152ZM130.902 184.52C130.632 184.52 130.402 184.435 130.212 184.265C130.022 184.085 129.927 183.845 129.927 183.545C129.927 183.245 130.022 183.01 130.212 182.84C130.402 182.66 130.632 182.57 130.902 182.57C131.172 182.57 131.402 182.66 131.592 182.84C131.782 183.01 131.877 183.245 131.877 183.545C131.877 183.845 131.782 184.085 131.592 184.265C131.402 184.435 131.172 184.52 130.902 184.52ZM137.004 194.18C136.594 194.18 136.204 194.16 135.834 194.12C135.464 194.08 135.124 194.025 134.814 193.955C134.514 193.885 134.249 193.82 134.019 193.76V182.615L135.519 182.36V186.545C135.719 186.425 135.984 186.31 136.314 186.2C136.654 186.08 137.034 186.02 137.454 186.02C138.204 186.02 138.834 186.195 139.344 186.545C139.864 186.885 140.259 187.36 140.529 187.97C140.809 188.58 140.949 189.29 140.949 190.1C140.949 190.94 140.784 191.665 140.454 192.275C140.134 192.885 139.679 193.355 139.089 193.685C138.509 194.015 137.814 194.18 137.004 194.18ZM136.989 192.89C137.489 192.89 137.919 192.78 138.279 192.56C138.639 192.33 138.914 192.005 139.104 191.585C139.304 191.165 139.404 190.66 139.404 190.07C139.404 189.67 139.364 189.305 139.284 188.975C139.204 188.635 139.074 188.34 138.894 188.09C138.724 187.84 138.499 187.65 138.219 187.52C137.949 187.39 137.619 187.325 137.229 187.325C136.859 187.325 136.519 187.385 136.209 187.505C135.909 187.615 135.679 187.73 135.519 187.85V192.725C135.649 192.765 135.834 192.805 136.074 192.845C136.324 192.875 136.629 192.89 136.989 192.89ZM142.881 194V186.185H144.381V194H142.881ZM143.631 184.52C143.361 184.52 143.131 184.435 142.941 184.265C142.751 184.085 142.656 183.845 142.656 183.545C142.656 183.245 142.751 183.01 142.941 182.84C143.131 182.66 143.361 182.57 143.631 182.57C143.901 182.57 144.131 182.66 144.321 182.84C144.511 183.01 144.606 183.245 144.606 183.545C144.606 183.845 144.511 184.085 144.321 184.265C144.131 184.435 143.901 184.52 143.631 184.52ZM149.193 194.135C148.593 194.115 148.113 194.025 147.753 193.865C147.393 193.695 147.133 193.445 146.973 193.115C146.823 192.785 146.748 192.36 146.748 191.84V182.615L148.233 182.36V191.645C148.233 192.095 148.313 192.405 148.473 192.575C148.643 192.745 148.953 192.855 149.403 192.905L149.193 194.135ZM150.953 194V186.185H152.453V194H150.953ZM151.703 184.52C151.433 184.52 151.203 184.435 151.013 184.265C150.823 184.085 150.728 183.845 150.728 183.545C150.728 183.245 150.823 183.01 151.013 182.84C151.203 182.66 151.433 182.57 151.703 182.57C151.973 182.57 152.203 182.66 152.393 182.84C152.583 183.01 152.678 183.245 152.678 183.545C152.678 183.845 152.583 184.085 152.393 184.265C152.203 184.435 151.973 184.52 151.703 184.52ZM157.535 194.165C156.825 194.165 156.265 194.045 155.855 193.805C155.455 193.555 155.17 193.19 155 192.71C154.84 192.23 154.76 191.65 154.76 190.97V184.04L156.245 183.785V186.185H159.17V187.43H156.245V191.015C156.245 191.485 156.3 191.86 156.41 192.14C156.52 192.41 156.68 192.6 156.89 192.71C157.11 192.82 157.38 192.875 157.7 192.875C158.04 192.875 158.335 192.84 158.585 192.77C158.845 192.69 159.06 192.615 159.23 192.545L159.485 193.73C159.295 193.82 159.03 193.915 158.69 194.015C158.35 194.115 157.965 194.165 157.535 194.165ZM161.196 196.805C160.916 196.805 160.651 196.775 160.401 196.715C160.161 196.655 159.986 196.595 159.876 196.535L160.161 195.35C160.271 195.39 160.421 195.435 160.611 195.485C160.801 195.535 160.991 195.56 161.181 195.56C161.521 195.56 161.806 195.505 162.036 195.395C162.276 195.295 162.481 195.125 162.651 194.885C162.831 194.645 162.991 194.34 163.131 193.97C162.731 193.21 162.346 192.41 161.976 191.57C161.606 190.73 161.261 189.855 160.941 188.945C160.621 188.035 160.336 187.115 160.086 186.185H161.661C161.761 186.635 161.886 187.115 162.036 187.625C162.196 188.135 162.371 188.665 162.561 189.215C162.751 189.755 162.956 190.3 163.176 190.85C163.396 191.39 163.621 191.915 163.851 192.425C164.101 191.735 164.326 191.055 164.526 190.385C164.726 189.705 164.916 189.02 165.096 188.33C165.276 187.63 165.451 186.915 165.621 186.185H167.136C166.886 187.165 166.621 188.125 166.341 189.065C166.061 189.995 165.766 190.895 165.456 191.765C165.146 192.625 164.816 193.45 164.466 194.24C164.206 194.84 163.931 195.33 163.641 195.71C163.361 196.09 163.026 196.365 162.636 196.535C162.256 196.715 161.776 196.805 161.196 196.805ZM83.15 227C83.68 225.54 84.17 224.21 84.62 223.01C85.08 221.81 85.525 220.69 85.955 219.65C86.395 218.61 86.855 217.595 87.335 216.605H88.76C89.12 217.355 89.465 218.115 89.795 218.885C90.125 219.655 90.455 220.455 90.785 221.285C91.115 222.115 91.455 223 91.805 223.94C92.165 224.88 92.545 225.9 92.945 227H91.265C91.115 226.55 90.96 226.11 90.8 225.68C90.64 225.24 90.49 224.81 90.35 224.39H85.685C85.535 224.81 85.38 225.24 85.22 225.68C85.06 226.11 84.905 226.55 84.755 227H83.15ZM86.09 223.13H89.93C89.75 222.64 89.575 222.17 89.405 221.72C89.235 221.27 89.07 220.845 88.91 220.445C88.75 220.035 88.59 219.65 88.43 219.29C88.28 218.92 88.135 218.575 87.995 218.255C87.865 218.575 87.725 218.92 87.575 219.29C87.425 219.65 87.27 220.035 87.11 220.445C86.95 220.845 86.785 221.27 86.615 221.72C86.445 222.17 86.27 222.64 86.09 223.13ZM96.7842 229.82C96.2942 229.82 95.8292 229.78 95.3892 229.7C94.9492 229.62 94.5642 229.52 94.2342 229.4L94.5042 228.125C94.7942 228.235 95.1392 228.33 95.5392 228.41C95.9392 228.5 96.3642 228.545 96.8142 228.545C97.3542 228.545 97.7892 228.475 98.1192 228.335C98.4592 228.195 98.7042 227.975 98.8542 227.675C99.0142 227.375 99.0942 226.995 99.0942 226.535V226.115C98.9242 226.215 98.6792 226.325 98.3592 226.445C98.0492 226.555 97.6692 226.61 97.2192 226.61C96.5692 226.61 95.9842 226.48 95.4642 226.22C94.9442 225.95 94.5342 225.54 94.2342 224.99C93.9442 224.44 93.7992 223.74 93.7992 222.89C93.7992 222.14 93.9492 221.475 94.2492 220.895C94.5592 220.315 94.9992 219.86 95.5692 219.53C96.1392 219.2 96.8192 219.035 97.6092 219.035C98.2492 219.035 98.8192 219.08 99.3192 219.17C99.8192 219.26 100.234 219.355 100.564 219.455V226.37C100.564 227.58 100.249 228.455 99.6192 228.995C98.9992 229.545 98.0542 229.82 96.7842 229.82ZM97.3842 225.365C97.7342 225.365 98.0592 225.315 98.3592 225.215C98.6692 225.115 98.9092 224.995 99.0792 224.855V220.445C98.9392 220.405 98.7542 220.37 98.5242 220.34C98.3042 220.3 98.0042 220.28 97.6242 220.28C97.1342 220.28 96.7192 220.39 96.3792 220.61C96.0392 220.83 95.7792 221.14 95.5992 221.54C95.4192 221.93 95.3292 222.385 95.3292 222.905C95.3292 223.335 95.3842 223.705 95.4942 224.015C95.6042 224.325 95.7542 224.58 95.9442 224.78C96.1342 224.98 96.3492 225.13 96.5892 225.23C96.8392 225.32 97.1042 225.365 97.3842 225.365ZM102.935 227V219.185H104.435V227H102.935ZM103.685 217.52C103.415 217.52 103.185 217.435 102.995 217.265C102.805 217.085 102.71 216.845 102.71 216.545C102.71 216.245 102.805 216.01 102.995 215.84C103.185 215.66 103.415 215.57 103.685 215.57C103.955 215.57 104.185 215.66 104.375 215.84C104.565 216.01 104.66 216.245 104.66 216.545C104.66 216.845 104.565 217.085 104.375 217.265C104.185 217.435 103.955 217.52 103.685 217.52ZM109.247 227.135C108.647 227.115 108.167 227.025 107.807 226.865C107.447 226.695 107.187 226.445 107.027 226.115C106.877 225.785 106.802 225.36 106.802 224.84V215.615L108.287 215.36V224.645C108.287 225.095 108.367 225.405 108.527 225.575C108.697 225.745 109.007 225.855 109.457 225.905L109.247 227.135ZM114.546 227.18C113.626 227.18 112.871 227.005 112.281 226.655C111.701 226.295 111.271 225.81 110.991 225.2C110.721 224.59 110.586 223.895 110.586 223.115C110.586 222.195 110.756 221.435 111.096 220.835C111.436 220.225 111.876 219.77 112.416 219.47C112.966 219.16 113.541 219.005 114.141 219.005C114.821 219.005 115.406 219.15 115.896 219.44C116.396 219.72 116.781 220.15 117.051 220.73C117.321 221.3 117.456 222.025 117.456 222.905C117.456 222.995 117.451 223.095 117.441 223.205C117.441 223.315 117.436 223.42 117.426 223.52H112.116C112.166 224.26 112.396 224.84 112.806 225.26C113.226 225.67 113.851 225.875 114.681 225.875C115.161 225.875 115.571 225.83 115.911 225.74C116.261 225.65 116.526 225.565 116.706 225.485L116.931 226.715C116.761 226.805 116.451 226.905 116.001 227.015C115.561 227.125 115.076 227.18 114.546 227.18ZM112.146 222.395H115.986C115.976 221.975 115.901 221.605 115.761 221.285C115.621 220.965 115.416 220.715 115.146 220.535C114.886 220.355 114.556 220.265 114.156 220.265C113.746 220.265 113.396 220.365 113.106 220.565C112.816 220.765 112.591 221.03 112.431 221.36C112.271 221.68 112.176 222.025 112.146 222.395ZM122.93 227V218.525C122.93 217.505 123.185 216.725 123.695 216.185C124.215 215.635 124.99 215.36 126.02 215.36C126.44 215.36 126.795 215.395 127.085 215.465C127.385 215.535 127.6 215.605 127.73 215.675L127.445 216.89C127.295 216.82 127.11 216.765 126.89 216.725C126.67 216.675 126.42 216.65 126.14 216.65C125.51 216.65 125.065 216.81 124.805 217.13C124.555 217.45 124.43 217.925 124.43 218.555V219.185H127.4V220.43H124.43V227H122.93ZM128.833 227V219.575C129.143 219.455 129.538 219.335 130.018 219.215C130.508 219.095 131.078 219.035 131.728 219.035C131.918 219.035 132.118 219.05 132.328 219.08C132.548 219.1 132.753 219.13 132.943 219.17C133.133 219.2 133.278 219.24 133.378 219.29L133.108 220.535C132.978 220.495 132.783 220.45 132.523 220.4C132.273 220.35 131.968 220.325 131.608 220.325C131.308 220.325 131.038 220.35 130.798 220.4C130.568 220.44 130.413 220.48 130.333 220.52V227H128.833ZM137.199 227.165C136.599 227.165 136.064 227.085 135.594 226.925C135.134 226.765 134.774 226.5 134.514 226.13C134.254 225.76 134.124 225.275 134.124 224.675C134.124 224.085 134.269 223.615 134.559 223.265C134.849 222.905 135.244 222.645 135.744 222.485C136.244 222.325 136.799 222.245 137.409 222.245C137.689 222.245 137.969 222.265 138.249 222.305C138.539 222.345 138.729 222.385 138.819 222.425V222.065C138.819 221.745 138.774 221.45 138.684 221.18C138.594 220.91 138.424 220.69 138.174 220.52C137.934 220.35 137.574 220.265 137.094 220.265C136.594 220.265 136.184 220.3 135.864 220.37C135.554 220.44 135.309 220.51 135.129 220.58L134.934 219.35C135.134 219.27 135.439 219.195 135.849 219.125C136.259 219.045 136.719 219.005 137.229 219.005C137.989 219.005 138.589 219.13 139.029 219.38C139.479 219.63 139.799 219.985 139.989 220.445C140.179 220.895 140.274 221.415 140.274 222.005V226.805C140.024 226.865 139.624 226.94 139.074 227.03C138.524 227.12 137.899 227.165 137.199 227.165ZM137.349 225.95C137.659 225.95 137.939 225.94 138.189 225.92C138.449 225.9 138.659 225.875 138.819 225.845V223.535C138.729 223.495 138.574 223.455 138.354 223.415C138.134 223.375 137.869 223.355 137.559 223.355C137.249 223.355 136.944 223.39 136.644 223.46C136.354 223.52 136.109 223.64 135.909 223.82C135.719 224 135.624 224.275 135.624 224.645C135.624 225.135 135.779 225.475 136.089 225.665C136.399 225.855 136.819 225.95 137.349 225.95ZM142.574 227V219.455C142.914 219.365 143.344 219.275 143.864 219.185C144.384 219.085 144.974 219.035 145.634 219.035C146.164 219.035 146.604 219.105 146.954 219.245C147.314 219.385 147.604 219.58 147.824 219.83C147.954 219.74 148.139 219.63 148.379 219.5C148.619 219.37 148.899 219.26 149.219 219.17C149.549 219.08 149.904 219.035 150.284 219.035C151.094 219.035 151.709 219.19 152.129 219.5C152.559 219.8 152.849 220.22 152.999 220.76C153.149 221.29 153.224 221.91 153.224 222.62V227H151.739V222.92C151.739 222.32 151.694 221.83 151.604 221.45C151.514 221.06 151.354 220.775 151.124 220.595C150.894 220.415 150.559 220.325 150.119 220.325C149.839 220.325 149.584 220.36 149.354 220.43C149.134 220.49 148.944 220.565 148.784 220.655C148.624 220.745 148.499 220.82 148.409 220.88C148.489 221.12 148.549 221.39 148.589 221.69C148.629 221.99 148.649 222.305 148.649 222.635V227H147.164V222.92C147.164 222.32 147.119 221.83 147.029 221.45C146.939 221.06 146.774 220.775 146.534 220.595C146.304 220.415 145.959 220.325 145.499 220.325C145.279 220.325 145.074 220.335 144.884 220.355C144.694 220.365 144.529 220.385 144.389 220.415C144.249 220.435 144.144 220.455 144.074 220.475V227H142.574ZM159.063 227.18C158.143 227.18 157.388 227.005 156.798 226.655C156.218 226.295 155.788 225.81 155.508 225.2C155.238 224.59 155.103 223.895 155.103 223.115C155.103 222.195 155.273 221.435 155.613 220.835C155.953 220.225 156.393 219.77 156.933 219.47C157.483 219.16 158.058 219.005 158.658 219.005C159.338 219.005 159.923 219.15 160.413 219.44C160.913 219.72 161.298 220.15 161.568 220.73C161.838 221.3 161.973 222.025 161.973 222.905C161.973 222.995 161.968 223.095 161.958 223.205C161.958 223.315 161.953 223.42 161.943 223.52H156.633C156.683 224.26 156.913 224.84 157.323 225.26C157.743 225.67 158.368 225.875 159.198 225.875C159.678 225.875 160.088 225.83 160.428 225.74C160.778 225.65 161.043 225.565 161.223 225.485L161.448 226.715C161.278 226.805 160.968 226.905 160.518 227.015C160.078 227.125 159.593 227.18 159.063 227.18ZM156.663 222.395H160.503C160.493 221.975 160.418 221.605 160.278 221.285C160.138 220.965 159.933 220.715 159.663 220.535C159.403 220.355 159.073 220.265 158.673 220.265C158.263 220.265 157.913 220.365 157.623 220.565C157.333 220.765 157.108 221.03 156.948 221.36C156.788 221.68 156.693 222.025 156.663 222.395ZM165.626 227C165.406 226.49 165.181 225.945 164.951 225.365C164.731 224.775 164.506 224.15 164.276 223.49C164.056 222.83 163.841 222.14 163.631 221.42C163.421 220.7 163.221 219.955 163.031 219.185H164.591C164.691 219.655 164.811 220.16 164.951 220.7C165.091 221.23 165.236 221.77 165.386 222.32C165.546 222.86 165.706 223.385 165.866 223.895C166.026 224.395 166.181 224.845 166.331 225.245C166.561 224.605 166.781 223.93 166.991 223.22C167.211 222.51 167.411 221.81 167.591 221.12C167.781 220.42 167.936 219.775 168.056 219.185H169.211C169.341 219.775 169.496 220.42 169.676 221.12C169.856 221.81 170.051 222.515 170.261 223.235C170.481 223.945 170.701 224.615 170.921 225.245C171.081 224.845 171.241 224.395 171.401 223.895C171.561 223.385 171.716 222.86 171.866 222.32C172.026 221.77 172.171 221.23 172.301 220.7C172.441 220.16 172.561 219.655 172.661 219.185H174.176C173.976 219.955 173.771 220.7 173.561 221.42C173.351 222.14 173.136 222.83 172.916 223.49C172.696 224.15 172.471 224.775 172.241 225.365C172.021 225.945 171.801 226.49 171.581 227H170.336C170.156 226.52 169.961 225.995 169.751 225.425C169.551 224.855 169.351 224.26 169.151 223.64C168.951 223.01 168.766 222.365 168.596 221.705C168.426 222.365 168.241 223.01 168.041 223.64C167.841 224.26 167.641 224.855 167.441 225.425C167.251 225.995 167.061 226.52 166.871 227H165.626ZM178.817 227.195C178.097 227.195 177.457 227.025 176.897 226.685C176.347 226.345 175.917 225.87 175.607 225.26C175.297 224.64 175.142 223.915 175.142 223.085C175.142 222.265 175.297 221.55 175.607 220.94C175.927 220.33 176.362 219.855 176.912 219.515C177.472 219.175 178.107 219.005 178.817 219.005C179.537 219.005 180.172 219.175 180.722 219.515C181.272 219.855 181.702 220.33 182.012 220.94C182.332 221.55 182.492 222.265 182.492 223.085C182.492 223.915 182.337 224.64 182.027 225.26C181.717 225.87 181.287 226.345 180.737 226.685C180.197 227.025 179.557 227.195 178.817 227.195ZM178.817 225.89C179.267 225.89 179.647 225.775 179.957 225.545C180.277 225.315 180.522 224.99 180.692 224.57C180.872 224.15 180.962 223.655 180.962 223.085C180.962 222.525 180.872 222.035 180.692 221.615C180.522 221.195 180.277 220.875 179.957 220.655C179.647 220.425 179.267 220.31 178.817 220.31C178.377 220.31 177.997 220.425 177.677 220.655C177.357 220.875 177.107 221.195 176.927 221.615C176.757 222.035 176.672 222.525 176.672 223.085C176.672 223.655 176.757 224.15 176.927 224.57C177.107 224.99 177.357 225.315 177.677 225.545C177.997 225.775 178.377 225.89 178.817 225.89ZM184.439 227V219.575C184.749 219.455 185.144 219.335 185.624 219.215C186.114 219.095 186.684 219.035 187.334 219.035C187.524 219.035 187.724 219.05 187.934 219.08C188.154 219.1 188.359 219.13 188.549 219.17C188.739 219.2 188.884 219.24 188.984 219.29L188.714 220.535C188.584 220.495 188.389 220.45 188.129 220.4C187.879 220.35 187.574 220.325 187.214 220.325C186.914 220.325 186.644 220.35 186.404 220.4C186.174 220.44 186.019 220.48 185.939 220.52V227H184.439ZM190.328 227V215.615L191.828 215.36V222.425C192.058 222.185 192.308 221.925 192.578 221.645C192.858 221.355 193.138 221.06 193.418 220.76C193.708 220.46 193.973 220.175 194.213 219.905C194.463 219.635 194.673 219.395 194.843 219.185H196.613C196.293 219.535 195.938 219.915 195.548 220.325C195.168 220.725 194.778 221.13 194.378 221.54C193.988 221.95 193.613 222.335 193.253 222.695C193.563 222.935 193.883 223.23 194.213 223.58C194.553 223.92 194.888 224.29 195.218 224.69C195.548 225.08 195.853 225.475 196.133 225.875C196.413 226.275 196.653 226.65 196.853 227H195.128C194.858 226.54 194.533 226.075 194.153 225.605C193.783 225.125 193.393 224.68 192.983 224.27C192.583 223.86 192.198 223.53 191.828 223.28V227H190.328ZM200.127 227.195C199.447 227.195 198.902 227.135 198.492 227.015C198.092 226.895 197.822 226.805 197.682 226.745L197.982 225.485C198.182 225.555 198.462 225.65 198.822 225.77C199.182 225.88 199.617 225.935 200.127 225.935C200.637 225.935 201.032 225.865 201.312 225.725C201.602 225.585 201.747 225.335 201.747 224.975C201.747 224.755 201.687 224.575 201.567 224.435C201.457 224.295 201.282 224.165 201.042 224.045C200.802 223.915 200.477 223.77 200.067 223.61C199.657 223.44 199.282 223.265 198.942 223.085C198.602 222.895 198.332 222.655 198.132 222.365C197.932 222.075 197.832 221.695 197.832 221.225C197.832 220.775 197.947 220.385 198.177 220.055C198.407 219.725 198.732 219.47 199.152 219.29C199.582 219.1 200.087 219.005 200.667 219.005C201.177 219.005 201.622 219.05 202.002 219.14C202.392 219.22 202.682 219.3 202.872 219.38L202.572 220.61C202.402 220.53 202.167 220.45 201.867 220.37C201.577 220.28 201.192 220.235 200.712 220.235C200.312 220.235 199.977 220.31 199.707 220.46C199.447 220.61 199.317 220.845 199.317 221.165C199.317 221.385 199.367 221.565 199.467 221.705C199.577 221.845 199.747 221.975 199.977 222.095C200.207 222.215 200.507 222.345 200.877 222.485C201.377 222.675 201.802 222.87 202.152 223.07C202.502 223.27 202.767 223.52 202.947 223.82C203.137 224.11 203.232 224.49 203.232 224.96C203.232 225.45 203.107 225.86 202.857 226.19C202.617 226.52 202.262 226.77 201.792 226.94C201.332 227.11 200.777 227.195 200.127 227.195Z" fill="black"/>
<path d="M21.8 26.208C21.352 26.208 20.904 26.144 20.456 26.016C20.008 25.888 19.6293 25.7227 19.32 25.52L19.848 24.064C20.1253 24.256 20.4293 24.4107 20.76 24.528C21.1013 24.6453 21.4267 24.704 21.736 24.704C22.2267 24.704 22.616 24.5707 22.904 24.304C23.192 24.0373 23.336 23.664 23.336 23.184C23.336 22.8427 23.2667 22.544 23.128 22.288C22.9893 22.0213 22.7867 21.7707 22.52 21.536C22.2533 21.2907 21.9173 21.04 21.512 20.784C21.1067 20.5067 20.7493 20.224 20.44 19.936C20.1413 19.6373 19.912 19.312 19.752 18.96C19.6027 18.5973 19.528 18.1973 19.528 17.76C19.528 17.1733 19.656 16.656 19.912 16.208C20.168 15.7493 20.5307 15.3867 21 15.12C21.48 14.8427 22.0347 14.704 22.664 14.704C23.08 14.704 23.48 14.7573 23.864 14.864C24.248 14.96 24.6 15.0987 24.92 15.28L24.408 16.672C24.1733 16.5227 23.912 16.4107 23.624 16.336C23.3467 16.2507 23.064 16.208 22.776 16.208C22.328 16.208 21.9707 16.3253 21.704 16.56C21.448 16.7947 21.32 17.136 21.32 17.584C21.32 17.872 21.3787 18.1227 21.496 18.336C21.6133 18.5493 21.8053 18.7627 22.072 18.976C22.3387 19.1787 22.6853 19.424 23.112 19.712C23.56 20.0107 23.928 20.3253 24.216 20.656C24.5147 20.9867 24.7387 21.3333 24.888 21.696C25.0373 22.0587 25.112 22.4587 25.112 22.896C25.112 23.5147 24.9787 24.0747 24.712 24.576C24.4453 25.0773 24.0667 25.4773 23.576 25.776C23.0853 26.064 22.4933 26.208 21.8 26.208ZM26.7618 26V13.872L28.4578 13.584V21.088C28.6284 20.832 28.7991 20.5547 28.9698 20.256C29.1511 19.9573 29.3271 19.6533 29.4978 19.344C29.6684 19.024 29.8284 18.7147 29.9778 18.416C30.1378 18.1067 30.2818 17.824 30.4098 17.568H32.2018C31.9778 18.016 31.7271 18.4747 31.4498 18.944C31.1831 19.4027 30.9111 19.8507 30.6338 20.288C30.3564 20.7253 30.0898 21.1307 29.8338 21.504C30.0791 21.7707 30.3191 22.08 30.5538 22.432C30.7991 22.7733 31.0338 23.1467 31.2578 23.552C31.4818 23.9467 31.6898 24.352 31.8818 24.768C32.0738 25.184 32.2391 25.5947 32.3778 26H30.5698C30.4098 25.5307 30.2178 25.0613 29.9938 24.592C29.7804 24.112 29.5458 23.6587 29.2898 23.232C29.0338 22.8053 28.7564 22.432 28.4578 22.112V26H26.7618ZM33.5899 26V17.568H35.2859V26H33.5899ZM34.4379 15.952C34.1499 15.952 33.8992 15.856 33.6859 15.664C33.4832 15.4613 33.3819 15.1947 33.3819 14.864C33.3819 14.544 33.4832 14.2827 33.6859 14.08C33.8992 13.8773 34.1499 13.776 34.4379 13.776C34.7259 13.776 34.9712 13.8773 35.1739 14.08C35.3872 14.2827 35.4939 14.544 35.4939 14.864C35.4939 15.1947 35.3872 15.4613 35.1739 15.664C34.9712 15.856 34.7259 15.952 34.4379 15.952ZM40.1491 26.16C39.5838 26.128 39.1091 26.0213 38.7251 25.84C38.3518 25.648 38.0691 25.3707 37.8771 25.008C37.6958 24.6453 37.6051 24.1973 37.6051 23.664V13.872L39.3011 13.584V23.648C39.3011 24.0107 39.3758 24.2827 39.5251 24.464C39.6851 24.6347 39.9571 24.7413 40.3411 24.784L40.1491 26.16ZM44.3054 26.16C43.74 26.128 43.2654 26.0213 42.8814 25.84C42.508 25.648 42.2254 25.3707 42.0334 25.008C41.852 24.6453 41.7614 24.1973 41.7614 23.664V13.872L43.4574 13.584V23.648C43.4574 24.0107 43.532 24.2827 43.6814 24.464C43.8414 24.6347 44.1134 24.7413 44.4974 24.784L44.3054 26.16ZM47.2936 26.208C46.899 26.208 46.5256 26.16 46.1736 26.064C45.8216 25.968 45.5443 25.8667 45.3416 25.76L45.6616 24.416C45.8856 24.5333 46.1363 24.6293 46.4136 24.704C46.691 24.7787 46.9416 24.816 47.1656 24.816C47.5283 24.816 47.8056 24.72 47.9976 24.528C48.2003 24.336 48.3016 24.096 48.3016 23.808C48.3016 23.5947 48.259 23.408 48.1736 23.248C48.099 23.088 47.9656 22.928 47.7736 22.768C47.5923 22.5973 47.3256 22.4107 46.9736 22.208C46.6216 21.9947 46.3336 21.776 46.1096 21.552C45.8856 21.3173 45.7203 21.0613 45.6136 20.784C45.5176 20.5067 45.4696 20.192 45.4696 19.84C45.4696 19.3493 45.5763 18.9173 45.7896 18.544C46.003 18.1707 46.3016 17.8773 46.6856 17.664C47.0696 17.4507 47.523 17.344 48.0456 17.344C48.3976 17.344 48.723 17.3813 49.0216 17.456C49.3203 17.52 49.555 17.5947 49.7256 17.68L49.4536 19.008C49.2296 18.912 49.0056 18.8427 48.7816 18.8C48.5683 18.7573 48.3603 18.736 48.1576 18.736C47.827 18.736 47.571 18.816 47.3896 18.976C47.219 19.136 47.1336 19.3653 47.1336 19.664C47.1336 19.8667 47.1763 20.048 47.2616 20.208C47.347 20.368 47.4856 20.528 47.6776 20.688C47.8696 20.8373 48.1256 21.0187 48.4456 21.232C48.787 21.4453 49.0696 21.6747 49.2936 21.92C49.5283 22.1547 49.7043 22.416 49.8216 22.704C49.939 22.9813 49.9976 23.296 49.9976 23.648C49.9976 24.16 49.8803 24.608 49.6456 24.992C49.4216 25.3653 49.107 25.664 48.7016 25.888C48.307 26.1013 47.8376 26.208 47.2936 26.208Z" fill="black"/>
</svg>
