<svg width="306" height="277" viewBox="0 0 306 277" fill="none" xmlns="http://www.w3.org/2000/svg">
<rect x="0.5" y="0.5" width="305" height="276" rx="4.5" stroke="#F8FDFE"/>
<path d="M88.56 75.24C87.64 75.24 86.8733 75.0733 86.26 74.74C85.66 74.3933 85.2067 73.8933 84.9 73.24C84.5933 72.5733 84.44 71.7533 84.44 70.78V61.14H86.64V70.64C86.64 71.56 86.7933 72.24 87.1 72.68C87.4067 73.1067 87.8933 73.32 88.56 73.32C89.2267 73.32 89.7067 73.1067 90 72.68C90.3067 72.24 90.46 71.56 90.46 70.64V61.14H92.66V70.78C92.66 71.7533 92.5067 72.5733 92.2 73.24C91.8933 73.8933 91.4333 74.3933 90.82 74.74C90.22 75.0733 89.4667 75.24 88.56 75.24ZM95.7138 75V61.14H97.8938V75H95.7138Z" fill="black"/>
<path d="M84.29 104V93.785C84.71 93.685 85.18 93.615 85.7 93.575C86.22 93.525 86.695 93.5 87.125 93.5C88.615 93.5 89.74 93.78 90.5 94.34C91.27 94.9 91.655 95.735 91.655 96.845C91.655 97.645 91.47 98.295 91.1 98.795C90.74 99.285 90.21 99.64 89.51 99.86C88.81 100.08 87.965 100.19 86.975 100.19H85.835V104H84.29ZM85.835 98.87H86.915C87.565 98.87 88.125 98.815 88.595 98.705C89.065 98.585 89.425 98.38 89.675 98.09C89.925 97.79 90.05 97.37 90.05 96.83C90.05 96.3 89.92 95.895 89.66 95.615C89.4 95.325 89.05 95.125 88.61 95.015C88.18 94.895 87.71 94.835 87.2 94.835C86.91 94.835 86.65 94.845 86.42 94.865C86.19 94.885 85.995 94.905 85.835 94.925V98.87ZM93.3842 104V96.575C93.6942 96.455 94.0892 96.335 94.5692 96.215C95.0592 96.095 95.6292 96.035 96.2792 96.035C96.4692 96.035 96.6692 96.05 96.8792 96.08C97.0992 96.1 97.3042 96.13 97.4942 96.17C97.6842 96.2 97.8292 96.24 97.9292 96.29L97.6592 97.535C97.5292 97.495 97.3342 97.45 97.0742 97.4C96.8242 97.35 96.5192 97.325 96.1592 97.325C95.8592 97.325 95.5892 97.35 95.3492 97.4C95.1192 97.44 94.9642 97.48 94.8842 97.52V104H93.3842ZM102.469 104.195C101.749 104.195 101.109 104.025 100.549 103.685C99.9993 103.345 99.5693 102.87 99.2593 102.26C98.9493 101.64 98.7943 100.915 98.7943 100.085C98.7943 99.265 98.9493 98.55 99.2593 97.94C99.5793 97.33 100.014 96.855 100.564 96.515C101.124 96.175 101.759 96.005 102.469 96.005C103.189 96.005 103.824 96.175 104.374 96.515C104.924 96.855 105.354 97.33 105.664 97.94C105.984 98.55 106.144 99.265 106.144 100.085C106.144 100.915 105.989 101.64 105.679 102.26C105.369 102.87 104.939 103.345 104.389 103.685C103.849 104.025 103.209 104.195 102.469 104.195ZM102.469 102.89C102.919 102.89 103.299 102.775 103.609 102.545C103.929 102.315 104.174 101.99 104.344 101.57C104.524 101.15 104.614 100.655 104.614 100.085C104.614 99.525 104.524 99.035 104.344 98.615C104.174 98.195 103.929 97.875 103.609 97.655C103.299 97.425 102.919 97.31 102.469 97.31C102.029 97.31 101.649 97.425 101.329 97.655C101.009 97.875 100.759 98.195 100.579 98.615C100.409 99.035 100.324 99.525 100.324 100.085C100.324 100.655 100.409 101.15 100.579 101.57C100.759 101.99 101.009 102.315 101.329 102.545C101.649 102.775 102.029 102.89 102.469 102.89ZM110.806 104.165C110.096 104.165 109.536 104.045 109.126 103.805C108.726 103.555 108.441 103.19 108.271 102.71C108.111 102.23 108.031 101.65 108.031 100.97V94.04L109.516 93.785V96.185H112.441V97.43H109.516V101.015C109.516 101.485 109.571 101.86 109.681 102.14C109.791 102.41 109.951 102.6 110.161 102.71C110.381 102.82 110.651 102.875 110.971 102.875C111.311 102.875 111.606 102.84 111.856 102.77C112.116 102.69 112.331 102.615 112.501 102.545L112.756 103.73C112.566 103.82 112.301 103.915 111.961 104.015C111.621 104.115 111.236 104.165 110.806 104.165ZM117.381 104.195C116.661 104.195 116.021 104.025 115.461 103.685C114.911 103.345 114.481 102.87 114.171 102.26C113.861 101.64 113.706 100.915 113.706 100.085C113.706 99.265 113.861 98.55 114.171 97.94C114.491 97.33 114.926 96.855 115.476 96.515C116.036 96.175 116.671 96.005 117.381 96.005C118.101 96.005 118.736 96.175 119.286 96.515C119.836 96.855 120.266 97.33 120.576 97.94C120.896 98.55 121.056 99.265 121.056 100.085C121.056 100.915 120.901 101.64 120.591 102.26C120.281 102.87 119.851 103.345 119.301 103.685C118.761 104.025 118.121 104.195 117.381 104.195ZM117.381 102.89C117.831 102.89 118.211 102.775 118.521 102.545C118.841 102.315 119.086 101.99 119.256 101.57C119.436 101.15 119.526 100.655 119.526 100.085C119.526 99.525 119.436 99.035 119.256 98.615C119.086 98.195 118.841 97.875 118.521 97.655C118.211 97.425 117.831 97.31 117.381 97.31C116.941 97.31 116.561 97.425 116.241 97.655C115.921 97.875 115.671 98.195 115.491 98.615C115.321 99.035 115.236 99.525 115.236 100.085C115.236 100.655 115.321 101.15 115.491 101.57C115.671 101.99 115.921 102.315 116.241 102.545C116.561 102.775 116.941 102.89 117.381 102.89ZM125.718 104.165C125.008 104.165 124.448 104.045 124.038 103.805C123.638 103.555 123.353 103.19 123.183 102.71C123.023 102.23 122.943 101.65 122.943 100.97V94.04L124.428 93.785V96.185H127.353V97.43H124.428V101.015C124.428 101.485 124.483 101.86 124.593 102.14C124.703 102.41 124.863 102.6 125.073 102.71C125.293 102.82 125.563 102.875 125.883 102.875C126.223 102.875 126.518 102.84 126.768 102.77C127.028 102.69 127.243 102.615 127.413 102.545L127.668 103.73C127.478 103.82 127.213 103.915 126.873 104.015C126.533 104.115 126.148 104.165 125.718 104.165ZM129.379 106.805C129.099 106.805 128.834 106.775 128.584 106.715C128.344 106.655 128.169 106.595 128.059 106.535L128.344 105.35C128.454 105.39 128.604 105.435 128.794 105.485C128.984 105.535 129.174 105.56 129.364 105.56C129.704 105.56 129.989 105.505 130.219 105.395C130.459 105.295 130.664 105.125 130.834 104.885C131.014 104.645 131.174 104.34 131.314 103.97C130.914 103.21 130.529 102.41 130.159 101.57C129.789 100.73 129.444 99.855 129.124 98.945C128.804 98.035 128.519 97.115 128.269 96.185H129.844C129.944 96.635 130.069 97.115 130.219 97.625C130.379 98.135 130.554 98.665 130.744 99.215C130.934 99.755 131.139 100.3 131.359 100.85C131.579 101.39 131.804 101.915 132.034 102.425C132.284 101.735 132.509 101.055 132.709 100.385C132.909 99.705 133.099 99.02 133.279 98.33C133.459 97.63 133.634 96.915 133.804 96.185H135.319C135.069 97.165 134.804 98.125 134.524 99.065C134.244 99.995 133.949 100.895 133.639 101.765C133.329 102.625 132.999 103.45 132.649 104.24C132.389 104.84 132.114 105.33 131.824 105.71C131.544 106.09 131.209 106.365 130.819 106.535C130.439 106.715 129.959 106.805 129.379 106.805ZM136.758 106.775V96.455C136.988 96.385 137.253 96.32 137.553 96.26C137.863 96.19 138.203 96.135 138.573 96.095C138.943 96.055 139.333 96.035 139.743 96.035C140.553 96.035 141.248 96.2 141.828 96.53C142.418 96.85 142.873 97.315 143.193 97.925C143.523 98.535 143.688 99.26 143.688 100.1C143.688 100.9 143.548 101.605 143.268 102.215C142.998 102.825 142.603 103.305 142.083 103.655C141.573 103.995 140.943 104.165 140.193 104.165C139.773 104.165 139.393 104.11 139.053 104C138.723 103.89 138.458 103.775 138.258 103.655V106.775H136.758ZM139.968 102.875C140.358 102.875 140.688 102.81 140.958 102.68C141.238 102.54 141.463 102.35 141.633 102.11C141.813 101.86 141.943 101.57 142.023 101.24C142.103 100.9 142.143 100.53 142.143 100.13C142.143 99.55 142.043 99.05 141.843 98.63C141.653 98.2 141.378 97.875 141.018 97.655C140.658 97.435 140.228 97.325 139.728 97.325C139.368 97.325 139.063 97.345 138.813 97.385C138.573 97.415 138.388 97.445 138.258 97.475V102.335C138.418 102.455 138.648 102.575 138.948 102.695C139.258 102.815 139.598 102.875 139.968 102.875ZM145.621 104V96.185H147.121V104H145.621ZM146.371 94.52C146.101 94.52 145.871 94.435 145.681 94.265C145.491 94.085 145.396 93.845 145.396 93.545C145.396 93.245 145.491 93.01 145.681 92.84C145.871 92.66 146.101 92.57 146.371 92.57C146.641 92.57 146.871 92.66 147.061 92.84C147.251 93.01 147.346 93.245 147.346 93.545C147.346 93.845 147.251 94.085 147.061 94.265C146.871 94.435 146.641 94.52 146.371 94.52ZM149.488 104V96.455C149.828 96.365 150.263 96.275 150.793 96.185C151.323 96.085 151.933 96.035 152.623 96.035C153.463 96.035 154.113 96.185 154.573 96.485C155.043 96.785 155.373 97.205 155.563 97.745C155.753 98.275 155.848 98.9 155.848 99.62V104H154.363V99.92C154.363 99.28 154.303 98.775 154.183 98.405C154.073 98.025 153.883 97.75 153.613 97.58C153.343 97.41 152.963 97.325 152.473 97.325C152.143 97.325 151.838 97.345 151.558 97.385C151.288 97.415 151.098 97.445 150.988 97.475V104H149.488ZM160.71 106.82C160.22 106.82 159.755 106.78 159.315 106.7C158.875 106.62 158.49 106.52 158.16 106.4L158.43 105.125C158.72 105.235 159.065 105.33 159.465 105.41C159.865 105.5 160.29 105.545 160.74 105.545C161.28 105.545 161.715 105.475 162.045 105.335C162.385 105.195 162.63 104.975 162.78 104.675C162.94 104.375 163.02 103.995 163.02 103.535V103.115C162.85 103.215 162.605 103.325 162.285 103.445C161.975 103.555 161.595 103.61 161.145 103.61C160.495 103.61 159.91 103.48 159.39 103.22C158.87 102.95 158.46 102.54 158.16 101.99C157.87 101.44 157.725 100.74 157.725 99.89C157.725 99.14 157.875 98.475 158.175 97.895C158.485 97.315 158.925 96.86 159.495 96.53C160.065 96.2 160.745 96.035 161.535 96.035C162.175 96.035 162.745 96.08 163.245 96.17C163.745 96.26 164.16 96.355 164.49 96.455V103.37C164.49 104.58 164.175 105.455 163.545 105.995C162.925 106.545 161.98 106.82 160.71 106.82ZM161.31 102.365C161.66 102.365 161.985 102.315 162.285 102.215C162.595 102.115 162.835 101.995 163.005 101.855V97.445C162.865 97.405 162.68 97.37 162.45 97.34C162.23 97.3 161.93 97.28 161.55 97.28C161.06 97.28 160.645 97.39 160.305 97.61C159.965 97.83 159.705 98.14 159.525 98.54C159.345 98.93 159.255 99.385 159.255 99.905C159.255 100.335 159.31 100.705 159.42 101.015C159.53 101.325 159.68 101.58 159.87 101.78C160.06 101.98 160.275 102.13 160.515 102.23C160.765 102.32 161.03 102.365 161.31 102.365ZM87.05 136.105C86.63 136.105 86.17 136.085 85.67 136.045C85.18 136.005 84.72 135.935 84.29 135.835V125.785C84.72 125.685 85.19 125.615 85.7 125.575C86.21 125.525 86.675 125.5 87.095 125.5C88.245 125.5 89.25 125.69 90.11 126.07C90.98 126.45 91.66 127.03 92.15 127.81C92.64 128.59 92.885 129.585 92.885 130.795C92.885 131.985 92.64 132.975 92.15 133.765C91.67 134.545 90.99 135.13 90.11 135.52C89.24 135.91 88.22 136.105 87.05 136.105ZM87.17 134.77C88.54 134.77 89.565 134.42 90.245 133.72C90.925 133.01 91.265 132.035 91.265 130.795C91.265 129.545 90.93 128.575 90.26 127.885C89.59 127.185 88.575 126.835 87.215 126.835C86.825 126.835 86.52 126.845 86.3 126.865C86.09 126.885 85.935 126.905 85.835 126.925V134.695C85.925 134.705 86.07 134.72 86.27 134.74C86.47 134.76 86.77 134.77 87.17 134.77ZM98.4623 136.18C97.5423 136.18 96.7873 136.005 96.1973 135.655C95.6173 135.295 95.1873 134.81 94.9073 134.2C94.6373 133.59 94.5023 132.895 94.5023 132.115C94.5023 131.195 94.6723 130.435 95.0123 129.835C95.3523 129.225 95.7923 128.77 96.3323 128.47C96.8823 128.16 97.4573 128.005 98.0573 128.005C98.7373 128.005 99.3223 128.15 99.8123 128.44C100.312 128.72 100.697 129.15 100.967 129.73C101.237 130.3 101.372 131.025 101.372 131.905C101.372 131.995 101.367 132.095 101.357 132.205C101.357 132.315 101.352 132.42 101.342 132.52H96.0323C96.0823 133.26 96.3123 133.84 96.7223 134.26C97.1423 134.67 97.7673 134.875 98.5973 134.875C99.0773 134.875 99.4873 134.83 99.8273 134.74C100.177 134.65 100.442 134.565 100.622 134.485L100.847 135.715C100.677 135.805 100.367 135.905 99.9173 136.015C99.4773 136.125 98.9923 136.18 98.4623 136.18ZM96.0623 131.395H99.9023C99.8923 130.975 99.8173 130.605 99.6773 130.285C99.5373 129.965 99.3323 129.715 99.0623 129.535C98.8023 129.355 98.4723 129.265 98.0723 129.265C97.6623 129.265 97.3123 129.365 97.0223 129.565C96.7323 129.765 96.5073 130.03 96.3473 130.36C96.1873 130.68 96.0923 131.025 96.0623 131.395ZM105.205 136.195C104.525 136.195 103.98 136.135 103.57 136.015C103.17 135.895 102.9 135.805 102.76 135.745L103.06 134.485C103.26 134.555 103.54 134.65 103.9 134.77C104.26 134.88 104.695 134.935 105.205 134.935C105.715 134.935 106.11 134.865 106.39 134.725C106.68 134.585 106.825 134.335 106.825 133.975C106.825 133.755 106.765 133.575 106.645 133.435C106.535 133.295 106.36 133.165 106.12 133.045C105.88 132.915 105.555 132.77 105.145 132.61C104.735 132.44 104.36 132.265 104.02 132.085C103.68 131.895 103.41 131.655 103.21 131.365C103.01 131.075 102.91 130.695 102.91 130.225C102.91 129.775 103.025 129.385 103.255 129.055C103.485 128.725 103.81 128.47 104.23 128.29C104.66 128.1 105.165 128.005 105.745 128.005C106.255 128.005 106.7 128.05 107.08 128.14C107.47 128.22 107.76 128.3 107.95 128.38L107.65 129.61C107.48 129.53 107.245 129.45 106.945 129.37C106.655 129.28 106.27 129.235 105.79 129.235C105.39 129.235 105.055 129.31 104.785 129.46C104.525 129.61 104.395 129.845 104.395 130.165C104.395 130.385 104.445 130.565 104.545 130.705C104.655 130.845 104.825 130.975 105.055 131.095C105.285 131.215 105.585 131.345 105.955 131.485C106.455 131.675 106.88 131.87 107.23 132.07C107.58 132.27 107.845 132.52 108.025 132.82C108.215 133.11 108.31 133.49 108.31 133.96C108.31 134.45 108.185 134.86 107.935 135.19C107.695 135.52 107.34 135.77 106.87 135.94C106.41 136.11 105.855 136.195 105.205 136.195ZM110.113 136V128.185H111.613V136H110.113ZM110.863 126.52C110.593 126.52 110.363 126.435 110.173 126.265C109.983 126.085 109.888 125.845 109.888 125.545C109.888 125.245 109.983 125.01 110.173 124.84C110.363 124.66 110.593 124.57 110.863 124.57C111.133 124.57 111.363 124.66 111.553 124.84C111.743 125.01 111.838 125.245 111.838 125.545C111.838 125.845 111.743 126.085 111.553 126.265C111.363 126.435 111.133 126.52 110.863 126.52ZM116.545 138.82C116.055 138.82 115.59 138.78 115.15 138.7C114.71 138.62 114.325 138.52 113.995 138.4L114.265 137.125C114.555 137.235 114.9 137.33 115.3 137.41C115.7 137.5 116.125 137.545 116.575 137.545C117.115 137.545 117.55 137.475 117.88 137.335C118.22 137.195 118.465 136.975 118.615 136.675C118.775 136.375 118.855 135.995 118.855 135.535V135.115C118.685 135.215 118.44 135.325 118.12 135.445C117.81 135.555 117.43 135.61 116.98 135.61C116.33 135.61 115.745 135.48 115.225 135.22C114.705 134.95 114.295 134.54 113.995 133.99C113.705 133.44 113.56 132.74 113.56 131.89C113.56 131.14 113.71 130.475 114.01 129.895C114.32 129.315 114.76 128.86 115.33 128.53C115.9 128.2 116.58 128.035 117.37 128.035C118.01 128.035 118.58 128.08 119.08 128.17C119.58 128.26 119.995 128.355 120.325 128.455V135.37C120.325 136.58 120.01 137.455 119.38 137.995C118.76 138.545 117.815 138.82 116.545 138.82ZM117.145 134.365C117.495 134.365 117.82 134.315 118.12 134.215C118.43 134.115 118.67 133.995 118.84 133.855V129.445C118.7 129.405 118.515 129.37 118.285 129.34C118.065 129.3 117.765 129.28 117.385 129.28C116.895 129.28 116.48 129.39 116.14 129.61C115.8 129.83 115.54 130.14 115.36 130.54C115.18 130.93 115.09 131.385 115.09 131.905C115.09 132.335 115.145 132.705 115.255 133.015C115.365 133.325 115.515 133.58 115.705 133.78C115.895 133.98 116.11 134.13 116.35 134.23C116.6 134.32 116.865 134.365 117.145 134.365ZM122.696 136V128.455C123.036 128.365 123.471 128.275 124.001 128.185C124.531 128.085 125.141 128.035 125.831 128.035C126.671 128.035 127.321 128.185 127.781 128.485C128.251 128.785 128.581 129.205 128.771 129.745C128.961 130.275 129.056 130.9 129.056 131.62V136H127.571V131.92C127.571 131.28 127.511 130.775 127.391 130.405C127.281 130.025 127.091 129.75 126.821 129.58C126.551 129.41 126.171 129.325 125.681 129.325C125.351 129.325 125.046 129.345 124.766 129.385C124.496 129.415 124.306 129.445 124.196 129.475V136H122.696ZM137.434 136.225C136.584 136.225 135.884 136.135 135.334 135.955C134.794 135.765 134.414 135.605 134.194 135.475L134.659 134.2C134.899 134.34 135.249 134.49 135.709 134.65C136.179 134.81 136.754 134.89 137.434 134.89C138.184 134.89 138.739 134.76 139.099 134.5C139.469 134.24 139.654 133.85 139.654 133.33C139.654 132.93 139.549 132.61 139.339 132.37C139.139 132.13 138.859 131.925 138.499 131.755C138.139 131.585 137.719 131.41 137.239 131.23C136.709 131.03 136.234 130.81 135.814 130.57C135.394 130.33 135.059 130.03 134.809 129.67C134.569 129.3 134.449 128.825 134.449 128.245C134.449 127.635 134.589 127.12 134.869 126.7C135.159 126.27 135.569 125.945 136.099 125.725C136.629 125.495 137.254 125.38 137.974 125.38C138.594 125.38 139.154 125.455 139.654 125.605C140.154 125.745 140.549 125.9 140.839 126.07L140.359 127.33C140.069 127.15 139.724 127 139.324 126.88C138.934 126.76 138.499 126.7 138.019 126.7C137.399 126.7 136.909 126.815 136.549 127.045C136.199 127.265 136.024 127.63 136.024 128.14C136.024 128.48 136.114 128.76 136.294 128.98C136.484 129.2 136.739 129.39 137.059 129.55C137.389 129.7 137.759 129.855 138.169 130.015C138.789 130.255 139.329 130.505 139.789 130.765C140.249 131.015 140.609 131.335 140.869 131.725C141.129 132.115 141.259 132.64 141.259 133.3C141.259 133.93 141.109 134.465 140.809 134.905C140.509 135.335 140.074 135.665 139.504 135.895C138.934 136.115 138.244 136.225 137.434 136.225ZM142.958 138.805C142.678 138.805 142.413 138.775 142.163 138.715C141.923 138.655 141.748 138.595 141.638 138.535L141.923 137.35C142.033 137.39 142.183 137.435 142.373 137.485C142.563 137.535 142.753 137.56 142.943 137.56C143.283 137.56 143.568 137.505 143.798 137.395C144.038 137.295 144.243 137.125 144.413 136.885C144.593 136.645 144.753 136.34 144.893 135.97C144.493 135.21 144.108 134.41 143.738 133.57C143.368 132.73 143.023 131.855 142.703 130.945C142.383 130.035 142.098 129.115 141.848 128.185H143.423C143.523 128.635 143.648 129.115 143.798 129.625C143.958 130.135 144.133 130.665 144.323 131.215C144.513 131.755 144.718 132.3 144.938 132.85C145.158 133.39 145.383 133.915 145.613 134.425C145.863 133.735 146.088 133.055 146.288 132.385C146.488 131.705 146.678 131.02 146.858 130.33C147.038 129.63 147.213 128.915 147.383 128.185H148.898C148.648 129.165 148.383 130.125 148.103 131.065C147.823 131.995 147.528 132.895 147.218 133.765C146.908 134.625 146.578 135.45 146.228 136.24C145.968 136.84 145.693 137.33 145.403 137.71C145.123 138.09 144.788 138.365 144.398 138.535C144.018 138.715 143.538 138.805 142.958 138.805ZM152.197 136.195C151.517 136.195 150.972 136.135 150.562 136.015C150.162 135.895 149.892 135.805 149.752 135.745L150.052 134.485C150.252 134.555 150.532 134.65 150.892 134.77C151.252 134.88 151.687 134.935 152.197 134.935C152.707 134.935 153.102 134.865 153.382 134.725C153.672 134.585 153.817 134.335 153.817 133.975C153.817 133.755 153.757 133.575 153.637 133.435C153.527 133.295 153.352 133.165 153.112 133.045C152.872 132.915 152.547 132.77 152.137 132.61C151.727 132.44 151.352 132.265 151.012 132.085C150.672 131.895 150.402 131.655 150.202 131.365C150.002 131.075 149.902 130.695 149.902 130.225C149.902 129.775 150.017 129.385 150.247 129.055C150.477 128.725 150.802 128.47 151.222 128.29C151.652 128.1 152.157 128.005 152.737 128.005C153.247 128.005 153.692 128.05 154.072 128.14C154.462 128.22 154.752 128.3 154.942 128.38L154.642 129.61C154.472 129.53 154.237 129.45 153.937 129.37C153.647 129.28 153.262 129.235 152.782 129.235C152.382 129.235 152.047 129.31 151.777 129.46C151.517 129.61 151.387 129.845 151.387 130.165C151.387 130.385 151.437 130.565 151.537 130.705C151.647 130.845 151.817 130.975 152.047 131.095C152.277 131.215 152.577 131.345 152.947 131.485C153.447 131.675 153.872 131.87 154.222 132.07C154.572 132.27 154.837 132.52 155.017 132.82C155.207 133.11 155.302 133.49 155.302 133.96C155.302 134.45 155.177 134.86 154.927 135.19C154.687 135.52 154.332 135.77 153.862 135.94C153.402 136.11 152.847 136.195 152.197 136.195ZM159.82 136.165C159.11 136.165 158.55 136.045 158.14 135.805C157.74 135.555 157.455 135.19 157.285 134.71C157.125 134.23 157.045 133.65 157.045 132.97V126.04L158.53 125.785V128.185H161.455V129.43H158.53V133.015C158.53 133.485 158.585 133.86 158.695 134.14C158.805 134.41 158.965 134.6 159.175 134.71C159.395 134.82 159.665 134.875 159.985 134.875C160.325 134.875 160.62 134.84 160.87 134.77C161.13 134.69 161.345 134.615 161.515 134.545L161.77 135.73C161.58 135.82 161.315 135.915 160.975 136.015C160.635 136.115 160.25 136.165 159.82 136.165ZM166.68 136.18C165.76 136.18 165.005 136.005 164.415 135.655C163.835 135.295 163.405 134.81 163.125 134.2C162.855 133.59 162.72 132.895 162.72 132.115C162.72 131.195 162.89 130.435 163.23 129.835C163.57 129.225 164.01 128.77 164.55 128.47C165.1 128.16 165.675 128.005 166.275 128.005C166.955 128.005 167.54 128.15 168.03 128.44C168.53 128.72 168.915 129.15 169.185 129.73C169.455 130.3 169.59 131.025 169.59 131.905C169.59 131.995 169.585 132.095 169.575 132.205C169.575 132.315 169.57 132.42 169.56 132.52H164.25C164.3 133.26 164.53 133.84 164.94 134.26C165.36 134.67 165.985 134.875 166.815 134.875C167.295 134.875 167.705 134.83 168.045 134.74C168.395 134.65 168.66 134.565 168.84 134.485L169.065 135.715C168.895 135.805 168.585 135.905 168.135 136.015C167.695 136.125 167.21 136.18 166.68 136.18ZM164.28 131.395H168.12C168.11 130.975 168.035 130.605 167.895 130.285C167.755 129.965 167.55 129.715 167.28 129.535C167.02 129.355 166.69 129.265 166.29 129.265C165.88 129.265 165.53 129.365 165.24 129.565C164.95 129.765 164.725 130.03 164.565 130.36C164.405 130.68 164.31 131.025 164.28 131.395ZM171.563 136V128.455C171.903 128.365 172.333 128.275 172.853 128.185C173.373 128.085 173.963 128.035 174.623 128.035C175.153 128.035 175.593 128.105 175.943 128.245C176.303 128.385 176.593 128.58 176.813 128.83C176.943 128.74 177.128 128.63 177.368 128.5C177.608 128.37 177.888 128.26 178.208 128.17C178.538 128.08 178.893 128.035 179.273 128.035C180.083 128.035 180.698 128.19 181.118 128.5C181.548 128.8 181.838 129.22 181.988 129.76C182.138 130.29 182.213 130.91 182.213 131.62V136H180.728V131.92C180.728 131.32 180.683 130.83 180.593 130.45C180.503 130.06 180.343 129.775 180.113 129.595C179.883 129.415 179.548 129.325 179.108 129.325C178.828 129.325 178.573 129.36 178.343 129.43C178.123 129.49 177.933 129.565 177.773 129.655C177.613 129.745 177.488 129.82 177.398 129.88C177.478 130.12 177.538 130.39 177.578 130.69C177.618 130.99 177.638 131.305 177.638 131.635V136H176.153V131.92C176.153 131.32 176.108 130.83 176.018 130.45C175.928 130.06 175.763 129.775 175.523 129.595C175.293 129.415 174.948 129.325 174.488 129.325C174.268 129.325 174.063 129.335 173.873 129.355C173.683 129.365 173.518 129.385 173.378 129.415C173.238 129.435 173.133 129.455 173.063 129.475V136H171.563ZM84.29 168V157.605H85.835V168H84.29ZM88.3305 168V160.455C88.6705 160.365 89.1055 160.275 89.6355 160.185C90.1655 160.085 90.7755 160.035 91.4655 160.035C92.3055 160.035 92.9555 160.185 93.4155 160.485C93.8855 160.785 94.2155 161.205 94.4055 161.745C94.5955 162.275 94.6905 162.9 94.6905 163.62V168H93.2055V163.92C93.2055 163.28 93.1455 162.775 93.0255 162.405C92.9155 162.025 92.7255 161.75 92.4555 161.58C92.1855 161.41 91.8055 161.325 91.3155 161.325C90.9855 161.325 90.6805 161.345 90.4005 161.385C90.1305 161.415 89.9405 161.445 89.8305 161.475V168H88.3305ZM99.7027 168.165C98.9927 168.165 98.4327 168.045 98.0227 167.805C97.6227 167.555 97.3377 167.19 97.1677 166.71C97.0077 166.23 96.9277 165.65 96.9277 164.97V158.04L98.4127 157.785V160.185H101.338V161.43H98.4127V165.015C98.4127 165.485 98.4677 165.86 98.5777 166.14C98.6877 166.41 98.8477 166.6 99.0577 166.71C99.2777 166.82 99.5477 166.875 99.8677 166.875C100.208 166.875 100.503 166.84 100.753 166.77C101.013 166.69 101.228 166.615 101.398 166.545L101.653 167.73C101.463 167.82 101.198 167.915 100.858 168.015C100.518 168.115 100.133 168.165 99.7027 168.165ZM106.563 168.18C105.643 168.18 104.888 168.005 104.298 167.655C103.718 167.295 103.288 166.81 103.008 166.2C102.738 165.59 102.603 164.895 102.603 164.115C102.603 163.195 102.773 162.435 103.113 161.835C103.453 161.225 103.893 160.77 104.433 160.47C104.983 160.16 105.558 160.005 106.158 160.005C106.838 160.005 107.423 160.15 107.913 160.44C108.413 160.72 108.798 161.15 109.068 161.73C109.338 162.3 109.473 163.025 109.473 163.905C109.473 163.995 109.468 164.095 109.458 164.205C109.458 164.315 109.453 164.42 109.443 164.52H104.133C104.183 165.26 104.413 165.84 104.823 166.26C105.243 166.67 105.868 166.875 106.698 166.875C107.178 166.875 107.588 166.83 107.928 166.74C108.278 166.65 108.543 166.565 108.723 166.485L108.948 167.715C108.778 167.805 108.468 167.905 108.018 168.015C107.578 168.125 107.093 168.18 106.563 168.18ZM104.163 163.395H108.003C107.993 162.975 107.918 162.605 107.778 162.285C107.638 161.965 107.433 161.715 107.163 161.535C106.903 161.355 106.573 161.265 106.173 161.265C105.763 161.265 105.413 161.365 105.123 161.565C104.833 161.765 104.608 162.03 104.448 162.36C104.288 162.68 104.193 163.025 104.163 163.395ZM111.446 168V160.575C111.756 160.455 112.151 160.335 112.631 160.215C113.121 160.095 113.691 160.035 114.341 160.035C114.531 160.035 114.731 160.05 114.941 160.08C115.161 160.1 115.366 160.13 115.556 160.17C115.746 160.2 115.891 160.24 115.991 160.29L115.721 161.535C115.591 161.495 115.396 161.45 115.136 161.4C114.886 161.35 114.581 161.325 114.221 161.325C113.921 161.325 113.651 161.35 113.411 161.4C113.181 161.44 113.026 161.48 112.946 161.52V168H111.446ZM119.811 168.165C119.211 168.165 118.676 168.085 118.206 167.925C117.746 167.765 117.386 167.5 117.126 167.13C116.866 166.76 116.736 166.275 116.736 165.675C116.736 165.085 116.881 164.615 117.171 164.265C117.461 163.905 117.856 163.645 118.356 163.485C118.856 163.325 119.411 163.245 120.021 163.245C120.301 163.245 120.581 163.265 120.861 163.305C121.151 163.345 121.341 163.385 121.431 163.425V163.065C121.431 162.745 121.386 162.45 121.296 162.18C121.206 161.91 121.036 161.69 120.786 161.52C120.546 161.35 120.186 161.265 119.706 161.265C119.206 161.265 118.796 161.3 118.476 161.37C118.166 161.44 117.921 161.51 117.741 161.58L117.546 160.35C117.746 160.27 118.051 160.195 118.461 160.125C118.871 160.045 119.331 160.005 119.841 160.005C120.601 160.005 121.201 160.13 121.641 160.38C122.091 160.63 122.411 160.985 122.601 161.445C122.791 161.895 122.886 162.415 122.886 163.005V167.805C122.636 167.865 122.236 167.94 121.686 168.03C121.136 168.12 120.511 168.165 119.811 168.165ZM119.961 166.95C120.271 166.95 120.551 166.94 120.801 166.92C121.061 166.9 121.271 166.875 121.431 166.845V164.535C121.341 164.495 121.186 164.455 120.966 164.415C120.746 164.375 120.481 164.355 120.171 164.355C119.861 164.355 119.556 164.39 119.256 164.46C118.966 164.52 118.721 164.64 118.521 164.82C118.331 165 118.236 165.275 118.236 165.645C118.236 166.135 118.391 166.475 118.701 166.665C119.011 166.855 119.431 166.95 119.961 166.95ZM128.621 168.18C127.751 168.18 127.031 168.01 126.461 167.67C125.891 167.32 125.466 166.84 125.186 166.23C124.906 165.61 124.766 164.9 124.766 164.1C124.766 163.31 124.916 162.61 125.216 162C125.516 161.38 125.946 160.895 126.506 160.545C127.076 160.185 127.756 160.005 128.546 160.005C128.956 160.005 129.341 160.04 129.701 160.11C130.071 160.18 130.376 160.275 130.616 160.395L130.286 161.61C130.076 161.53 129.846 161.46 129.596 161.4C129.346 161.34 129.031 161.31 128.651 161.31C127.881 161.31 127.296 161.56 126.896 162.06C126.496 162.55 126.296 163.23 126.296 164.1C126.296 164.66 126.376 165.15 126.536 165.57C126.706 165.98 126.976 166.3 127.346 166.53C127.716 166.76 128.206 166.875 128.816 166.875C129.166 166.875 129.491 166.84 129.791 166.77C130.091 166.69 130.326 166.605 130.496 166.515L130.751 167.76C130.541 167.87 130.241 167.965 129.851 168.045C129.461 168.135 129.051 168.18 128.621 168.18ZM135.035 168.165C134.325 168.165 133.765 168.045 133.355 167.805C132.955 167.555 132.67 167.19 132.5 166.71C132.34 166.23 132.26 165.65 132.26 164.97V158.04L133.745 157.785V160.185H136.67V161.43H133.745V165.015C133.745 165.485 133.8 165.86 133.91 166.14C134.02 166.41 134.18 166.6 134.39 166.71C134.61 166.82 134.88 166.875 135.2 166.875C135.54 166.875 135.835 166.84 136.085 166.77C136.345 166.69 136.56 166.615 136.73 166.545L136.985 167.73C136.795 167.82 136.53 167.915 136.19 168.015C135.85 168.115 135.465 168.165 135.035 168.165ZM138.472 168V160.185H139.972V168H138.472ZM139.222 158.52C138.952 158.52 138.722 158.435 138.532 158.265C138.342 158.085 138.247 157.845 138.247 157.545C138.247 157.245 138.342 157.01 138.532 156.84C138.722 156.66 138.952 156.57 139.222 156.57C139.492 156.57 139.722 156.66 139.912 156.84C140.102 157.01 140.197 157.245 140.197 157.545C140.197 157.845 140.102 158.085 139.912 158.265C139.722 158.435 139.492 158.52 139.222 158.52ZM145.594 168.195C144.874 168.195 144.234 168.025 143.674 167.685C143.124 167.345 142.694 166.87 142.384 166.26C142.074 165.64 141.919 164.915 141.919 164.085C141.919 163.265 142.074 162.55 142.384 161.94C142.704 161.33 143.139 160.855 143.689 160.515C144.249 160.175 144.884 160.005 145.594 160.005C146.314 160.005 146.949 160.175 147.499 160.515C148.049 160.855 148.479 161.33 148.789 161.94C149.109 162.55 149.269 163.265 149.269 164.085C149.269 164.915 149.114 165.64 148.804 166.26C148.494 166.87 148.064 167.345 147.514 167.685C146.974 168.025 146.334 168.195 145.594 168.195ZM145.594 166.89C146.044 166.89 146.424 166.775 146.734 166.545C147.054 166.315 147.299 165.99 147.469 165.57C147.649 165.15 147.739 164.655 147.739 164.085C147.739 163.525 147.649 163.035 147.469 162.615C147.299 162.195 147.054 161.875 146.734 161.655C146.424 161.425 146.044 161.31 145.594 161.31C145.154 161.31 144.774 161.425 144.454 161.655C144.134 161.875 143.884 162.195 143.704 162.615C143.534 163.035 143.449 163.525 143.449 164.085C143.449 164.655 143.534 165.15 143.704 165.57C143.884 165.99 144.134 166.315 144.454 166.545C144.774 166.775 145.154 166.89 145.594 166.89ZM151.216 168V160.455C151.556 160.365 151.991 160.275 152.521 160.185C153.051 160.085 153.661 160.035 154.351 160.035C155.191 160.035 155.841 160.185 156.301 160.485C156.771 160.785 157.101 161.205 157.291 161.745C157.481 162.275 157.576 162.9 157.576 163.62V168H156.091V163.92C156.091 163.28 156.031 162.775 155.911 162.405C155.801 162.025 155.611 161.75 155.341 161.58C155.071 161.41 154.691 161.325 154.201 161.325C153.871 161.325 153.566 161.345 153.286 161.385C153.016 161.415 152.826 161.445 152.716 161.475V168H151.216ZM166.239 168.105C165.819 168.105 165.359 168.085 164.859 168.045C164.369 168.005 163.909 167.935 163.479 167.835V157.785C163.909 157.685 164.379 157.615 164.889 157.575C165.399 157.525 165.864 157.5 166.284 157.5C167.434 157.5 168.439 157.69 169.299 158.07C170.169 158.45 170.849 159.03 171.339 159.81C171.829 160.59 172.074 161.585 172.074 162.795C172.074 163.985 171.829 164.975 171.339 165.765C170.859 166.545 170.179 167.13 169.299 167.52C168.429 167.91 167.409 168.105 166.239 168.105ZM166.359 166.77C167.729 166.77 168.754 166.42 169.434 165.72C170.114 165.01 170.454 164.035 170.454 162.795C170.454 161.545 170.119 160.575 169.449 159.885C168.779 159.185 167.764 158.835 166.404 158.835C166.014 158.835 165.709 158.845 165.489 158.865C165.279 158.885 165.124 158.905 165.024 158.925V166.695C165.114 166.705 165.259 166.72 165.459 166.74C165.659 166.76 165.959 166.77 166.359 166.77ZM177.652 168.18C176.732 168.18 175.977 168.005 175.387 167.655C174.807 167.295 174.377 166.81 174.097 166.2C173.827 165.59 173.692 164.895 173.692 164.115C173.692 163.195 173.862 162.435 174.202 161.835C174.542 161.225 174.982 160.77 175.522 160.47C176.072 160.16 176.647 160.005 177.247 160.005C177.927 160.005 178.512 160.15 179.002 160.44C179.502 160.72 179.887 161.15 180.157 161.73C180.427 162.3 180.562 163.025 180.562 163.905C180.562 163.995 180.557 164.095 180.547 164.205C180.547 164.315 180.542 164.42 180.532 164.52H175.222C175.272 165.26 175.502 165.84 175.912 166.26C176.332 166.67 176.957 166.875 177.787 166.875C178.267 166.875 178.677 166.83 179.017 166.74C179.367 166.65 179.632 166.565 179.812 166.485L180.037 167.715C179.867 167.805 179.557 167.905 179.107 168.015C178.667 168.125 178.182 168.18 177.652 168.18ZM175.252 163.395H179.092C179.082 162.975 179.007 162.605 178.867 162.285C178.727 161.965 178.522 161.715 178.252 161.535C177.992 161.355 177.662 161.265 177.262 161.265C176.852 161.265 176.502 161.365 176.212 161.565C175.922 161.765 175.697 162.03 175.537 162.36C175.377 162.68 175.282 163.025 175.252 163.395ZM184.395 168.195C183.715 168.195 183.17 168.135 182.76 168.015C182.36 167.895 182.09 167.805 181.95 167.745L182.25 166.485C182.45 166.555 182.73 166.65 183.09 166.77C183.45 166.88 183.885 166.935 184.395 166.935C184.905 166.935 185.3 166.865 185.58 166.725C185.87 166.585 186.015 166.335 186.015 165.975C186.015 165.755 185.955 165.575 185.835 165.435C185.725 165.295 185.55 165.165 185.31 165.045C185.07 164.915 184.745 164.77 184.335 164.61C183.925 164.44 183.55 164.265 183.21 164.085C182.87 163.895 182.6 163.655 182.4 163.365C182.2 163.075 182.1 162.695 182.1 162.225C182.1 161.775 182.215 161.385 182.445 161.055C182.675 160.725 183 160.47 183.42 160.29C183.85 160.1 184.355 160.005 184.935 160.005C185.445 160.005 185.89 160.05 186.27 160.14C186.66 160.22 186.95 160.3 187.14 160.38L186.84 161.61C186.67 161.53 186.435 161.45 186.135 161.37C185.845 161.28 185.46 161.235 184.98 161.235C184.58 161.235 184.245 161.31 183.975 161.46C183.715 161.61 183.585 161.845 183.585 162.165C183.585 162.385 183.635 162.565 183.735 162.705C183.845 162.845 184.015 162.975 184.245 163.095C184.475 163.215 184.775 163.345 185.145 163.485C185.645 163.675 186.07 163.87 186.42 164.07C186.77 164.27 187.035 164.52 187.215 164.82C187.405 165.11 187.5 165.49 187.5 165.96C187.5 166.45 187.375 166.86 187.125 167.19C186.885 167.52 186.53 167.77 186.06 167.94C185.6 168.11 185.045 168.195 184.395 168.195ZM189.302 168V160.185H190.802V168H189.302ZM190.052 158.52C189.782 158.52 189.552 158.435 189.362 158.265C189.172 158.085 189.077 157.845 189.077 157.545C189.077 157.245 189.172 157.01 189.362 156.84C189.552 156.66 189.782 156.57 190.052 156.57C190.322 156.57 190.552 156.66 190.742 156.84C190.932 157.01 191.027 157.245 191.027 157.545C191.027 157.845 190.932 158.085 190.742 158.265C190.552 158.435 190.322 158.52 190.052 158.52ZM195.734 170.82C195.244 170.82 194.779 170.78 194.339 170.7C193.899 170.62 193.514 170.52 193.184 170.4L193.454 169.125C193.744 169.235 194.089 169.33 194.489 169.41C194.889 169.5 195.314 169.545 195.764 169.545C196.304 169.545 196.739 169.475 197.069 169.335C197.409 169.195 197.654 168.975 197.804 168.675C197.964 168.375 198.044 167.995 198.044 167.535V167.115C197.874 167.215 197.629 167.325 197.309 167.445C196.999 167.555 196.619 167.61 196.169 167.61C195.519 167.61 194.934 167.48 194.414 167.22C193.894 166.95 193.484 166.54 193.184 165.99C192.894 165.44 192.749 164.74 192.749 163.89C192.749 163.14 192.899 162.475 193.199 161.895C193.509 161.315 193.949 160.86 194.519 160.53C195.089 160.2 195.769 160.035 196.559 160.035C197.199 160.035 197.769 160.08 198.269 160.17C198.769 160.26 199.184 160.355 199.514 160.455V167.37C199.514 168.58 199.199 169.455 198.569 169.995C197.949 170.545 197.004 170.82 195.734 170.82ZM196.334 166.365C196.684 166.365 197.009 166.315 197.309 166.215C197.619 166.115 197.859 165.995 198.029 165.855V161.445C197.889 161.405 197.704 161.37 197.474 161.34C197.254 161.3 196.954 161.28 196.574 161.28C196.084 161.28 195.669 161.39 195.329 161.61C194.989 161.83 194.729 162.14 194.549 162.54C194.369 162.93 194.279 163.385 194.279 163.905C194.279 164.335 194.334 164.705 194.444 165.015C194.554 165.325 194.704 165.58 194.894 165.78C195.084 165.98 195.299 166.13 195.539 166.23C195.789 166.32 196.054 166.365 196.334 166.365ZM201.885 168V160.455C202.225 160.365 202.66 160.275 203.19 160.185C203.72 160.085 204.33 160.035 205.02 160.035C205.86 160.035 206.51 160.185 206.97 160.485C207.44 160.785 207.77 161.205 207.96 161.745C208.15 162.275 208.245 162.9 208.245 163.62V168H206.76V163.92C206.76 163.28 206.7 162.775 206.58 162.405C206.47 162.025 206.28 161.75 206.01 161.58C205.74 161.41 205.36 161.325 204.87 161.325C204.54 161.325 204.235 161.345 203.955 161.385C203.685 161.415 203.495 161.445 203.385 161.475V168H201.885ZM84.29 200V189.605H85.835V193.91H90.8V189.605H92.345V200H90.8V195.23H85.835V200H84.29ZM98.3598 200.18C97.4398 200.18 96.6848 200.005 96.0948 199.655C95.5148 199.295 95.0848 198.81 94.8048 198.2C94.5348 197.59 94.3998 196.895 94.3998 196.115C94.3998 195.195 94.5698 194.435 94.9098 193.835C95.2498 193.225 95.6898 192.77 96.2298 192.47C96.7798 192.16 97.3548 192.005 97.9548 192.005C98.6348 192.005 99.2198 192.15 99.7098 192.44C100.21 192.72 100.595 193.15 100.865 193.73C101.135 194.3 101.27 195.025 101.27 195.905C101.27 195.995 101.265 196.095 101.255 196.205C101.255 196.315 101.25 196.42 101.24 196.52H95.9298C95.9798 197.26 96.2098 197.84 96.6198 198.26C97.0398 198.67 97.6648 198.875 98.4948 198.875C98.9748 198.875 99.3848 198.83 99.7248 198.74C100.075 198.65 100.34 198.565 100.52 198.485L100.745 199.715C100.575 199.805 100.265 199.905 99.8148 200.015C99.3748 200.125 98.8898 200.18 98.3598 200.18ZM95.9598 195.395H99.7998C99.7898 194.975 99.7148 194.605 99.5748 194.285C99.4348 193.965 99.2298 193.715 98.9598 193.535C98.6998 193.355 98.3698 193.265 97.9698 193.265C97.5598 193.265 97.2098 193.365 96.9198 193.565C96.6298 193.765 96.4048 194.03 96.2448 194.36C96.0848 194.68 95.9898 195.025 95.9598 195.395ZM106.393 200.165C105.573 200.165 104.928 200.015 104.458 199.715C103.988 199.405 103.653 198.98 103.453 198.44C103.263 197.9 103.168 197.27 103.168 196.55V192.185H104.653V196.265C104.653 196.895 104.713 197.4 104.833 197.78C104.953 198.16 105.148 198.435 105.418 198.605C105.698 198.775 106.073 198.86 106.543 198.86C106.873 198.86 107.178 198.845 107.458 198.815C107.738 198.775 107.933 198.74 108.043 198.71V192.185H109.513V199.73C109.193 199.82 108.763 199.915 108.223 200.015C107.693 200.115 107.083 200.165 106.393 200.165ZM111.9 200V192.575C112.21 192.455 112.605 192.335 113.085 192.215C113.575 192.095 114.145 192.035 114.795 192.035C114.985 192.035 115.185 192.05 115.395 192.08C115.615 192.1 115.82 192.13 116.01 192.17C116.2 192.2 116.345 192.24 116.445 192.29L116.175 193.535C116.045 193.495 115.85 193.45 115.59 193.4C115.34 193.35 115.035 193.325 114.675 193.325C114.375 193.325 114.105 193.35 113.865 193.4C113.635 193.44 113.48 193.48 113.4 193.52V200H111.9ZM117.789 200V192.185H119.289V200H117.789ZM118.539 190.52C118.269 190.52 118.039 190.435 117.849 190.265C117.659 190.085 117.564 189.845 117.564 189.545C117.564 189.245 117.659 189.01 117.849 188.84C118.039 188.66 118.269 188.57 118.539 188.57C118.809 188.57 119.039 188.66 119.229 188.84C119.419 189.01 119.514 189.245 119.514 189.545C119.514 189.845 119.419 190.085 119.229 190.265C119.039 190.435 118.809 190.52 118.539 190.52ZM123.516 200.195C122.836 200.195 122.291 200.135 121.881 200.015C121.481 199.895 121.211 199.805 121.071 199.745L121.371 198.485C121.571 198.555 121.851 198.65 122.211 198.77C122.571 198.88 123.006 198.935 123.516 198.935C124.026 198.935 124.421 198.865 124.701 198.725C124.991 198.585 125.136 198.335 125.136 197.975C125.136 197.755 125.076 197.575 124.956 197.435C124.846 197.295 124.671 197.165 124.431 197.045C124.191 196.915 123.866 196.77 123.456 196.61C123.046 196.44 122.671 196.265 122.331 196.085C121.991 195.895 121.721 195.655 121.521 195.365C121.321 195.075 121.221 194.695 121.221 194.225C121.221 193.775 121.336 193.385 121.566 193.055C121.796 192.725 122.121 192.47 122.541 192.29C122.971 192.1 123.476 192.005 124.056 192.005C124.566 192.005 125.011 192.05 125.391 192.14C125.781 192.22 126.071 192.3 126.261 192.38L125.961 193.61C125.791 193.53 125.556 193.45 125.256 193.37C124.966 193.28 124.581 193.235 124.101 193.235C123.701 193.235 123.366 193.31 123.096 193.46C122.836 193.61 122.706 193.845 122.706 194.165C122.706 194.385 122.756 194.565 122.856 194.705C122.966 194.845 123.136 194.975 123.366 195.095C123.596 195.215 123.896 195.345 124.266 195.485C124.766 195.675 125.191 195.87 125.541 196.07C125.891 196.27 126.156 196.52 126.336 196.82C126.526 197.11 126.621 197.49 126.621 197.96C126.621 198.45 126.496 198.86 126.246 199.19C126.006 199.52 125.651 199.77 125.181 199.94C124.721 200.11 124.166 200.195 123.516 200.195ZM131.138 200.165C130.428 200.165 129.868 200.045 129.458 199.805C129.058 199.555 128.773 199.19 128.603 198.71C128.443 198.23 128.363 197.65 128.363 196.97V190.04L129.848 189.785V192.185H132.773V193.43H129.848V197.015C129.848 197.485 129.903 197.86 130.013 198.14C130.123 198.41 130.283 198.6 130.493 198.71C130.713 198.82 130.983 198.875 131.303 198.875C131.643 198.875 131.938 198.84 132.188 198.77C132.448 198.69 132.663 198.615 132.833 198.545L133.088 199.73C132.898 199.82 132.633 199.915 132.293 200.015C131.953 200.115 131.568 200.165 131.138 200.165ZM134.576 200V192.185H136.076V200H134.576ZM135.326 190.52C135.056 190.52 134.826 190.435 134.636 190.265C134.446 190.085 134.351 189.845 134.351 189.545C134.351 189.245 134.446 189.01 134.636 188.84C134.826 188.66 135.056 188.57 135.326 188.57C135.596 188.57 135.826 188.66 136.016 188.84C136.206 189.01 136.301 189.245 136.301 189.545C136.301 189.845 136.206 190.085 136.016 190.265C135.826 190.435 135.596 190.52 135.326 190.52ZM141.878 200.18C141.008 200.18 140.288 200.01 139.718 199.67C139.148 199.32 138.723 198.84 138.443 198.23C138.163 197.61 138.023 196.9 138.023 196.1C138.023 195.31 138.173 194.61 138.473 194C138.773 193.38 139.203 192.895 139.763 192.545C140.333 192.185 141.013 192.005 141.803 192.005C142.213 192.005 142.598 192.04 142.958 192.11C143.328 192.18 143.633 192.275 143.873 192.395L143.543 193.61C143.333 193.53 143.103 193.46 142.853 193.4C142.603 193.34 142.288 193.31 141.908 193.31C141.138 193.31 140.553 193.56 140.153 194.06C139.753 194.55 139.553 195.23 139.553 196.1C139.553 196.66 139.633 197.15 139.793 197.57C139.963 197.98 140.233 198.3 140.603 198.53C140.973 198.76 141.463 198.875 142.073 198.875C142.423 198.875 142.748 198.84 143.048 198.77C143.348 198.69 143.583 198.605 143.753 198.515L144.008 199.76C143.798 199.87 143.498 199.965 143.108 200.045C142.718 200.135 142.308 200.18 141.878 200.18ZM149.183 200V189.605H155.603V190.925H150.728V193.91H155.063V195.2H150.728V198.68H155.963V200H149.183ZM159.568 200C159.318 199.48 159.063 198.92 158.803 198.32C158.543 197.72 158.288 197.09 158.038 196.43C157.788 195.76 157.543 195.075 157.303 194.375C157.073 193.665 156.858 192.935 156.658 192.185H158.233C158.383 192.825 158.568 193.515 158.788 194.255C159.018 194.995 159.263 195.72 159.523 196.43C159.783 197.13 160.028 197.75 160.258 198.29C160.438 197.89 160.623 197.44 160.813 196.94C161.003 196.43 161.188 195.905 161.368 195.365C161.548 194.815 161.718 194.27 161.878 193.73C162.038 193.18 162.173 192.665 162.283 192.185H163.798C163.598 192.935 163.383 193.665 163.153 194.375C162.923 195.075 162.678 195.76 162.418 196.43C162.168 197.09 161.913 197.72 161.653 198.32C161.403 198.92 161.148 199.48 160.888 200H159.568ZM167.697 200.165C167.097 200.165 166.562 200.085 166.092 199.925C165.632 199.765 165.272 199.5 165.012 199.13C164.752 198.76 164.622 198.275 164.622 197.675C164.622 197.085 164.767 196.615 165.057 196.265C165.347 195.905 165.742 195.645 166.242 195.485C166.742 195.325 167.297 195.245 167.907 195.245C168.187 195.245 168.467 195.265 168.747 195.305C169.037 195.345 169.227 195.385 169.317 195.425V195.065C169.317 194.745 169.272 194.45 169.182 194.18C169.092 193.91 168.922 193.69 168.672 193.52C168.432 193.35 168.072 193.265 167.592 193.265C167.092 193.265 166.682 193.3 166.362 193.37C166.052 193.44 165.807 193.51 165.627 193.58L165.432 192.35C165.632 192.27 165.937 192.195 166.347 192.125C166.757 192.045 167.217 192.005 167.727 192.005C168.487 192.005 169.087 192.13 169.527 192.38C169.977 192.63 170.297 192.985 170.487 193.445C170.677 193.895 170.772 194.415 170.772 195.005V199.805C170.522 199.865 170.122 199.94 169.572 200.03C169.022 200.12 168.397 200.165 167.697 200.165ZM167.847 198.95C168.157 198.95 168.437 198.94 168.687 198.92C168.947 198.9 169.157 198.875 169.317 198.845V196.535C169.227 196.495 169.072 196.455 168.852 196.415C168.632 196.375 168.367 196.355 168.057 196.355C167.747 196.355 167.442 196.39 167.142 196.46C166.852 196.52 166.607 196.64 166.407 196.82C166.217 197 166.122 197.275 166.122 197.645C166.122 198.135 166.277 198.475 166.587 198.665C166.897 198.855 167.317 198.95 167.847 198.95ZM175.517 200.135C174.917 200.115 174.437 200.025 174.077 199.865C173.717 199.695 173.457 199.445 173.297 199.115C173.147 198.785 173.072 198.36 173.072 197.84V188.615L174.557 188.36V197.645C174.557 198.095 174.637 198.405 174.797 198.575C174.967 198.745 175.277 198.855 175.727 198.905L175.517 200.135ZM180.426 200.165C179.606 200.165 178.961 200.015 178.491 199.715C178.021 199.405 177.686 198.98 177.486 198.44C177.296 197.9 177.201 197.27 177.201 196.55V192.185H178.686V196.265C178.686 196.895 178.746 197.4 178.866 197.78C178.986 198.16 179.181 198.435 179.451 198.605C179.731 198.775 180.106 198.86 180.576 198.86C180.906 198.86 181.211 198.845 181.491 198.815C181.771 198.775 181.966 198.74 182.076 198.71V192.185H183.546V199.73C183.226 199.82 182.796 199.915 182.256 200.015C181.726 200.115 181.116 200.165 180.426 200.165ZM188.468 200.165C187.868 200.165 187.333 200.085 186.863 199.925C186.403 199.765 186.043 199.5 185.783 199.13C185.523 198.76 185.393 198.275 185.393 197.675C185.393 197.085 185.538 196.615 185.828 196.265C186.118 195.905 186.513 195.645 187.013 195.485C187.513 195.325 188.068 195.245 188.678 195.245C188.958 195.245 189.238 195.265 189.518 195.305C189.808 195.345 189.998 195.385 190.088 195.425V195.065C190.088 194.745 190.043 194.45 189.953 194.18C189.863 193.91 189.693 193.69 189.443 193.52C189.203 193.35 188.843 193.265 188.363 193.265C187.863 193.265 187.453 193.3 187.133 193.37C186.823 193.44 186.578 193.51 186.398 193.58L186.203 192.35C186.403 192.27 186.708 192.195 187.118 192.125C187.528 192.045 187.988 192.005 188.498 192.005C189.258 192.005 189.858 192.13 190.298 192.38C190.748 192.63 191.068 192.985 191.258 193.445C191.448 193.895 191.543 194.415 191.543 195.005V199.805C191.293 199.865 190.893 199.94 190.343 200.03C189.793 200.12 189.168 200.165 188.468 200.165ZM188.618 198.95C188.928 198.95 189.208 198.94 189.458 198.92C189.718 198.9 189.928 198.875 190.088 198.845V196.535C189.998 196.495 189.843 196.455 189.623 196.415C189.403 196.375 189.138 196.355 188.828 196.355C188.518 196.355 188.213 196.39 187.913 196.46C187.623 196.52 187.378 196.64 187.178 196.82C186.988 197 186.893 197.275 186.893 197.645C186.893 198.135 187.048 198.475 187.358 198.665C187.668 198.855 188.088 198.95 188.618 198.95ZM196.558 200.165C195.848 200.165 195.288 200.045 194.878 199.805C194.478 199.555 194.193 199.19 194.023 198.71C193.863 198.23 193.783 197.65 193.783 196.97V190.04L195.268 189.785V192.185H198.193V193.43H195.268V197.015C195.268 197.485 195.323 197.86 195.433 198.14C195.543 198.41 195.703 198.6 195.913 198.71C196.133 198.82 196.403 198.875 196.723 198.875C197.063 198.875 197.358 198.84 197.608 198.77C197.868 198.69 198.083 198.615 198.253 198.545L198.508 199.73C198.318 199.82 198.053 199.915 197.713 200.015C197.373 200.115 196.988 200.165 196.558 200.165ZM199.996 200V192.185H201.496V200H199.996ZM200.746 190.52C200.476 190.52 200.246 190.435 200.056 190.265C199.866 190.085 199.771 189.845 199.771 189.545C199.771 189.245 199.866 189.01 200.056 188.84C200.246 188.66 200.476 188.57 200.746 188.57C201.016 188.57 201.246 188.66 201.436 188.84C201.626 189.01 201.721 189.245 201.721 189.545C201.721 189.845 201.626 190.085 201.436 190.265C201.246 190.435 201.016 190.52 200.746 190.52ZM207.118 200.195C206.398 200.195 205.758 200.025 205.198 199.685C204.648 199.345 204.218 198.87 203.908 198.26C203.598 197.64 203.443 196.915 203.443 196.085C203.443 195.265 203.598 194.55 203.908 193.94C204.228 193.33 204.663 192.855 205.213 192.515C205.773 192.175 206.408 192.005 207.118 192.005C207.838 192.005 208.473 192.175 209.023 192.515C209.573 192.855 210.003 193.33 210.313 193.94C210.633 194.55 210.793 195.265 210.793 196.085C210.793 196.915 210.638 197.64 210.328 198.26C210.018 198.87 209.588 199.345 209.038 199.685C208.498 200.025 207.858 200.195 207.118 200.195ZM207.118 198.89C207.568 198.89 207.948 198.775 208.258 198.545C208.578 198.315 208.823 197.99 208.993 197.57C209.173 197.15 209.263 196.655 209.263 196.085C209.263 195.525 209.173 195.035 208.993 194.615C208.823 194.195 208.578 193.875 208.258 193.655C207.948 193.425 207.568 193.31 207.118 193.31C206.678 193.31 206.298 193.425 205.978 193.655C205.658 193.875 205.408 194.195 205.228 194.615C205.058 195.035 204.973 195.525 204.973 196.085C204.973 196.655 205.058 197.15 205.228 197.57C205.408 197.99 205.658 198.315 205.978 198.545C206.298 198.775 206.678 198.89 207.118 198.89ZM212.74 200V192.455C213.08 192.365 213.515 192.275 214.045 192.185C214.575 192.085 215.185 192.035 215.875 192.035C216.715 192.035 217.365 192.185 217.825 192.485C218.295 192.785 218.625 193.205 218.815 193.745C219.005 194.275 219.1 194.9 219.1 195.62V200H217.615V195.92C217.615 195.28 217.555 194.775 217.435 194.405C217.325 194.025 217.135 193.75 216.865 193.58C216.595 193.41 216.215 193.325 215.725 193.325C215.395 193.325 215.09 193.345 214.81 193.385C214.54 193.415 214.35 193.445 214.24 193.475V200H212.74ZM84.29 232V221.785C84.71 221.685 85.175 221.615 85.685 221.575C86.195 221.525 86.66 221.5 87.08 221.5C88.55 221.5 89.67 221.775 90.44 222.325C91.21 222.875 91.595 223.7 91.595 224.8C91.595 225.55 91.405 226.155 91.025 226.615C90.655 227.075 90.14 227.415 89.48 227.635C89.66 227.865 89.87 228.145 90.11 228.475C90.35 228.805 90.595 229.17 90.845 229.57C91.105 229.96 91.355 230.365 91.595 230.785C91.835 231.205 92.045 231.61 92.225 232H90.515C90.255 231.5 89.965 231 89.645 230.5C89.335 229.99 89.025 229.515 88.715 229.075C88.415 228.625 88.14 228.245 87.89 227.935C87.79 227.935 87.69 227.94 87.59 227.95C87.5 227.96 87.405 227.965 87.305 227.965H85.835V232H84.29ZM85.835 226.705H86.945C87.565 226.705 88.1 226.66 88.55 226.57C89.01 226.47 89.365 226.28 89.615 226C89.865 225.72 89.99 225.315 89.99 224.785C89.99 224.275 89.865 223.88 89.615 223.6C89.375 223.32 89.04 223.125 88.61 223.015C88.19 222.895 87.72 222.835 87.2 222.835C86.91 222.835 86.65 222.845 86.42 222.865C86.19 222.885 85.995 222.905 85.835 222.925V226.705ZM97.1439 232.18C96.2239 232.18 95.4689 232.005 94.8789 231.655C94.2989 231.295 93.8689 230.81 93.5889 230.2C93.3189 229.59 93.1839 228.895 93.1839 228.115C93.1839 227.195 93.3539 226.435 93.6939 225.835C94.0339 225.225 94.4739 224.77 95.0139 224.47C95.5639 224.16 96.1389 224.005 96.7389 224.005C97.4189 224.005 98.0039 224.15 98.4939 224.44C98.9939 224.72 99.3789 225.15 99.6489 225.73C99.9189 226.3 100.054 227.025 100.054 227.905C100.054 227.995 100.049 228.095 100.039 228.205C100.039 228.315 100.034 228.42 100.024 228.52H94.7139C94.7639 229.26 94.9939 229.84 95.4039 230.26C95.8239 230.67 96.4489 230.875 97.2789 230.875C97.7589 230.875 98.1689 230.83 98.5089 230.74C98.8589 230.65 99.1239 230.565 99.3039 230.485L99.5289 231.715C99.3589 231.805 99.0489 231.905 98.5989 232.015C98.1589 232.125 97.6739 232.18 97.1439 232.18ZM94.7439 227.395H98.5839C98.5739 226.975 98.4989 226.605 98.3589 226.285C98.2189 225.965 98.0139 225.715 97.7439 225.535C97.4839 225.355 97.1539 225.265 96.7539 225.265C96.3439 225.265 95.9939 225.365 95.7039 225.565C95.4139 225.765 95.1889 226.03 95.0289 226.36C94.8689 226.68 94.7739 227.025 94.7439 227.395ZM103.887 232.195C103.207 232.195 102.662 232.135 102.252 232.015C101.852 231.895 101.582 231.805 101.442 231.745L101.742 230.485C101.942 230.555 102.222 230.65 102.582 230.77C102.942 230.88 103.377 230.935 103.887 230.935C104.397 230.935 104.792 230.865 105.072 230.725C105.362 230.585 105.507 230.335 105.507 229.975C105.507 229.755 105.447 229.575 105.327 229.435C105.217 229.295 105.042 229.165 104.802 229.045C104.562 228.915 104.237 228.77 103.827 228.61C103.417 228.44 103.042 228.265 102.702 228.085C102.362 227.895 102.092 227.655 101.892 227.365C101.692 227.075 101.592 226.695 101.592 226.225C101.592 225.775 101.707 225.385 101.937 225.055C102.167 224.725 102.492 224.47 102.912 224.29C103.342 224.1 103.847 224.005 104.427 224.005C104.937 224.005 105.382 224.05 105.762 224.14C106.152 224.22 106.442 224.3 106.632 224.38L106.332 225.61C106.162 225.53 105.927 225.45 105.627 225.37C105.337 225.28 104.952 225.235 104.472 225.235C104.072 225.235 103.737 225.31 103.467 225.46C103.207 225.61 103.077 225.845 103.077 226.165C103.077 226.385 103.127 226.565 103.227 226.705C103.337 226.845 103.507 226.975 103.737 227.095C103.967 227.215 104.267 227.345 104.637 227.485C105.137 227.675 105.562 227.87 105.912 228.07C106.262 228.27 106.527 228.52 106.707 228.82C106.897 229.11 106.992 229.49 106.992 229.96C106.992 230.45 106.867 230.86 106.617 231.19C106.377 231.52 106.022 231.77 105.552 231.94C105.092 232.11 104.537 232.195 103.887 232.195ZM108.794 234.775V224.455C109.024 224.385 109.289 224.32 109.589 224.26C109.899 224.19 110.239 224.135 110.609 224.095C110.979 224.055 111.369 224.035 111.779 224.035C112.589 224.035 113.284 224.2 113.864 224.53C114.454 224.85 114.909 225.315 115.229 225.925C115.559 226.535 115.724 227.26 115.724 228.1C115.724 228.9 115.584 229.605 115.304 230.215C115.034 230.825 114.639 231.305 114.119 231.655C113.609 231.995 112.979 232.165 112.229 232.165C111.809 232.165 111.429 232.11 111.089 232C110.759 231.89 110.494 231.775 110.294 231.655V234.775H108.794ZM112.004 230.875C112.394 230.875 112.724 230.81 112.994 230.68C113.274 230.54 113.499 230.35 113.669 230.11C113.849 229.86 113.979 229.57 114.059 229.24C114.139 228.9 114.179 228.53 114.179 228.13C114.179 227.55 114.079 227.05 113.879 226.63C113.689 226.2 113.414 225.875 113.054 225.655C112.694 225.435 112.264 225.325 111.764 225.325C111.404 225.325 111.099 225.345 110.849 225.385C110.609 225.415 110.424 225.445 110.294 225.475V230.335C110.454 230.455 110.684 230.575 110.984 230.695C111.294 230.815 111.634 230.875 112.004 230.875ZM120.912 232.195C120.192 232.195 119.552 232.025 118.992 231.685C118.442 231.345 118.012 230.87 117.702 230.26C117.392 229.64 117.237 228.915 117.237 228.085C117.237 227.265 117.392 226.55 117.702 225.94C118.022 225.33 118.457 224.855 119.007 224.515C119.567 224.175 120.202 224.005 120.912 224.005C121.632 224.005 122.267 224.175 122.817 224.515C123.367 224.855 123.797 225.33 124.107 225.94C124.427 226.55 124.587 227.265 124.587 228.085C124.587 228.915 124.432 229.64 124.122 230.26C123.812 230.87 123.382 231.345 122.832 231.685C122.292 232.025 121.652 232.195 120.912 232.195ZM120.912 230.89C121.362 230.89 121.742 230.775 122.052 230.545C122.372 230.315 122.617 229.99 122.787 229.57C122.967 229.15 123.057 228.655 123.057 228.085C123.057 227.525 122.967 227.035 122.787 226.615C122.617 226.195 122.372 225.875 122.052 225.655C121.742 225.425 121.362 225.31 120.912 225.31C120.472 225.31 120.092 225.425 119.772 225.655C119.452 225.875 119.202 226.195 119.022 226.615C118.852 227.035 118.767 227.525 118.767 228.085C118.767 228.655 118.852 229.15 119.022 229.57C119.202 229.99 119.452 230.315 119.772 230.545C120.092 230.775 120.472 230.89 120.912 230.89ZM126.534 232V224.455C126.874 224.365 127.309 224.275 127.839 224.185C128.369 224.085 128.979 224.035 129.669 224.035C130.509 224.035 131.159 224.185 131.619 224.485C132.089 224.785 132.419 225.205 132.609 225.745C132.799 226.275 132.894 226.9 132.894 227.62V232H131.409V227.92C131.409 227.28 131.349 226.775 131.229 226.405C131.119 226.025 130.929 225.75 130.659 225.58C130.389 225.41 130.009 225.325 129.519 225.325C129.189 225.325 128.884 225.345 128.604 225.385C128.334 225.415 128.144 225.445 128.034 225.475V232H126.534ZM137.051 232.195C136.371 232.195 135.826 232.135 135.416 232.015C135.016 231.895 134.746 231.805 134.606 231.745L134.906 230.485C135.106 230.555 135.386 230.65 135.746 230.77C136.106 230.88 136.541 230.935 137.051 230.935C137.561 230.935 137.956 230.865 138.236 230.725C138.526 230.585 138.671 230.335 138.671 229.975C138.671 229.755 138.611 229.575 138.491 229.435C138.381 229.295 138.206 229.165 137.966 229.045C137.726 228.915 137.401 228.77 136.991 228.61C136.581 228.44 136.206 228.265 135.866 228.085C135.526 227.895 135.256 227.655 135.056 227.365C134.856 227.075 134.756 226.695 134.756 226.225C134.756 225.775 134.871 225.385 135.101 225.055C135.331 224.725 135.656 224.47 136.076 224.29C136.506 224.1 137.011 224.005 137.591 224.005C138.101 224.005 138.546 224.05 138.926 224.14C139.316 224.22 139.606 224.3 139.796 224.38L139.496 225.61C139.326 225.53 139.091 225.45 138.791 225.37C138.501 225.28 138.116 225.235 137.636 225.235C137.236 225.235 136.901 225.31 136.631 225.46C136.371 225.61 136.241 225.845 136.241 226.165C136.241 226.385 136.291 226.565 136.391 226.705C136.501 226.845 136.671 226.975 136.901 227.095C137.131 227.215 137.431 227.345 137.801 227.485C138.301 227.675 138.726 227.87 139.076 228.07C139.426 228.27 139.691 228.52 139.871 228.82C140.061 229.11 140.156 229.49 140.156 229.96C140.156 230.45 140.031 230.86 139.781 231.19C139.541 231.52 139.186 231.77 138.716 231.94C138.256 232.11 137.701 232.195 137.051 232.195ZM141.958 232V224.185H143.458V232H141.958ZM142.708 222.52C142.438 222.52 142.208 222.435 142.018 222.265C141.828 222.085 141.733 221.845 141.733 221.545C141.733 221.245 141.828 221.01 142.018 220.84C142.208 220.66 142.438 220.57 142.708 220.57C142.978 220.57 143.208 220.66 143.398 220.84C143.588 221.01 143.683 221.245 143.683 221.545C143.683 221.845 143.588 222.085 143.398 222.265C143.208 222.435 142.978 222.52 142.708 222.52ZM147.688 232C147.438 231.48 147.183 230.92 146.923 230.32C146.663 229.72 146.408 229.09 146.158 228.43C145.908 227.76 145.663 227.075 145.423 226.375C145.193 225.665 144.978 224.935 144.778 224.185H146.353C146.503 224.825 146.688 225.515 146.908 226.255C147.138 226.995 147.383 227.72 147.643 228.43C147.903 229.13 148.148 229.75 148.378 230.29C148.558 229.89 148.743 229.44 148.933 228.94C149.123 228.43 149.308 227.905 149.488 227.365C149.668 226.815 149.838 226.27 149.998 225.73C150.158 225.18 150.293 224.665 150.403 224.185H151.918C151.718 224.935 151.503 225.665 151.273 226.375C151.043 227.075 150.798 227.76 150.538 228.43C150.288 229.09 150.033 229.72 149.773 230.32C149.523 230.92 149.268 231.48 149.008 232H147.688ZM156.792 232.18C155.872 232.18 155.117 232.005 154.527 231.655C153.947 231.295 153.517 230.81 153.237 230.2C152.967 229.59 152.832 228.895 152.832 228.115C152.832 227.195 153.002 226.435 153.342 225.835C153.682 225.225 154.122 224.77 154.662 224.47C155.212 224.16 155.787 224.005 156.387 224.005C157.067 224.005 157.652 224.15 158.142 224.44C158.642 224.72 159.027 225.15 159.297 225.73C159.567 226.3 159.702 227.025 159.702 227.905C159.702 227.995 159.697 228.095 159.687 228.205C159.687 228.315 159.682 228.42 159.672 228.52H154.362C154.412 229.26 154.642 229.84 155.052 230.26C155.472 230.67 156.097 230.875 156.927 230.875C157.407 230.875 157.817 230.83 158.157 230.74C158.507 230.65 158.772 230.565 158.952 230.485L159.177 231.715C159.007 231.805 158.697 231.905 158.247 232.015C157.807 232.125 157.322 232.18 156.792 232.18ZM154.392 227.395H158.232C158.222 226.975 158.147 226.605 158.007 226.285C157.867 225.965 157.662 225.715 157.392 225.535C157.132 225.355 156.802 225.265 156.402 225.265C155.992 225.265 155.642 225.365 155.352 225.565C155.062 225.765 154.837 226.03 154.677 226.36C154.517 226.68 154.422 227.025 154.392 227.395ZM168.041 232.105C167.621 232.105 167.161 232.085 166.661 232.045C166.171 232.005 165.711 231.935 165.281 231.835V221.785C165.711 221.685 166.181 221.615 166.691 221.575C167.201 221.525 167.666 221.5 168.086 221.5C169.236 221.5 170.241 221.69 171.101 222.07C171.971 222.45 172.651 223.03 173.141 223.81C173.631 224.59 173.876 225.585 173.876 226.795C173.876 227.985 173.631 228.975 173.141 229.765C172.661 230.545 171.981 231.13 171.101 231.52C170.231 231.91 169.211 232.105 168.041 232.105ZM168.161 230.77C169.531 230.77 170.556 230.42 171.236 229.72C171.916 229.01 172.256 228.035 172.256 226.795C172.256 225.545 171.921 224.575 171.251 223.885C170.581 223.185 169.566 222.835 168.206 222.835C167.816 222.835 167.511 222.845 167.291 222.865C167.081 222.885 166.926 222.905 166.826 222.925V230.695C166.916 230.705 167.061 230.72 167.261 230.74C167.461 230.76 167.761 230.77 168.161 230.77ZM179.454 232.18C178.534 232.18 177.779 232.005 177.189 231.655C176.609 231.295 176.179 230.81 175.899 230.2C175.629 229.59 175.494 228.895 175.494 228.115C175.494 227.195 175.664 226.435 176.004 225.835C176.344 225.225 176.784 224.77 177.324 224.47C177.874 224.16 178.449 224.005 179.049 224.005C179.729 224.005 180.314 224.15 180.804 224.44C181.304 224.72 181.689 225.15 181.959 225.73C182.229 226.3 182.364 227.025 182.364 227.905C182.364 227.995 182.359 228.095 182.349 228.205C182.349 228.315 182.344 228.42 182.334 228.52H177.024C177.074 229.26 177.304 229.84 177.714 230.26C178.134 230.67 178.759 230.875 179.589 230.875C180.069 230.875 180.479 230.83 180.819 230.74C181.169 230.65 181.434 230.565 181.614 230.485L181.839 231.715C181.669 231.805 181.359 231.905 180.909 232.015C180.469 232.125 179.984 232.18 179.454 232.18ZM177.054 227.395H180.894C180.884 226.975 180.809 226.605 180.669 226.285C180.529 225.965 180.324 225.715 180.054 225.535C179.794 225.355 179.464 225.265 179.064 225.265C178.654 225.265 178.304 225.365 178.014 225.565C177.724 225.765 177.499 226.03 177.339 226.36C177.179 226.68 177.084 227.025 177.054 227.395ZM186.196 232.195C185.516 232.195 184.971 232.135 184.561 232.015C184.161 231.895 183.891 231.805 183.751 231.745L184.051 230.485C184.251 230.555 184.531 230.65 184.891 230.77C185.251 230.88 185.686 230.935 186.196 230.935C186.706 230.935 187.101 230.865 187.381 230.725C187.671 230.585 187.816 230.335 187.816 229.975C187.816 229.755 187.756 229.575 187.636 229.435C187.526 229.295 187.351 229.165 187.111 229.045C186.871 228.915 186.546 228.77 186.136 228.61C185.726 228.44 185.351 228.265 185.011 228.085C184.671 227.895 184.401 227.655 184.201 227.365C184.001 227.075 183.901 226.695 183.901 226.225C183.901 225.775 184.016 225.385 184.246 225.055C184.476 224.725 184.801 224.47 185.221 224.29C185.651 224.1 186.156 224.005 186.736 224.005C187.246 224.005 187.691 224.05 188.071 224.14C188.461 224.22 188.751 224.3 188.941 224.38L188.641 225.61C188.471 225.53 188.236 225.45 187.936 225.37C187.646 225.28 187.261 225.235 186.781 225.235C186.381 225.235 186.046 225.31 185.776 225.46C185.516 225.61 185.386 225.845 185.386 226.165C185.386 226.385 185.436 226.565 185.536 226.705C185.646 226.845 185.816 226.975 186.046 227.095C186.276 227.215 186.576 227.345 186.946 227.485C187.446 227.675 187.871 227.87 188.221 228.07C188.571 228.27 188.836 228.52 189.016 228.82C189.206 229.11 189.301 229.49 189.301 229.96C189.301 230.45 189.176 230.86 188.926 231.19C188.686 231.52 188.331 231.77 187.861 231.94C187.401 232.11 186.846 232.195 186.196 232.195ZM191.104 232V224.185H192.604V232H191.104ZM191.854 222.52C191.584 222.52 191.354 222.435 191.164 222.265C190.974 222.085 190.879 221.845 190.879 221.545C190.879 221.245 190.974 221.01 191.164 220.84C191.354 220.66 191.584 220.57 191.854 220.57C192.124 220.57 192.354 220.66 192.544 220.84C192.734 221.01 192.829 221.245 192.829 221.545C192.829 221.845 192.734 222.085 192.544 222.265C192.354 222.435 192.124 222.52 191.854 222.52ZM197.536 234.82C197.046 234.82 196.581 234.78 196.141 234.7C195.701 234.62 195.316 234.52 194.986 234.4L195.256 233.125C195.546 233.235 195.891 233.33 196.291 233.41C196.691 233.5 197.116 233.545 197.566 233.545C198.106 233.545 198.541 233.475 198.871 233.335C199.211 233.195 199.456 232.975 199.606 232.675C199.766 232.375 199.846 231.995 199.846 231.535V231.115C199.676 231.215 199.431 231.325 199.111 231.445C198.801 231.555 198.421 231.61 197.971 231.61C197.321 231.61 196.736 231.48 196.216 231.22C195.696 230.95 195.286 230.54 194.986 229.99C194.696 229.44 194.551 228.74 194.551 227.89C194.551 227.14 194.701 226.475 195.001 225.895C195.311 225.315 195.751 224.86 196.321 224.53C196.891 224.2 197.571 224.035 198.361 224.035C199.001 224.035 199.571 224.08 200.071 224.17C200.571 224.26 200.986 224.355 201.316 224.455V231.37C201.316 232.58 201.001 233.455 200.371 233.995C199.751 234.545 198.806 234.82 197.536 234.82ZM198.136 230.365C198.486 230.365 198.811 230.315 199.111 230.215C199.421 230.115 199.661 229.995 199.831 229.855V225.445C199.691 225.405 199.506 225.37 199.276 225.34C199.056 225.3 198.756 225.28 198.376 225.28C197.886 225.28 197.471 225.39 197.131 225.61C196.791 225.83 196.531 226.14 196.351 226.54C196.171 226.93 196.081 227.385 196.081 227.905C196.081 228.335 196.136 228.705 196.246 229.015C196.356 229.325 196.506 229.58 196.696 229.78C196.886 229.98 197.101 230.13 197.341 230.23C197.591 230.32 197.856 230.365 198.136 230.365ZM203.687 232V224.455C204.027 224.365 204.462 224.275 204.992 224.185C205.522 224.085 206.132 224.035 206.822 224.035C207.662 224.035 208.312 224.185 208.772 224.485C209.242 224.785 209.572 225.205 209.762 225.745C209.952 226.275 210.047 226.9 210.047 227.62V232H208.562V227.92C208.562 227.28 208.502 226.775 208.382 226.405C208.272 226.025 208.082 225.75 207.812 225.58C207.542 225.41 207.162 225.325 206.672 225.325C206.342 225.325 206.037 225.345 205.757 225.385C205.487 225.415 205.297 225.445 205.187 225.475V232H203.687Z" fill="black"/>
<path d="M21.8 32.208C21.352 32.208 20.904 32.144 20.456 32.016C20.008 31.888 19.6293 31.7227 19.32 31.52L19.848 30.064C20.1253 30.256 20.4293 30.4107 20.76 30.528C21.1013 30.6453 21.4267 30.704 21.736 30.704C22.2267 30.704 22.616 30.5707 22.904 30.304C23.192 30.0373 23.336 29.664 23.336 29.184C23.336 28.8427 23.2667 28.544 23.128 28.288C22.9893 28.0213 22.7867 27.7707 22.52 27.536C22.2533 27.2907 21.9173 27.04 21.512 26.784C21.1067 26.5067 20.7493 26.224 20.44 25.936C20.1413 25.6373 19.912 25.312 19.752 24.96C19.6027 24.5973 19.528 24.1973 19.528 23.76C19.528 23.1733 19.656 22.656 19.912 22.208C20.168 21.7493 20.5307 21.3867 21 21.12C21.48 20.8427 22.0347 20.704 22.664 20.704C23.08 20.704 23.48 20.7573 23.864 20.864C24.248 20.96 24.6 21.0987 24.92 21.28L24.408 22.672C24.1733 22.5227 23.912 22.4107 23.624 22.336C23.3467 22.2507 23.064 22.208 22.776 22.208C22.328 22.208 21.9707 22.3253 21.704 22.56C21.448 22.7947 21.32 23.136 21.32 23.584C21.32 23.872 21.3787 24.1227 21.496 24.336C21.6133 24.5493 21.8053 24.7627 22.072 24.976C22.3387 25.1787 22.6853 25.424 23.112 25.712C23.56 26.0107 23.928 26.3253 24.216 26.656C24.5147 26.9867 24.7387 27.3333 24.888 27.696C25.0373 28.0587 25.112 28.4587 25.112 28.896C25.112 29.5147 24.9787 30.0747 24.712 30.576C24.4453 31.0773 24.0667 31.4773 23.576 31.776C23.0853 32.064 22.4933 32.208 21.8 32.208ZM26.7618 32V19.872L28.4578 19.584V27.088C28.6284 26.832 28.7991 26.5547 28.9698 26.256C29.1511 25.9573 29.3271 25.6533 29.4978 25.344C29.6684 25.024 29.8284 24.7147 29.9778 24.416C30.1378 24.1067 30.2818 23.824 30.4098 23.568H32.2018C31.9778 24.016 31.7271 24.4747 31.4498 24.944C31.1831 25.4027 30.9111 25.8507 30.6338 26.288C30.3564 26.7253 30.0898 27.1307 29.8338 27.504C30.0791 27.7707 30.3191 28.08 30.5538 28.432C30.7991 28.7733 31.0338 29.1467 31.2578 29.552C31.4818 29.9467 31.6898 30.352 31.8818 30.768C32.0738 31.184 32.2391 31.5947 32.3778 32H30.5698C30.4098 31.5307 30.2178 31.0613 29.9938 30.592C29.7804 30.112 29.5458 29.6587 29.2898 29.232C29.0338 28.8053 28.7564 28.432 28.4578 28.112V32H26.7618ZM33.5899 32V23.568H35.2859V32H33.5899ZM34.4379 21.952C34.1499 21.952 33.8992 21.856 33.6859 21.664C33.4832 21.4613 33.3819 21.1947 33.3819 20.864C33.3819 20.544 33.4832 20.2827 33.6859 20.08C33.8992 19.8773 34.1499 19.776 34.4379 19.776C34.7259 19.776 34.9712 19.8773 35.1739 20.08C35.3872 20.2827 35.4939 20.544 35.4939 20.864C35.4939 21.1947 35.3872 21.4613 35.1739 21.664C34.9712 21.856 34.7259 21.952 34.4379 21.952ZM40.1491 32.16C39.5838 32.128 39.1091 32.0213 38.7251 31.84C38.3518 31.648 38.0691 31.3707 37.8771 31.008C37.6958 30.6453 37.6051 30.1973 37.6051 29.664V19.872L39.3011 19.584V29.648C39.3011 30.0107 39.3758 30.2827 39.5251 30.464C39.6851 30.6347 39.9571 30.7413 40.3411 30.784L40.1491 32.16ZM44.3054 32.16C43.74 32.128 43.2654 32.0213 42.8814 31.84C42.508 31.648 42.2254 31.3707 42.0334 31.008C41.852 30.6453 41.7614 30.1973 41.7614 29.664V19.872L43.4574 19.584V29.648C43.4574 30.0107 43.532 30.2827 43.6814 30.464C43.8414 30.6347 44.1134 30.7413 44.4974 30.784L44.3054 32.16ZM47.2936 32.208C46.899 32.208 46.5256 32.16 46.1736 32.064C45.8216 31.968 45.5443 31.8667 45.3416 31.76L45.6616 30.416C45.8856 30.5333 46.1363 30.6293 46.4136 30.704C46.691 30.7787 46.9416 30.816 47.1656 30.816C47.5283 30.816 47.8056 30.72 47.9976 30.528C48.2003 30.336 48.3016 30.096 48.3016 29.808C48.3016 29.5947 48.259 29.408 48.1736 29.248C48.099 29.088 47.9656 28.928 47.7736 28.768C47.5923 28.5973 47.3256 28.4107 46.9736 28.208C46.6216 27.9947 46.3336 27.776 46.1096 27.552C45.8856 27.3173 45.7203 27.0613 45.6136 26.784C45.5176 26.5067 45.4696 26.192 45.4696 25.84C45.4696 25.3493 45.5763 24.9173 45.7896 24.544C46.003 24.1707 46.3016 23.8773 46.6856 23.664C47.0696 23.4507 47.523 23.344 48.0456 23.344C48.3976 23.344 48.723 23.3813 49.0216 23.456C49.3203 23.52 49.555 23.5947 49.7256 23.68L49.4536 25.008C49.2296 24.912 49.0056 24.8427 48.7816 24.8C48.5683 24.7573 48.3603 24.736 48.1576 24.736C47.827 24.736 47.571 24.816 47.3896 24.976C47.219 25.136 47.1336 25.3653 47.1336 25.664C47.1336 25.8667 47.1763 26.048 47.2616 26.208C47.347 26.368 47.4856 26.528 47.6776 26.688C47.8696 26.8373 48.1256 27.0187 48.4456 27.232C48.787 27.4453 49.0696 27.6747 49.2936 27.92C49.5283 28.1547 49.7043 28.416 49.8216 28.704C49.939 28.9813 49.9976 29.296 49.9976 29.648C49.9976 30.16 49.8803 30.608 49.6456 30.992C49.4216 31.3653 49.107 31.664 48.7016 31.888C48.307 32.1013 47.8376 32.208 47.2936 32.208Z" fill="black"/>
</svg>
