<svg width="25" height="21" viewBox="0 0 25 21" fill="none" xmlns="http://www.w3.org/2000/svg">
<path d="M25 1.75017V19.25C25 20.2417 24.3229 21 23.4375 21H21.875V5.11831L12.5 12.6584L3.125 5.11831V21H1.5625C0.676042 21 0 20.2417 0 19.25V1.75017C0 1.25434 0.16875 0.816845 0.448958 0.504181C0.595192 0.341269 0.769039 0.212756 0.960273 0.126203C1.15151 0.0396496 1.35626 -0.00319636 1.5625 0.000185698H2.08333L12.5 8.45844L22.9167 0.000185698H23.4375C23.8802 0.000185698 24.2708 0.189184 24.551 0.504181C24.8323 0.816845 25 1.25434 25 1.75017Z" fill="#050112"/>
</svg>
