<svg width="25" height="20" viewBox="0 0 25 20" fill="none" xmlns="http://www.w3.org/2000/svg">
<path d="M7.22986 0C7.96139 0 8.62623 0.0800109 9.23063 0.2507C9.83191 0.424057 10.3456 0.690759 10.7781 1.06414C11.2054 1.43753 11.5419 1.93092 11.7785 2.55767C12.013 3.18442 12.1328 3.95786 12.1328 4.86465C12.1328 5.85145 11.9556 6.67822 11.6045 7.34498C11.2522 8.01173 10.7323 8.54514 10.0393 8.97186C10.9834 9.31858 11.6816 9.93199 12.1463 10.7988C12.6132 11.6789 12.8393 12.7324 12.8393 13.9459C12.8393 14.946 12.7038 15.7994 12.4121 16.5195C12.1203 17.253 11.7139 17.853 11.2033 18.3198C10.7031 18.7838 10.1091 19.1199 9.46301 19.3426C8.81413 19.5673 8.14488 19.6812 7.47266 19.6813H0V0.00933517H7.22986V0ZM17.6526 16.2182C18.1111 16.7889 18.7708 17.0756 19.6263 17.0756C20.2411 17.0756 20.7726 16.8783 21.2207 16.4795C21.6625 16.0928 21.9293 15.6661 22.0335 15.226H24.7303C24.3104 16.9329 23.6383 18.1598 22.7504 18.8932C21.8647 19.64 20.7872 20 19.5408 20C18.6686 20 17.8902 19.8266 17.1733 19.4666C16.499 19.1267 15.8882 18.6087 15.3809 17.9464C14.8846 17.2662 14.5026 16.4628 14.2586 15.5861C13.995 14.666 13.8699 13.6525 13.8699 12.559C13.8699 11.4882 14.0106 10.5054 14.2899 9.58528C14.5712 8.65182 14.961 7.87838 15.457 7.19829C15.9728 6.5182 16.5647 6.0048 17.266 5.60608C17.9673 5.20736 18.7249 5.02867 19.5794 5.02867C20.5277 5.02867 21.3405 5.24737 22.0595 5.7261C22.74 6.17113 23.3318 6.80978 23.7894 7.59301C24.2479 8.37445 24.5709 9.27324 24.7689 10.2867C24.9669 11.2868 25.0294 12.3403 24.9877 13.4605H16.9742C16.9742 14.5806 17.266 15.6368 17.7141 16.2142L17.6307 16.2542L17.6526 16.2182ZM6.98185 16.2848C7.31219 16.2848 7.62793 16.2448 7.92596 16.1608C8.22816 16.0808 8.49702 15.9408 8.72106 15.7608C8.9399 15.5807 9.12747 15.3234 9.26294 14.9833C9.39841 14.6633 9.46093 14.2232 9.46093 13.7032C9.46093 12.703 9.23168 11.9829 8.79401 11.5429C8.34592 11.1161 7.76236 10.9028 7.03291 10.9028H3.3763V16.3035H6.98185V16.2635V16.2848ZM21.1613 8.7505C20.7945 8.2371 20.1817 7.96106 19.4346 7.96106C18.9469 7.96106 18.5436 8.05974 18.2195 8.27844C17.9048 8.47846 17.6464 8.74517 17.4484 9.06521C17.2504 9.38525 17.118 9.70529 17.0399 10.0653C16.9617 10.4121 16.9148 10.7321 16.8992 11.0121H21.8615C21.7886 10.012 21.5176 9.27857 21.1529 8.7585V8.77184L21.1613 8.7505ZM6.79428 7.93039C7.39243 7.93039 7.88845 7.7517 8.27923 7.38099C8.66896 7.02094 8.85653 6.42086 8.85653 5.59675C8.85653 5.13802 8.78359 4.7633 8.66896 4.4686C8.53349 4.17522 8.35634 3.94853 8.14792 3.78584C7.92909 3.62048 7.67899 3.5058 7.39764 3.44313C7.10898 3.37466 6.81587 3.34161 6.5223 3.34445H3.36588V7.93173H6.79428V7.93039ZM16.275 1.31884H22.4941V3.25777H16.275V1.30284V1.31618V1.31884Z" fill="#050112"/>
</svg>
